<svg width="44" height="44" viewBox="0 0 44 44" fill="none" xmlns="http://www.w3.org/2000/svg">
<path d="M17.5156 29H14.2461V18.4883H17.5156V29ZM15.8633 17.082C14.8438 17.082 14 16.2031 14 15.1484C14 14.1289 14.8438 13.2852 15.8633 13.2852C16.918 13.2852 17.7617 14.1289 17.7617 15.1484C17.7617 16.2031 16.918 17.082 15.8633 17.082ZM29.7148 29H26.4805V23.9023C26.4805 22.6719 26.4453 21.125 24.7578 21.125C23.0703 21.125 22.8242 22.4258 22.8242 23.7969V29H19.5547V18.4883H22.6836V19.9297H22.7188C23.1758 19.1211 24.2305 18.2422 25.8125 18.2422C29.1172 18.2422 29.75 20.4219 29.75 23.2344V29H29.7148Z" fill="black"/>
<rect x="0.5" y="0.5" width="43" height="43" rx="21.5" stroke="#DADADA"/>
</svg>
