<svg width="44" height="44" viewBox="0 0 44 44" fill="none" xmlns="http://www.w3.org/2000/svg">
<path d="M30.1367 18.5938C30.1367 18.7695 30.1367 18.9102 30.1367 19.0859C30.1367 23.9727 26.4453 29.5625 19.6602 29.5625C17.5508 29.5625 15.6172 28.9648 14 27.9102C14.2812 27.9453 14.5625 27.9805 14.8789 27.9805C16.6016 27.9805 18.1836 27.3828 19.4492 26.3984C17.832 26.3633 16.4609 25.3086 16.0039 23.832C16.25 23.8672 16.4609 23.9023 16.707 23.9023C17.0234 23.9023 17.375 23.832 17.6562 23.7617C15.9688 23.4102 14.7031 21.9336 14.7031 20.1406V20.1055C15.1953 20.3867 15.793 20.5273 16.3906 20.5625C15.3711 19.8945 14.7383 18.7695 14.7383 17.5039C14.7383 16.8008 14.9141 16.168 15.2305 15.6406C17.0586 17.8555 19.8008 19.332 22.8594 19.5078C22.7891 19.2266 22.7539 18.9453 22.7539 18.6641C22.7539 16.625 24.4062 14.9727 26.4453 14.9727C27.5 14.9727 28.4492 15.3945 29.1523 16.1328C29.9609 15.957 30.7695 15.6406 31.4727 15.2188C31.1914 16.0977 30.6289 16.8008 29.8555 17.2578C30.5938 17.1875 31.332 16.9766 31.9648 16.6953C31.4727 17.4336 30.8398 18.0664 30.1367 18.5938Z" fill="black"/>
<rect x="0.5" y="0.5" width="43" height="43" rx="21.5" stroke="#DADADA"/>
</svg>
