<svg xmlns="http://www.w3.org/2000/svg" width="192" height="119" fill="none" viewBox="0 0 192 119"><path stroke="url(#paint0_linear_355_95265)" stroke-linecap="round" stroke-opacity=".39" stroke-width="8" d="M25.5085 4.07874C3.00199 28.9176 -6.92126 57.5395 25.5434 80.1122C50.5521 97.5007 93.032 87.1783 100.135 54.7088C101.837 46.9292 94.1157 38.9129 87.42 36.1819C76.8279 31.8616 67.7904 36.1073 61.2632 45.1248C49.4061 61.5057 47.8528 90.5884 66.0231 103.264C94.4581 123.099 131.118 114.716 158.456 96.9258C163.901 93.3823 199.686 60.4068 174.77 71.5908C170.248 73.6206 156.954 80.2267 161.595 78.4853C169.289 75.598 173.492 73.655 180.04 68.3527C181.34 67.3 187.364 60.8484 187.34 65.6439C187.29 75.4629 187.998 85.2393 187.723 95.0723"/><defs><linearGradient id="paint0_linear_355_95265" x1="40.704" x2="148.005" y1="102.949" y2="16.059" gradientUnits="userSpaceOnUse"><stop stop-color="#BD08FD"/><stop offset=".573" stop-color="#0C50FF"/></linearGradient></defs></svg>