<svg width="60" height="60" viewBox="0 0 60 60" fill="none" xmlns="http://www.w3.org/2000/svg">
<g clip-path="url(#clip0_368_95302)">
<path d="M46.7631 36.3003L29.8534 53.21C24.2386 58.8248 15.1636 58.8248 9.54877 53.21L9.09175 52.753C6.41492 50.0762 4.91329 46.42 4.91329 42.568C4.91329 38.716 6.41492 35.1251 9.09175 32.383L35.86 5.6148C37.8186 3.65615 40.4302 2.54625 43.2376 2.54625C46.045 2.54625 48.6565 3.65615 50.6151 5.6148L51.9862 6.98585C56.0341 11.0337 56.0341 17.6931 51.9862 21.741L40.8872 32.84L31.7468 42.111C28.6783 45.1795 23.7163 45.1795 20.6478 42.111L20.1908 41.654C17.1222 38.5854 17.1222 33.6235 20.1908 30.5549L37.7533 13.0577C38.2756 12.5354 38.2756 11.7519 37.7533 11.2296C37.231 10.7073 36.4476 10.7073 35.9253 11.2296L18.3627 28.7269C14.3148 32.7748 14.3148 39.4342 18.3627 43.482L18.8197 43.9391C20.8437 45.963 23.5205 47.0076 26.1973 47.0076C28.8741 47.0076 31.5509 45.963 33.5749 43.9391L42.7805 34.7334L53.8796 23.6344C58.9721 18.5419 58.9721 10.2503 53.8796 5.15778L52.5085 3.78672C50.0275 1.30577 46.7631 0 43.3028 0C39.8426 0 36.5129 1.37106 34.0972 3.78672L7.32896 30.5549C4.06454 33.7541 2.30176 38.0631 2.30176 42.568C2.30176 47.0729 4.06454 51.3819 7.26367 54.5811L7.72069 55.0381C11.0504 58.3678 15.3594 60 19.7337 60C24.1081 60 28.4171 58.3678 31.7468 55.0381L48.6565 38.1284C49.1788 37.6061 49.1788 36.8226 48.6565 36.3003C48.1342 35.778 47.2854 35.778 46.7631 36.3003Z" fill="#0C77FF"/>
<path d="M53.4228 29.6409L51.9865 31.0773C51.4641 31.5996 51.4641 32.383 51.9865 32.9053C52.2476 33.1665 52.5741 33.2971 52.9005 33.2971C53.2269 33.2971 53.5534 33.1665 53.8145 32.9053L55.2509 31.469C55.7732 30.9467 55.7732 30.1632 55.2509 29.6409C54.7286 29.1839 53.9451 29.1839 53.4228 29.6409Z" fill="#0C77FF"/>
</g>
<defs>
<clipPath id="clip0_368_95302">
<rect width="60" height="60" fill="white"/>
</clipPath>
</defs>
</svg>
