<svg xmlns="http://www.w3.org/2000/svg" width="53" height="23" fill="none" viewBox="0 0 53 23"><path fill="#0C77FF" d="M10.8829 22.39C9.46289 22.39 8.12789 22.11 6.87789 21.55C5.62789 20.98 4.52789 20.195 3.57789 19.195C2.63789 18.195 1.89789 17.04 1.35789 15.73C0.82789 14.41 0.56289 13 0.56289 11.5C0.56289 9.99 0.82789 8.58 1.35789 7.27C1.89789 5.95 2.63789 4.795 3.57789 3.805C4.52789 2.805 5.62789 2.025 6.87789 1.465C8.12789 0.894998 9.46289 0.609998 10.8829 0.609998C12.5829 0.609998 14.1479 1.005 15.5779 1.795C17.0079 2.575 18.1929 3.62 19.1329 4.93L15.8629 6.685C15.2729 5.955 14.5379 5.37 13.6579 4.93C12.7879 4.49 11.8629 4.27 10.8829 4.27C9.96289 4.27 9.09789 4.46 8.28789 4.84C7.47789 5.21 6.76789 5.73 6.15789 6.4C5.54789 7.06 5.07289 7.83 4.73289 8.71C4.39289 9.58 4.22289 10.51 4.22289 11.5C4.22289 12.5 4.39289 13.435 4.73289 14.305C5.08289 15.175 5.56289 15.945 6.17289 16.615C6.78289 17.275 7.48789 17.795 8.28789 18.175C9.09789 18.545 9.96289 18.73 10.8829 18.73C11.8829 18.73 12.8129 18.51 13.6729 18.07C14.5429 17.62 15.2729 17.03 15.8629 16.3L19.1329 18.07C18.1929 19.37 17.0079 20.415 15.5779 21.205C14.1479 21.995 12.5829 22.39 10.8829 22.39ZM26.6024 20.5V14.83H20.9324V11.17H26.6024V5.5H30.2624V11.17H35.9324V14.83H30.2624V20.5H26.6024ZM43.1048 20.5V14.83H37.4348V11.17H43.1048V5.5H46.7648V11.17H52.4348V14.83H46.7648V20.5H43.1048Z"/></svg>