<svg width="74" height="74" viewBox="0 0 74 74" fill="none" xmlns="http://www.w3.org/2000/svg">
<g clip-path="url(#clip0_368_95308)">
<path d="M52.5891 4.46545L7.23262 16.6187C3.76789 17.5471 1.69268 21.1414 2.62106 24.6062L13.4239 64.9231C14.3523 68.3878 17.9467 70.463 21.4114 69.5346L66.7679 57.3814C70.2327 56.453 72.3079 52.8586 71.3795 49.3939L60.5766 9.07701C59.6482 5.61228 56.0539 3.53707 52.5891 4.46545ZM68.8597 50.0691C69.4167 52.1479 68.1716 54.3046 66.0927 54.8616L20.7362 67.0148C18.6574 67.5718 16.5008 66.3267 15.9437 64.2479L5.14086 23.931C4.58384 21.8521 5.82896 19.6955 7.9078 19.1385L53.2643 6.98525C55.3432 6.42823 57.4998 7.67335 58.0568 9.75219L68.8597 50.0691Z" fill="#0C77FF"/>
<path d="M27.6626 27.3488L22.623 28.6992L21.2726 23.6596C21.087 22.9666 20.3681 22.5516 19.6751 22.7373C18.9822 22.923 18.5672 23.6418 18.7528 24.3348L20.1032 29.3744L15.0636 30.7247C14.3706 30.9104 13.9556 31.6293 14.1413 32.3222C14.3269 33.0152 15.0458 33.4302 15.7388 33.2446L20.7784 31.8942L22.1287 36.9338C22.3144 37.6267 23.0333 38.0418 23.7262 37.8561C24.4192 37.6704 24.8342 36.9516 24.6485 36.2586L23.2982 31.219L28.3378 29.8686C29.0307 29.683 29.4458 28.9641 29.2601 28.2712C29.0744 27.5782 28.3556 27.1632 27.6626 27.3488Z" fill="#0C77FF"/>
<path d="M51.6006 20.9346L39.0016 24.3105C38.3087 24.4962 37.8936 25.2151 38.0793 25.908C38.265 26.601 38.9838 27.016 39.6768 26.8303L52.2758 23.4544C52.9688 23.2688 53.3838 22.5499 53.1981 21.857C53.0125 21.164 52.2936 20.749 51.6006 20.9346Z" fill="#0C77FF"/>
<path d="M30.9589 43.6827C30.3199 43.3138 29.501 43.5332 29.1951 44.1553L26.6295 48.6913L22.1396 46.0458C21.5006 45.6769 20.7447 45.8795 20.3757 46.5185C20.0068 47.1575 20.2094 47.9134 20.8484 48.2823L25.4012 50.9109L22.7726 55.4638C22.4037 56.1028 22.6063 56.8587 23.2452 57.2276C23.5647 57.4121 23.9135 57.4537 24.2285 57.3693C24.5434 57.2849 24.8246 57.0745 25.0091 56.755L27.5747 52.219L32.0646 54.8645C32.3841 55.049 32.7328 55.0906 33.0478 55.0062C33.3628 54.9218 33.644 54.7114 33.8284 54.3919C34.1974 53.7529 33.9948 52.9969 33.3558 52.628L28.8659 49.9825L31.4945 45.4297C31.8005 44.8076 31.5979 44.0516 30.9589 43.6827Z" fill="#0C77FF"/>
<path d="M57.6773 43.6129L45.0783 46.9888C44.3853 47.1745 43.9703 47.8934 44.1559 48.5863C44.3416 49.2793 45.0605 49.6943 45.7534 49.5086L58.3525 46.1327C59.0454 45.9471 59.4605 45.2282 59.2748 44.5352C59.0891 43.8423 58.3702 43.4273 57.6773 43.6129Z" fill="#0C77FF"/>
<path d="M55.6519 36.0535L43.0529 39.4294C42.3599 39.6151 41.9449 40.3339 42.1306 41.0269C42.3162 41.7198 43.0351 42.1349 43.7281 41.9492L56.3271 38.5733C57.02 38.3876 57.4351 37.6687 57.2494 36.9758C57.0637 36.2828 56.3449 35.8678 55.6519 36.0535Z" fill="#0C77FF"/>
</g>
<defs>
<clipPath id="clip0_368_95308">
<rect width="60" height="60" fill="white" transform="translate(0.257812 15.7868) rotate(-15)"/>
</clipPath>
</defs>
</svg>
