<svg xmlns="http://www.w3.org/2000/svg" width="89" height="89" fill="none" viewBox="0 0 89 89"><g clip-path="url(#clip0_368_95287)"><path fill="#FFE9BF" d="M79.7719 51.0561L49.096 35.1285L42.3661 21.3301L42.4306 21.2986C42.5595 21.2357 42.624 21.2043 42.7215 21.0769C44.1464 19.7434 44.5837 17.6943 43.7346 15.9534L42.4766 13.3743C41.4388 11.2465 38.8488 10.3546 36.721 11.3924L22.5357 18.3111C20.4079 19.3489 19.5161 21.9389 20.5539 24.0667L21.8118 26.6459C22.7553 28.5802 24.9285 29.4358 26.8912 28.8777L33.6211 42.6761L27.3508 76.6236C26.8426 79.3458 27.9071 82.0193 30.0725 83.6769C32.2379 85.3346 35.0906 85.6194 37.5408 84.4243L79.6454 63.8886C82.0956 62.6935 83.6274 60.2702 83.6543 57.5433C83.6812 54.8164 82.2298 52.3316 79.7719 51.0561ZM36.5399 42.7691C36.639 42.4813 36.5462 42.1275 36.4204 41.8695L29.5018 27.6842L31.1138 26.898C31.823 26.5521 32.1203 25.6887 31.7744 24.9795C31.4284 24.2702 30.5651 23.9729 29.8558 24.3189L26.3095 26.0485C25.6002 26.3945 24.7369 26.0972 24.391 25.3879L23.133 22.8088C22.7871 22.0995 23.0844 21.2362 23.7936 20.8902L37.9789 13.9716C38.6882 13.6257 39.5515 13.9229 39.8975 14.6322L41.1554 17.2113C41.4699 17.8561 41.2387 18.5276 40.8502 18.8767L39.7855 19.4758C39.1077 19.8862 38.8435 20.6536 39.1894 21.3629L46.737 36.8378C46.8628 37.0957 47.0531 37.3222 47.3723 37.4858L63.3967 45.7932C62.0772 46.1973 60.6619 46.5683 59.2481 46.779L50.9572 48.1089C44.7548 49.1386 38.4029 52.3165 33.9962 56.7006L33.9317 56.7321L36.5399 42.7691ZM80.767 57.5148C80.7826 59.1834 79.8705 60.5861 78.3874 61.3094L36.2829 81.8452C34.7998 82.5685 33.1329 82.4237 31.8277 81.3842C30.458 80.376 29.8322 78.7656 30.1688 77.1648L32.9831 61.8241L35.9964 58.8379C40.0461 54.8673 45.7863 51.908 51.41 51.001L59.7008 49.671C62.2076 49.2466 64.653 48.5327 66.8123 47.5594L78.4319 53.5455C79.9636 54.3948 80.8159 55.8149 80.767 57.5148Z"/><path fill="#FFE9BF" d="M35.6276 24.6966L37.5619 23.7532C38.2712 23.4073 38.5685 22.5439 38.2226 21.8346C37.8766 21.1254 37.0133 20.8281 36.304 21.174L34.3697 22.1175C33.6604 22.4634 33.3631 23.3268 33.709 24.036C34.055 24.7453 34.9183 25.0426 35.6276 24.6966Z"/></g><defs><clipPath id="clip0_368_95287"><rect width="66" height="66" fill="#fff" transform="translate(0 29.3022) rotate(-26)"/></clipPath></defs></svg>