<svg xmlns="http://www.w3.org/2000/svg" width="50" height="50" fill="none" viewBox="0 0 50 50"><g clip-path="url(#clip0_730_95817)"><path fill="#FF8A00" d="M15.4295 39.0345L14.0345 40.4296C13.8484 40.6156 13.6345 40.7086 13.3927 40.7086C13.1509 40.7086 12.937 40.6156 12.751 40.4296L-0.251256 27.4274C-0.437267 27.2413 -0.530273 27.0274 -0.530273 26.7856C-0.530273 26.5438 -0.437267 26.3299 -0.251256 26.1439L12.751 13.1416C12.937 12.9556 13.1509 12.8626 13.3927 12.8626C13.6345 12.8626 13.8484 12.9556 14.0345 13.1416L15.4295 14.5367C15.6156 14.7227 15.7086 14.9367 15.7086 15.1785C15.7086 15.4203 15.6156 15.6342 15.4295 15.8202L4.46415 26.7856L15.4295 37.751C15.6156 37.937 15.7086 38.1509 15.7086 38.3928C15.7086 38.6346 15.6156 38.8485 15.4295 39.0345ZM31.9195 9.26329L21.5121 45.2845C21.4377 45.5263 21.2936 45.7077 21.0797 45.8286C20.8657 45.9495 20.6472 45.9727 20.424 45.8983L18.6941 45.424C18.4522 45.3496 18.2709 45.2054 18.15 44.9915C18.0291 44.7776 18.0058 44.5497 18.0802 44.3079L28.4876 8.28673C28.562 8.04491 28.7061 7.86355 28.9201 7.74264C29.134 7.62173 29.3525 7.59848 29.5758 7.67289L31.3057 8.14722C31.5475 8.22162 31.7288 8.36578 31.8497 8.5797C31.9707 8.79361 31.9939 9.02147 31.9195 9.26329ZM50.251 27.4274L37.2487 40.4296C37.0627 40.6156 36.8488 40.7086 36.607 40.7086C36.3652 40.7086 36.1513 40.6156 35.9653 40.4296L34.5702 39.0345C34.3842 38.8485 34.2912 38.6346 34.2912 38.3928C34.2912 38.1509 34.3842 37.937 34.5702 37.751L45.5356 26.7856L34.5702 15.8202C34.3842 15.6342 34.2912 15.4203 34.2912 15.1785C34.2912 14.9367 34.3842 14.7227 34.5702 14.5367L35.9653 13.1416C36.1513 12.9556 36.3652 12.8626 36.607 12.8626C36.8488 12.8626 37.0627 12.9556 37.2487 13.1416L50.251 26.1439C50.437 26.3299 50.53 26.5438 50.53 26.7856C50.53 27.0274 50.437 27.2413 50.251 27.4274Z"/></g><defs><clipPath id="clip0_730_95817"><rect width="50" height="50" fill="#fff"/></clipPath></defs></svg>