<svg xmlns="http://www.w3.org/2000/svg" width="49" height="19" fill="none" viewBox="0 0 49 19"><path fill="#0C77FF" d="M31.0939 4.78131C31.211 5.01568 30.9767 5.01568 30.8595 5.01568L26.8751 6.07037C26.5235 6.30475 26.2892 5.95318 26.2892 5.95318C23.8282 2.90631 18.672 5.01568 18.4376 9.46881C18.2032 13.6876 23.711 15.3282 26.2892 11.1094H21.836C21.4845 11.1094 20.8985 10.9922 21.4845 9.93756L22.422 7.94537C22.6564 7.47662 22.7735 7.47662 23.4767 7.47662H31.6798C31.6798 16.9688 21.1329 21.1876 15.5079 15.4454C12.9298 12.7501 12.1095 6.65631 17.3829 2.32037C21.6017 -1.07807 28.6329 -1.07807 31.0939 4.78131ZM32.9689 16.0313C27.6954 11.461 30.5079 1.96881 38.8282 0.445372C47.3829 -1.07807 51.1329 6.89068 47.7345 12.8672C44.922 17.9063 37.422 20.0157 32.9689 16.0313ZM43.9845 10.0547C45.0392 7.12506 42.9298 4.31256 39.7657 4.54693C36.2501 4.8985 33.7892 9.46881 36.0157 12.1641C38.2423 14.7422 42.8126 13.5704 43.9845 10.0547ZM6.36729 9.82037V9.70319L6.60166 9.11725L6.83604 9.00006H11.6407L11.7579 9.11725L11.6407 9.70319L11.5235 9.82037H6.36729ZM0.742285 7.711C0.742285 7.711 0.50791 7.711 0.625098 7.59381L1.09385 6.89068L1.32822 6.7735H12.1095L12.2267 6.89068L11.9923 7.47662L11.8751 7.59381L0.742285 7.711ZM4.25791 5.48443L4.14072 5.36725L4.72666 4.78131L4.96104 4.66412H13.3985V4.78131L13.047 5.36725L12.8126 5.48443H4.25791Z"/></svg>