<svg width="40" height="40" viewBox="0 0 40 40" fill="none" xmlns="http://www.w3.org/2000/svg">
<path d="M2.5 2.5V37.5H37.5V2.5H2.5ZM21.25 29.6875C21.25 33.0945 19.2375 34.7555 16.3242 34.7555C13.693 34.7555 12.1656 33.393 11.3906 31.7484L14.0688 30.1273C14.5852 31.0438 14.9773 31.8188 16.1047 31.8188C17.0422 31.8188 17.8125 31.3961 17.8125 29.7516V18.75H21.25V29.6875ZM29.0117 34.6773C25.9578 34.6773 23.9844 33.2992 23.0211 31.3961L25.7031 29.8438C26.4062 30.9953 27.3242 31.7625 28.9453 31.7625C30.3078 31.7625 31.0992 31.1594 31.0992 30.2195C31.0992 29.0922 30.2844 28.693 28.7805 28.032L27.9586 27.6789C25.5852 26.6695 24.0117 25.4008 24.0117 22.7219C24.0117 20.2555 25.8906 18.4539 28.8273 18.4539C30.9187 18.4539 32.4211 19.1039 33.5031 21.007L30.9375 22.6562C30.3734 21.6461 29.7656 21.25 28.8234 21.25C27.8602 21.25 27.2492 21.8609 27.2492 22.6562C27.2492 23.643 27.8602 24.0422 29.2695 24.6531L30.0914 25.0055C32.8875 26.2039 34.4617 27.4273 34.4617 30.1742C34.4625 33.1352 32.1367 34.6773 29.0117 34.6773Z" fill="#0C77FF"/>
</svg>
