<svg width="50" height="50" viewBox="0 0 50 50" fill="none" xmlns="http://www.w3.org/2000/svg">
<path d="M18.9373 20.3485C18.4754 19.3274 18.2684 18.1364 18.6212 17.0545C18.974 15.9483 19.7641 15.061 20.5542 14.2344C22.754 12.0341 25.4649 10.4175 27.6164 8.18106C28.8075 6.95322 29.7919 5.48242 30.1322 3.79268C30.4119 2.55293 30.2783 1.27666 30.0231 0.0488281C31.1657 1.34951 31.5425 3.20928 31.2142 4.88682C30.8619 6.7708 29.8162 8.43604 28.5886 9.87031C27.6041 11.0253 26.4735 12.0463 25.2946 12.9946C23.921 14.1008 22.5719 15.2919 21.709 16.8479C20.9793 18.1118 20.8091 19.6678 21.3077 21.0414C22.1222 23.3994 24.0182 25.1499 25.0516 27.3742C23.9087 26.3652 22.7907 25.3199 21.745 24.214C20.6514 23.047 19.618 21.8073 18.9373 20.3485ZM25.1365 18.5008C24.9299 20.4336 25.9385 22.2568 27.1422 23.6913C27.7254 24.3354 28.2239 25.1256 28.248 26.0252C28.2725 27.2281 27.5921 28.3469 26.7164 29.1366C26.9233 29.1126 27.0691 28.9301 27.2393 28.8329C28.5521 27.9941 29.816 26.9366 30.4602 25.4904C30.8857 24.5058 30.7885 23.3387 30.2295 22.4269C29.5729 21.3572 28.7101 20.4091 28.1997 19.2423C27.9197 18.5859 27.8225 17.8202 28.0536 17.1273C28.3577 16.1915 29.0139 15.4256 29.7069 14.757C31.6151 12.9461 33.9246 11.6571 36.137 10.2474C33.3412 11.0495 30.582 12.1558 28.2239 13.8941C26.7287 15.0124 25.3432 16.5682 25.1365 18.5008ZM38.4225 27.6418C39.7475 27.7148 41.0477 28.6871 41.2911 30.0243C41.5221 31.1791 40.9631 32.3216 40.2457 33.1967C39.0665 34.6066 37.474 35.6157 35.87 36.4788C35.7116 36.5756 35.578 36.6973 35.4564 36.8312C37.5715 36.2962 39.6863 35.4943 41.4004 34.1206C42.3482 33.3305 43.187 32.2848 43.3695 31.0328C43.5397 29.9512 43.0902 28.8328 42.2877 28.1157C41.3151 27.228 39.9419 26.9001 38.6532 27.0704C37.9117 27.1676 37.0974 27.3256 36.587 27.9455C37.195 27.8243 37.7901 27.581 38.4225 27.6418ZM12.0332 31.1179C13.6252 31.5434 15.2664 31.665 16.8952 31.7745C18.3538 31.8717 19.8126 31.8962 21.2835 31.8839C25.0758 31.8234 28.8925 31.5679 32.612 30.7414C32.9643 30.6564 33.3535 30.5956 33.6699 30.3769C34.2897 29.9755 34.97 29.6594 35.6388 29.3434C32.612 29.8296 29.5731 30.2433 26.5101 30.4376C23.4105 30.632 20.2864 30.7536 17.1749 30.5471C16.2875 30.4621 15.3757 30.4132 14.5493 30.0727C14.3545 29.9877 14.0871 29.8179 14.1842 29.5622C14.3667 29.234 14.7314 29.0762 15.0474 28.906C16.3847 28.2738 17.8432 27.9215 19.2655 27.5082C16.822 27.4715 14.3909 28.0913 12.1547 29.0518C11.6562 29.295 11.0971 29.4894 10.6961 29.9027C10.5377 30.0726 10.5377 30.3648 10.7203 30.5104C11.085 30.8386 11.5709 30.9844 12.0332 31.1179ZM31.7249 34.4609C29.5976 34.8378 27.458 35.1906 25.3064 35.2997C22.9483 35.4577 20.5902 35.3238 18.2565 35.0809C17.8069 35.02 17.357 34.9473 16.956 34.7407C16.7494 34.619 16.5428 34.4247 16.555 34.169C16.5791 33.7681 16.9193 33.4887 17.1626 33.1968C16.4092 33.4643 15.6554 33.7436 15.0234 34.2425C14.7556 34.4491 14.4884 34.7771 14.5612 35.1417C14.671 35.5671 15.0842 35.8224 15.4489 36.0167C16.3481 36.4789 17.3571 36.6853 18.3419 36.8677C20.8333 37.269 23.3739 37.2812 25.8778 37.1106C28.5283 36.9041 31.1657 36.4667 33.7304 35.7129C33.0011 35.385 32.3082 35.0077 31.7249 34.4609ZM18.366 38.6671C17.6853 38.8614 16.9923 39.0926 16.4333 39.5418C16.1533 39.7606 15.9348 40.1379 16.0687 40.4903C16.2389 40.9399 16.6644 41.2078 17.0651 41.4381C18.1108 42.0098 19.2897 42.2769 20.4444 42.4838C23.0582 42.8968 25.7442 42.8361 28.3456 42.3744C29.8891 42.0825 31.433 41.6692 32.8671 41.0253C31.9312 40.6362 31.0198 40.1984 30.1447 39.6881C28.6252 39.9555 27.0933 40.2353 25.5374 40.3324C23.4835 40.4904 21.4047 40.3202 19.3504 40.065C18.8641 39.9556 18.2565 39.907 17.9283 39.4814C17.7584 39.1286 18.1472 38.8733 18.366 38.6671ZM34.9946 46.4826C36.6961 46.1307 38.4103 45.7288 39.9661 44.9391C40.452 44.6591 41.0477 44.3552 41.2061 43.7721C41.2911 43.213 40.7076 42.9211 40.2943 42.69C40.5495 42.9823 40.7197 43.4075 40.4642 43.7477C40.0387 44.3192 39.3098 44.5378 38.6654 44.7566C36.6478 45.3279 34.5568 45.559 32.4784 45.79C26.972 46.2883 21.429 46.41 15.9229 45.948C14.0752 45.7533 12.1908 45.5468 10.4284 44.8905C10.1491 44.7688 9.72358 44.6472 9.72358 44.2702C9.83267 43.9427 10.1491 43.7598 10.4284 43.6018C11.6925 42.9577 13.1026 42.605 14.5125 42.52C14.0997 42.2768 13.6133 42.2526 13.1393 42.2648C11.96 42.3013 10.8053 42.605 9.68725 42.9823C8.7269 43.3343 7.74233 43.7235 6.97632 44.4287C6.67251 44.6958 6.39321 45.2062 6.70884 45.5712C7.19517 46.0939 7.94897 46.2274 8.61704 46.3854C12.361 47.0299 16.1533 47.394 19.9462 47.5279C24.9786 47.6742 30.0472 47.4553 34.9946 46.4826ZM39.9783 47.1393C37.6929 47.8686 35.3228 48.2695 32.9644 48.5979C28.8925 49.1083 24.7838 49.2663 20.6874 49.145C18.1957 49.0479 15.7041 48.8776 13.2484 48.464C13.8197 48.853 14.5249 48.9744 15.1814 49.1569C17.9409 49.7405 20.7727 49.8499 23.5808 49.9349C27.7009 50.0079 31.8217 49.8499 35.8818 49.2056C37.8026 48.8657 39.7352 48.4521 41.4609 47.5525C42.3608 47.0785 43.2726 46.3488 43.4299 45.2916C42.5186 46.2638 41.2061 46.7138 39.9783 47.1393Z" fill="#0C77FF"/>
</svg>
