<svg width="64" height="64" viewBox="0 0 64 64" fill="none" xmlns="http://www.w3.org/2000/svg">
<g clip-path="url(#clip0_730_95820)">
<path d="M20.9998 40.9999C21.265 40.9999 21.5193 40.8945 21.7068 40.7069L30.7068 31.7069C30.8889 31.5183 30.9897 31.2657 30.9875 31.0035C30.9852 30.7413 30.88 30.4905 30.6946 30.3051C30.5092 30.1197 30.2584 30.0145 29.9962 30.0122C29.734 30.01 29.4814 30.1108 29.2928 30.2929L20.2928 39.2929C20.153 39.4328 20.0578 39.6109 20.0192 39.8049C19.9806 39.9988 20.0004 40.1999 20.0761 40.3826C20.1518 40.5653 20.2799 40.7214 20.4443 40.8313C20.6087 40.9412 20.802 40.9999 20.9998 40.9999ZM32.9998 28.9999C33.265 28.9999 33.5193 28.8945 33.7068 28.7069L35.7068 26.7069C35.8889 26.5183 35.9897 26.2657 35.9875 26.0035C35.9852 25.7413 35.88 25.4905 35.6946 25.3051C35.5092 25.1197 35.2584 25.0145 34.9962 25.0122C34.734 25.01 34.4814 25.1108 34.2928 25.2929L32.2928 27.2929C32.153 27.4328 32.0578 27.6109 32.0192 27.8049C31.9806 27.9988 32.0004 28.1999 32.0761 28.3826C32.1518 28.5653 32.2799 28.7214 32.4443 28.8313C32.6087 28.9412 32.802 28.9999 32.9998 28.9999ZM34.2928 34.7069C34.4803 34.8944 34.7346 34.9997 34.9998 34.9997C35.265 34.9997 35.5193 34.8944 35.7068 34.7069L37.7068 32.7069C37.8889 32.5183 37.9897 32.2657 37.9875 32.0035C37.9852 31.7413 37.88 31.4905 37.6946 31.3051C37.5092 31.1197 37.2584 31.0145 36.9962 31.0122C36.734 31.01 36.4814 31.1108 36.2928 31.2929L34.2928 33.2929C34.1053 33.4804 34 33.7348 34 33.9999C34 34.2651 34.1053 34.5194 34.2928 34.7069ZM37.9998 23.9999C38.265 23.9999 38.5193 23.8945 38.7068 23.7069L40.7068 21.7069C40.8889 21.5183 40.9897 21.2657 40.9875 21.0035C40.9852 20.7413 40.88 20.4905 40.6946 20.3051C40.5092 20.1197 40.2584 20.0145 39.9962 20.0122C39.734 20.01 39.4814 20.1108 39.2928 20.2929L37.2928 22.2929C37.153 22.4328 37.0578 22.6109 37.0192 22.8049C36.9806 22.9988 37.0004 23.1999 37.0761 23.3826C37.1518 23.5653 37.2799 23.7214 37.4443 23.8313C37.6087 23.9412 37.802 23.9999 37.9998 23.9999Z" fill="#FF8A00"/>
<path d="M8 16V41C8 41.5304 8.21071 42.0391 8.58579 42.4142C8.96086 42.7893 9.46957 43 10 43H54C54.5304 43 55.0391 42.7893 55.4142 42.4142C55.7893 42.0391 56 41.5304 56 41V16C56 15.4696 55.7893 14.9609 55.4142 14.5858C55.0391 14.2107 54.5304 14 54 14H10C9.46957 14 8.96086 14.2107 8.58579 14.5858C8.21071 14.9609 8 15.4696 8 16ZM33.586 16L17.293 32.293C17.1975 32.3852 17.1213 32.4956 17.0689 32.6176C17.0165 32.7396 16.9889 32.8708 16.9877 33.0036C16.9866 33.1364 17.0119 33.2681 17.0622 33.391C17.1125 33.5138 17.1867 33.6255 17.2806 33.7194C17.3745 33.8133 17.4862 33.8875 17.609 33.9378C17.7319 33.9881 17.8636 34.0134 17.9964 34.0122C18.1292 34.0111 18.2604 33.9835 18.3824 33.9311C18.5044 33.8787 18.6148 33.8025 18.707 33.707L35.707 16.707C35.8946 16.5195 35.9999 16.2652 36 16H54V41H10V16H33.586ZM36 46C36.2652 46 36.5196 45.8946 36.7071 45.7071C36.8946 45.5196 37 45.2652 37 45C37 44.7348 36.8946 44.4804 36.7071 44.2929C36.5196 44.1054 36.2652 44 36 44H27C26.7348 44 26.4804 44.1054 26.2929 44.2929C26.1054 44.4804 26 44.7348 26 45C26 45.2652 26.1054 45.5196 26.2929 45.7071C26.4804 45.8946 26.7348 46 27 46H36Z" fill="#FF8A00"/>
<path d="M63 47H60V13C60 12.2044 59.6839 11.4413 59.1213 10.8787C58.5587 10.3161 57.7957 10 57 10H7C6.20435 10 5.44129 10.3161 4.87868 10.8787C4.31607 11.4413 4 12.2044 4 13V44C4 44.2652 4.10536 44.5196 4.29289 44.7071C4.48043 44.8946 4.73478 45 5 45C5.26522 45 5.51957 44.8946 5.70711 44.7071C5.89464 44.5196 6 44.2652 6 44V13C6 12.7348 6.10536 12.4804 6.29289 12.2929C6.48043 12.1054 6.73478 12 7 12H57C57.2652 12 57.5196 12.1054 57.7071 12.2929C57.8946 12.4804 58 12.7348 58 13V47H40C39.8025 47.0003 39.6095 47.0587 39.445 47.168L36.7 49H27.3L24.552 47.168C24.3884 47.0593 24.1965 47.0009 24 47H1C0.734784 47 0.48043 47.1054 0.292893 47.2929C0.105357 47.4804 0 47.7348 0 48L0 49C0.00158786 50.3256 0.528882 51.5964 1.46622 52.5338C2.40356 53.4711 3.67441 53.9984 5 54H59C60.3256 53.9984 61.5964 53.4711 62.5338 52.5338C63.4711 51.5964 63.9984 50.3256 64 49V48C64 47.7348 63.8946 47.4804 63.7071 47.2929C63.5196 47.1054 63.2652 47 63 47ZM59 52H5C4.20435 52 3.44129 51.6839 2.87868 51.1213C2.31607 50.5587 2 49.7957 2 49H23.7L26.448 50.832C26.6116 50.9407 26.8035 50.9991 27 51H37C37.1975 50.9997 37.3905 50.9413 37.555 50.832L40.3 49H62C62 49.7957 61.6839 50.5587 61.1213 51.1213C60.5587 51.6839 59.7957 52 59 52Z" fill="#FF8A00"/>
<path d="M46 20H50V22C50 22.2652 50.1054 22.5196 50.2929 22.7071C50.4804 22.8946 50.7348 23 51 23C51.2652 23 51.5196 22.8946 51.7071 22.7071C51.8946 22.5196 52 22.2652 52 22V19C52 18.7348 51.8946 18.4804 51.7071 18.2929C51.5196 18.1054 51.2652 18 51 18H46C45.7348 18 45.4804 18.1054 45.2929 18.2929C45.1054 18.4804 45 18.7348 45 19C45 19.2652 45.1054 19.5196 45.2929 19.7071C45.4804 19.8946 45.7348 20 46 20Z" fill="#FF8A00"/>
<path d="M32 14C32.5523 14 33 13.5523 33 13C33 12.4477 32.5523 12 32 12C31.4477 12 31 12.4477 31 13C31 13.5523 31.4477 14 32 14Z" fill="#FF8A00"/>
</g>
<defs>
<clipPath id="clip0_730_95820">
<rect width="64" height="64" fill="white"/>
</clipPath>
</defs>
</svg>
