<svg xmlns="http://www.w3.org/2000/svg" width="39" height="45" fill="none" viewBox="0 0 39 45"><path fill="#0C77FF" d="M19.5 43.9456C18.8944 43.9456 18.3292 43.7842 17.8043 43.5015L12.4348 40.3121C11.6273 39.868 12.0311 39.7065 12.2733 39.6258C13.3634 39.2624 13.5652 39.1817 14.6957 38.5357C14.8168 38.455 14.9783 38.4953 15.0994 38.5761L19.2174 41.0388C19.3789 41.1196 19.5807 41.1196 19.7019 41.0388L35.8106 31.7127C35.972 31.632 36.0528 31.4705 36.0528 31.2686V12.6568C36.0528 12.455 35.972 12.2935 35.8106 12.2127L19.7019 2.92702C19.5404 2.84627 19.3385 2.84627 19.2174 2.92702L3.1087 12.2127C2.94721 12.2935 2.86646 12.4953 2.86646 12.6568V31.2686C2.86646 31.4301 2.94721 31.632 3.1087 31.7127L7.50932 34.2562C9.8913 35.4674 11.3851 34.0543 11.3851 32.6413V14.2717C11.3851 14.0295 11.587 13.7873 11.8696 13.7873H13.9286C14.1708 13.7873 14.413 13.9891 14.413 14.2717V32.6413C14.413 35.8307 12.677 37.6879 9.64907 37.6879C8.7205 37.6879 7.99379 37.6879 5.93478 36.6786L1.69565 34.2562C0.645963 33.6506 0 32.5202 0 31.309V12.6972C0 11.486 0.645963 10.3556 1.69565 9.75L17.8043 0.423913C18.8137 -0.141304 20.1863 -0.141304 21.1957 0.423913L37.3043 9.75C38.354 10.3556 39 11.486 39 12.6972V31.309C39 32.5202 38.354 33.6506 37.3043 34.2562L21.1957 43.5823C20.6708 43.8245 20.0652 43.9456 19.5 43.9456ZM24.4658 31.1475C17.4006 31.1475 15.9472 27.9177 15.9472 25.1724C15.9472 24.9301 16.1491 24.6879 16.4317 24.6879H18.5311C18.7733 24.6879 18.9752 24.8494 18.9752 25.0916C19.2981 27.2314 20.2267 28.2811 24.5062 28.2811C27.8975 28.2811 29.3509 27.514 29.3509 25.6972C29.3509 24.6475 28.9472 23.8804 23.6584 23.3556C19.2578 22.9115 16.5124 21.9425 16.5124 18.4301C16.5124 15.1599 19.2578 13.222 23.8602 13.222C29.028 13.222 31.5714 14.9984 31.8944 18.8742C31.8944 18.9953 31.854 19.1165 31.7733 19.2376C31.6925 19.3183 31.5714 19.3991 31.4503 19.3991H29.3509C29.1491 19.3991 28.9472 19.2376 28.9068 19.0357C28.4224 16.8152 27.1708 16.0885 23.8602 16.0885C20.146 16.0885 19.7019 17.3804 19.7019 18.3494C19.7019 19.5202 20.2267 19.8835 25.2329 20.5295C30.1988 21.1755 32.5404 22.104 32.5404 25.5761C32.5 29.1289 29.5932 31.1475 24.4658 31.1475Z"/></svg>