<svg width="46" height="46" viewBox="0 0 46 46" fill="none" xmlns="http://www.w3.org/2000/svg">
<path d="M18.4999 7.99996H21.4999M13.9999 12.4999V4.99998C13.9999 3.34313 15.3431 2 16.9999 2H28.9998C30.6567 2 31.9998 3.34313 31.9998 4.99998V19.9999C31.9998 21.6567 30.6567 22.9998 28.9998 22.9998H16.9999C15.3431 22.9998 13.9999 24.343 13.9999 25.9998V40.9997C13.9999 42.6566 15.3431 43.9997 16.9999 43.9997H28.9998C30.6567 43.9997 31.9998 42.6566 31.9998 40.9997V33.4998M24.4998 13.9999H4.99998C3.34313 13.9999 2 15.3431 2 16.9999V31.9998C2 33.6567 3.34313 34.9998 4.99998 34.9998H13.9999M21.4999 31.9998H40.9997C42.6566 31.9998 43.9997 30.6567 43.9997 28.9998V13.9999C43.9997 12.3431 42.6566 10.9999 40.9997 10.9999H31.9998M24.4998 37.9997H27.4998" stroke="#0C77FF" stroke-width="2.8"/>
</svg>
