<svg xmlns="http://www.w3.org/2000/svg" width="50" height="50" fill="none" viewBox="0 0 50 50"><path fill="#0C77FF" d="M23.1311 21.7456C22.4937 22.1136 21.9799 22.6623 21.6544 23.3223C21.3289 23.9823 21.2065 24.724 21.3025 25.4535C21.3986 26.1831 21.7088 26.8679 22.1941 27.4211C22.6793 27.9744 23.3177 28.3714 24.0285 28.5618C24.7393 28.7522 25.4906 28.7276 26.1875 28.4911C26.8843 28.2545 27.4953 27.8166 27.9433 27.2328C28.3912 26.6489 28.656 25.9454 28.7041 25.211C28.7522 24.4767 28.5815 23.7446 28.2135 23.1074C27.72 22.2529 26.9074 21.6294 25.9543 21.374C25.0011 21.1186 23.9856 21.2523 23.1311 21.7456ZM39.8075 25.7825C39.5632 25.5033 39.3055 25.2234 39.0343 24.9427C39.2237 24.7436 39.407 24.5447 39.5843 24.3459C42.9297 20.587 44.3417 16.8173 43.0334 14.551C41.7789 12.3781 38.0471 11.7305 33.3752 12.6389C32.915 12.729 32.4574 12.8305 32.0023 12.9436C31.9152 12.6433 31.8225 12.3447 31.7243 12.0478C30.1394 7.27167 27.5792 4.16498 24.9624 4.16663C22.4532 4.16777 20.0281 7.07723 18.4811 11.5781C18.3288 12.0221 18.188 12.4698 18.0586 12.9212C17.7544 12.8466 17.4488 12.7776 17.142 12.7144C12.2128 11.7023 8.24266 12.3689 6.93688 14.6364C5.6848 16.8109 6.99424 20.3652 10.1213 23.9533C10.4314 24.3084 10.7503 24.6554 11.078 24.9945C10.6917 25.3924 10.3259 25.7901 9.98497 26.1856C6.93372 29.7231 5.69916 33.2192 6.94922 35.3843C8.24024 37.6208 12.1545 38.3518 16.9188 37.4142C17.3049 37.3377 17.6889 37.2516 18.0707 37.1559C18.2106 37.6442 18.364 38.1282 18.531 38.608C20.0713 43.0185 22.4828 45.8343 24.9831 45.8334C27.5653 45.8319 30.1538 42.8066 31.7222 38.211C31.846 37.8479 31.9633 37.4707 32.0744 37.0824C32.5676 37.2051 33.0641 37.314 33.5637 37.409C38.154 38.2775 41.798 37.5945 43.0458 35.4278C44.3343 33.1897 43.0059 29.4361 39.8075 25.7825ZM8.47936 15.5246C9.28324 14.1288 12.5278 13.5842 16.7837 14.458C17.0557 14.5139 17.3323 14.5764 17.6137 14.6455C17.1981 16.4835 16.905 18.3471 16.736 20.2239C15.2004 21.3043 13.7363 22.4828 12.3529 23.7523C12.0481 23.4371 11.7515 23.1142 11.463 22.7837C8.78366 19.7094 7.7248 16.835 8.47936 15.5246ZM16.5766 27.4581C15.5129 26.6527 14.5244 25.8276 13.6272 24.9977C14.5238 24.173 15.5129 23.3507 16.5744 22.5474C16.5363 23.3657 16.5174 24.1846 16.5177 25.0041C16.5183 25.8224 16.5379 26.6404 16.5766 27.4581ZM16.5753 35.6678C14.7696 36.0693 12.9054 36.135 11.0759 35.8618C10.5744 35.8227 10.0862 35.6813 9.64149 35.4461C9.19681 35.2109 8.80507 34.887 8.49049 34.4945C7.73201 33.1806 8.72332 30.3736 11.3328 27.3482C11.6609 26.969 11.9997 26.5997 12.3493 26.2404C13.7329 27.5165 15.1994 28.6997 16.7391 29.7822C16.9104 31.683 17.207 33.5705 17.6271 35.4322C17.2785 35.5194 16.9279 35.5979 16.5753 35.6678ZM31.3693 18.9191C30.6706 18.4788 29.9632 18.0527 29.2472 17.6406C28.5426 17.2351 27.8296 16.8448 27.108 16.4697C28.3435 15.9502 29.5579 15.5066 30.7302 15.1451C31.0066 16.3915 31.2199 17.6511 31.3693 18.9191ZM20.1644 12.1566C21.4899 8.30011 23.4511 5.94721 24.9634 5.94656C26.574 5.94579 28.6666 8.48461 30.0349 12.6083C30.1238 12.8771 30.2078 13.1474 30.287 13.4193C28.4893 13.9769 26.7305 14.6528 25.0221 15.4426C23.3208 14.6435 21.5675 13.96 19.7742 13.3969C19.894 12.9804 20.0241 12.5669 20.1644 12.1566ZM19.3303 15.1229C20.5532 15.5079 21.7558 15.9543 22.9338 16.4604C21.4743 17.2136 20.0525 18.034 18.6684 18.9216C18.8356 17.5925 19.0581 16.319 19.3303 15.1229ZM18.6715 31.0826C19.3617 31.5245 20.062 31.95 20.7724 32.3591C21.497 32.7764 22.2313 33.176 22.9752 33.5582C21.7883 34.0819 20.5753 34.5442 19.3409 34.9435C19.0657 33.7308 18.8407 32.4349 18.6715 31.0826ZM30.0375 37.6358C29.4832 39.4006 28.6089 41.0484 27.4581 42.4967C27.1738 42.9116 26.8072 43.2639 26.3814 43.5315C25.9555 43.7992 25.4793 43.9767 24.9822 44.0531C23.4651 44.054 21.5287 41.7927 20.2115 38.0209C20.0564 37.575 19.9136 37.125 19.7833 36.6709C21.5852 36.0896 23.3456 35.3868 25.0525 34.5674C26.7749 35.3623 28.5478 36.0433 30.3595 36.6059C30.2605 36.9517 30.1532 37.295 30.0375 37.6358ZM30.7922 34.877C29.6063 34.5103 28.3743 34.0592 27.121 33.5322C27.8275 33.1604 28.5391 32.7677 29.2559 32.3542C29.9913 31.9295 30.7081 31.4941 31.4061 31.0482C31.267 32.3341 31.0621 33.612 30.7922 34.877ZM31.7219 24.9964C31.7235 26.2616 31.684 27.5258 31.6034 28.789C30.577 29.4836 29.4934 30.1619 28.3659 30.8128C27.2431 31.461 26.1307 32.0568 25.0394 32.5959C23.891 32.0456 22.7648 31.4525 21.6607 30.8167C20.5628 30.1848 19.4901 29.5119 18.4426 28.798C18.3469 27.5352 18.2986 26.2701 18.2979 25.0028C18.2971 23.7363 18.3445 22.4715 18.4397 21.2076C19.4659 20.5069 20.5416 19.8291 21.6538 19.187C22.7712 18.5418 23.8976 17.9486 25.0178 17.411C26.152 17.9622 27.2658 18.553 28.3591 19.1832C29.4562 19.8137 30.5319 20.4795 31.5862 21.1804C31.6767 22.4505 31.7219 23.7225 31.7219 24.9964ZM33.7151 14.3863C37.7179 13.6078 40.7359 14.1315 41.492 15.441C42.2974 16.836 41.1431 19.917 38.2549 23.1625C38.0953 23.3416 37.9296 23.5215 37.7581 23.7021C36.3507 22.4299 34.8584 21.2551 33.2915 20.1857C33.1333 18.3294 32.8511 16.4857 32.4468 14.6671C32.8778 14.561 33.3005 14.4675 33.7151 14.3863ZM33.4445 22.4795C34.5015 23.2512 35.5177 24.0771 36.489 24.9541C35.522 25.8455 34.509 26.6858 33.4542 27.4714C33.4865 26.6466 33.5024 25.8213 33.5019 24.9956C33.5015 24.1567 33.4824 23.318 33.4445 22.4795ZM41.5031 34.5394C40.7459 35.8543 37.82 36.4026 33.8943 35.6599C33.4444 35.5749 32.9828 35.4739 32.5094 35.3566C32.904 33.5146 33.1737 31.648 33.3166 29.7696C34.8809 28.6815 36.3685 27.4871 37.7689 26.1949C38.0139 26.4494 38.247 26.7028 38.4681 26.955C39.7203 28.3166 40.7112 29.8969 41.3912 31.6172C41.6086 32.0707 41.7307 32.5641 41.75 33.0667C41.7692 33.5693 41.6852 34.0705 41.5031 34.5394Z"/></svg>