<svg xmlns="http://www.w3.org/2000/svg" width="75" height="75" fill="none" viewBox="0 0 75 75"><g clip-path="url(#clip0_368_95295)"><path fill="#0C77FF" d="M74.9999 10.4286C74.9999 7.16472 74.0694 4.58179 72.235 2.75308C64.8707 -4.58379 45.5085 3.21773 28.1478 20.52C27.5169 21.1488 26.9404 21.8191 26.386 22.5061C26.204 22.4308 25.9945 22.3636 25.7537 22.3076C20.7538 21.1391 4.70685 23.8651 0.0354037 42.5281C-0.0848174 43.0065 0.107474 43.5077 0.51599 43.7836C0.714037 43.9186 0.942917 43.9849 1.17177 43.9849C1.41318 43.9849 1.6547 43.9106 1.85954 43.7618C8.20009 39.1624 13.2867 37.3125 17.7271 37.9935C17.4207 38.549 17.1096 39.0909 16.7884 39.6088C16.5011 40.0723 16.5709 40.6719 16.9566 41.0564L18.7954 42.8892L15.3533 46.3185C15.1324 46.5382 15.0088 46.8368 15.0088 47.1481C15.0088 47.4594 15.1324 47.7581 15.3533 47.9778L26.8718 59.4585C27.1007 59.6863 27.3993 59.8006 27.6992 59.8006C27.999 59.8006 28.2978 59.6863 28.5266 59.4585L31.9732 56.023L33.8172 57.861C34.0438 58.0863 34.3425 58.2031 34.6446 58.2031C34.8563 58.2031 35.0692 58.1458 35.2592 58.0291C35.7435 57.7304 36.2462 57.4403 36.7635 57.1548C37.5263 61.6172 35.6786 66.7361 31.0054 73.1365C30.7147 73.5348 30.7044 74.0725 30.979 74.4812C31.1999 74.8107 31.5673 74.9996 31.9518 74.9996C32.0457 74.9996 32.1406 74.9881 32.2344 74.9653C50.9147 70.3201 53.675 54.3293 52.5237 49.3419C52.4533 49.0376 52.3612 48.7979 52.2613 48.5854C53.006 47.9969 53.7317 47.3822 54.4097 46.7063C66.9181 34.2403 74.9999 19.9993 74.9999 10.4286ZM18.8174 35.799C14.2454 34.8354 9.2215 36.1755 3.25572 39.9738C6.18998 31.8314 11.5344 27.9849 15.7275 26.1733C18.8712 24.8161 21.7322 24.4362 23.5633 24.4362C24.0543 24.4362 24.4696 24.4636 24.7981 24.506L18.8174 35.799ZM27.6992 56.974L17.8412 47.1481L20.4551 44.5446L28.9717 53.0317L30.313 54.3682L27.6992 56.974ZM48.6716 59.2651C46.8588 63.4639 42.9976 68.814 34.8003 71.7472C38.6043 65.8065 39.9489 60.8032 38.9842 56.2439L50.3207 50.2792C50.5244 51.8196 50.3756 55.3169 48.6716 59.2651ZM40.6515 52.576C38.5906 53.5683 36.6278 54.5113 34.8265 55.5572L19.2614 40.0447C20.102 38.6054 20.8791 37.0423 21.6661 35.4276L26.4249 26.4428C27.4208 24.901 28.5243 23.4537 29.8026 22.1794C45.6847 6.34992 64.3558 -1.78571 70.5802 4.41246C71.9581 5.78578 72.6562 7.81019 72.6562 10.4286C72.6562 19.2703 64.6579 33.1829 52.7549 45.047C49.4396 48.3508 44.9718 50.4989 40.6515 52.576Z"/><path fill="#0C77FF" d="M50.068 15.0625C48.7325 16.3912 47.9966 18.1593 47.9966 20.0406C47.9966 21.9232 48.7325 23.6914 50.068 25.02C51.4447 26.3898 53.2529 27.0754 55.061 27.0754C56.8692 27.0754 58.6774 26.3898 60.0529 25.02C61.3885 23.6914 62.1232 21.9232 62.1232 20.0406C62.1232 18.1593 61.3885 16.3912 60.0529 15.0625C57.3018 12.3228 52.8214 12.3228 50.068 15.0625ZM58.4005 23.3583C56.558 25.1916 53.563 25.1916 51.7206 23.3583C50.8313 22.4725 50.3403 21.2949 50.3403 20.0406C50.3403 18.7875 50.8313 17.6099 51.7206 16.7241C52.6418 15.8074 53.8514 15.3497 55.061 15.3497C56.2707 15.3497 57.4792 15.8074 58.4005 16.7241C59.2896 17.6099 59.7794 18.7875 59.7794 20.0406C59.7794 21.2949 59.2896 22.4725 58.4005 23.3583Z"/><path fill="#0C77FF" d="M19.2946 55.2507C18.8381 54.7918 18.0965 54.7918 17.6376 55.2485L5.92461 66.9226C5.46674 67.3791 5.46452 68.1207 5.92226 68.5796C6.15112 68.8096 6.451 68.9241 6.75195 68.9241C7.05065 68.9241 7.35053 68.8096 7.5794 68.582L19.2924 56.9079C19.7501 56.4512 19.7525 55.7096 19.2946 55.2507Z"/><path fill="#0C77FF" d="M6.70859 60.9064C7.0073 60.9064 7.30707 60.7919 7.53606 60.5642L15.2493 52.8761C15.7071 52.4194 15.7082 51.6778 15.2516 51.2189C14.795 50.76 14.0534 50.7589 13.5945 51.2166L5.88113 58.9048C5.42339 59.3614 5.42222 60.103 5.8789 60.5619C6.10777 60.7919 6.40765 60.9064 6.70859 60.9064Z"/><path fill="#0C77FF" d="M21.6818 59.2779L13.9685 66.9661C13.5108 67.4226 13.5096 68.1643 13.9663 68.6232C14.1952 68.8531 14.4949 68.9676 14.796 68.9676C15.0946 68.9676 15.3945 68.8531 15.6233 68.6254L23.3367 60.9374C23.7945 60.4807 23.7957 59.7391 23.339 59.2802C22.8824 58.8213 22.1407 58.8201 21.6818 59.2779Z"/></g><defs><clipPath id="clip0_368_95295"><rect width="75" height="75" fill="#fff"/></clipPath></defs></svg>