<svg xmlns="http://www.w3.org/2000/svg" width="40" height="40" fill="none" viewBox="0 0 40 40"><path fill="#0C77FF" d="M15.9708 1.73438C16.0106 0.657701 17.4908 0.396702 17.8965 1.39482L23.3501 14.8123C23.4982 15.1768 23.8463 15.4205 24.2395 15.4351L38.713 15.9707C39.7897 16.0106 40.0507 17.4908 39.0526 17.8964L25.6351 23.35C25.2706 23.4982 25.0269 23.8463 25.0123 24.2395L24.4767 38.713C24.4368 39.7897 22.9566 40.0507 22.551 39.0526L17.0974 25.6351C16.9492 25.2706 16.6011 25.0269 16.2079 25.0123L1.7344 24.4766C0.657728 24.4368 0.396729 22.9566 1.39484 22.5509L14.8123 17.0973C15.1768 16.9492 15.4206 16.6011 15.4351 16.2079L15.9708 1.73438Z"/></svg>