<svg xmlns="http://www.w3.org/2000/svg" width="50" height="50" fill="none" viewBox="0 0 50 50"><path fill="#FF8A00" d="M30.7708 12.2292C31.2492 12.5008 31.8155 12.5722 32.3463 12.4278C32.8772 12.2833 33.3293 11.9349 33.6041 11.4583C33.8316 11.057 34.1857 10.7425 34.6112 10.5641C35.0366 10.3858 35.5092 10.3536 35.9548 10.4728C36.4005 10.592 36.794 10.8556 37.0736 11.2225C37.3532 11.5894 37.5032 12.0387 37.5 12.5C37.5 13.0525 37.2805 13.5824 36.8898 13.9731C36.4991 14.3638 35.9692 14.5833 35.4166 14.5833C34.8641 14.5833 34.3342 14.8028 33.9435 15.1935C33.5528 15.5842 33.3333 16.1141 33.3333 16.6667C33.3333 17.2192 33.5528 17.7491 33.9435 18.1398C34.3342 18.5305 34.8641 18.75 35.4166 18.75C36.5136 18.7493 37.591 18.4599 38.5407 17.9109C39.4903 17.3619 40.2788 16.5726 40.8268 15.6224C41.3748 14.6722 41.6631 13.5944 41.6626 12.4975C41.6622 11.4006 41.373 10.3231 40.8243 9.37326C40.2755 8.42347 39.4864 7.63483 38.5363 7.08659C37.5862 6.53835 36.5086 6.24982 35.4116 6.25C34.3147 6.25018 33.2371 6.53905 32.2872 7.08759C31.3373 7.63613 30.5484 8.42503 30 9.375C29.8622 9.61278 29.7729 9.87546 29.7371 10.1479C29.7013 10.4204 29.7197 10.6972 29.7914 10.9625C29.863 11.2278 29.9864 11.4763 30.1545 11.6937C30.3226 11.9111 30.5321 12.0931 30.7708 12.2292ZM39.7291 27.0833C39.1823 27.0124 38.6296 27.1611 38.1922 27.4969C37.7548 27.8328 37.4684 28.3283 37.3958 28.875C36.9586 32.4066 35.2452 35.6564 32.5784 38.0125C29.9115 40.3686 26.4752 41.6682 22.9166 41.6667H11.2708L12.625 40.3125C13.013 39.9222 13.2308 39.3941 13.2308 38.8437C13.2308 38.2934 13.013 37.7653 12.625 37.375C10.5936 35.3357 9.21118 32.7408 8.65183 29.9172C8.09247 27.0937 8.38119 24.1677 9.48163 21.508C10.5821 18.8482 12.445 16.5736 14.8358 14.9706C17.2265 13.3676 20.0382 12.508 22.9166 12.5C23.4692 12.5 23.9991 12.2805 24.3898 11.8898C24.7805 11.4991 25 10.9692 25 10.4167C25 9.86413 24.7805 9.33423 24.3898 8.94353C23.9991 8.55283 23.4692 8.33333 22.9166 8.33333C19.3942 8.34803 15.9471 9.35466 12.9704 11.2379C9.99361 13.1211 7.60753 15.8048 6.08552 18.9815C4.5635 22.1582 3.9671 25.6993 4.36464 29.1993C4.76219 32.6993 6.1376 36.0164 8.3333 38.7708L4.7708 42.2708C4.48172 42.5638 4.28589 42.9358 4.20803 43.34C4.13017 43.7441 4.17376 44.1623 4.3333 44.5417C4.48959 44.9221 4.755 45.2478 5.09609 45.4777C5.43717 45.7075 5.83866 45.8313 6.24997 45.8333H22.9166C27.4822 45.834 31.891 44.1688 35.3162 41.1501C38.7414 38.1315 40.9476 33.9669 41.5208 29.4375C41.5589 29.1651 41.5427 28.8879 41.4731 28.6218C41.4035 28.3557 41.2819 28.106 41.1154 27.8872C40.9488 27.6683 40.7406 27.4846 40.5026 27.3466C40.2647 27.2087 40.0018 27.1192 39.7291 27.0833ZM36.2083 20.9792C35.829 20.8114 35.4083 20.7606 35 20.8333L34.625 20.9583L34.25 21.1458L33.9375 21.4167C33.7501 21.6086 33.6015 21.835 33.5 22.0833C33.3768 22.3432 33.3195 22.6294 33.3333 22.9167C33.3272 23.1945 33.3768 23.4708 33.4791 23.7292C33.5869 23.9792 33.7426 24.2057 33.9375 24.3958C34.1321 24.5889 34.363 24.7417 34.6168 24.8454C34.8707 24.949 35.1425 25.0016 35.4166 25C35.9692 25 36.4991 24.7805 36.8898 24.3898C37.2805 23.9991 37.5 23.4692 37.5 22.9167C37.507 22.6434 37.4499 22.3722 37.3333 22.125C37.1094 21.6244 36.7089 21.2239 36.2083 21V20.9792Z"/></svg>