<svg width="45" height="45" viewBox="0 0 45 45" fill="none" xmlns="http://www.w3.org/2000/svg">
<path d="M12.6562 19.2656C13.9688 14.0156 17.25 11.3906 22.5 11.3906C30.375 11.3906 31.3594 17.2969 35.2969 18.2812C37.9219 18.9375 40.2188 17.9531 42.1875 15.3281C40.875 20.5781 37.5938 23.2031 32.3438 23.2031C24.4688 23.2031 23.4844 17.2969 19.5469 16.3125C16.9219 15.6562 14.625 16.6406 12.6562 19.2656ZM2.8125 31.0781C4.125 25.8281 7.40625 23.2031 12.6562 23.2031C20.5312 23.2031 21.5156 29.1094 25.4531 30.0937C28.0781 30.75 30.375 29.7656 32.3438 27.1406C31.0312 32.3906 27.75 35.0156 22.5 35.0156C14.625 35.0156 13.6406 29.1094 9.70312 28.125C7.07812 27.4687 4.78125 28.4531 2.8125 31.0781Z" fill="#0C77FF"/>
</svg>
