<svg xmlns="http://www.w3.org/2000/svg" width="50" height="50" fill="none" viewBox="0 0 50 50"><path fill="#FF8A00" d="M40.625 7.8125H9.375C8.34905 7.8125 7.33314 8.01458 6.38529 8.40719C5.43743 8.79981 4.57619 9.37527 3.85073 10.1007C2.3856 11.5659 1.5625 13.553 1.5625 15.625V34.375C1.5625 36.447 2.3856 38.4341 3.85073 39.8993C4.57619 40.6247 5.43743 41.2002 6.38529 41.5928C7.33314 41.9854 8.34905 42.1875 9.375 42.1875H18.375C19.2476 42.1892 20.1033 41.9473 20.8459 41.4891C21.5885 41.0309 22.1884 40.3744 22.5781 39.5938L23.6094 37.5C23.7405 37.2441 23.9397 37.0293 24.1851 36.8793C24.4304 36.7293 24.7124 36.6499 25 36.6499C25.2876 36.6499 25.5696 36.7293 25.8149 36.8793C26.0603 37.0293 26.2595 37.2441 26.3906 37.5L27.4219 39.5469C27.8051 40.3363 28.4022 41.0024 29.1452 41.4692C29.8883 41.936 30.7475 42.1849 31.625 42.1875H40.625C42.697 42.1875 44.6841 41.3644 46.1493 39.8993C47.6144 38.4341 48.4375 36.447 48.4375 34.375V15.625C48.4375 13.553 47.6144 11.5659 46.1493 10.1007C44.6841 8.6356 42.697 7.8125 40.625 7.8125ZM9.375 10.9375H40.625C41.5921 10.9402 42.5347 11.242 43.3235 11.8015C44.1124 12.3609 44.7089 13.1507 45.0312 14.0625H4.96875C5.29111 13.1507 5.88761 12.3609 6.67646 11.8015C7.46531 11.242 8.4079 10.9402 9.375 10.9375ZM40.625 39.0625H31.625C31.3338 39.0645 31.0478 38.9851 30.7994 38.8333C30.5509 38.6814 30.3498 38.4632 30.2188 38.2031L29.1875 36.1406C28.7972 35.3647 28.1989 34.7125 27.4595 34.2567C26.7201 33.801 25.8686 33.5597 25 33.5597C24.1314 33.5597 23.2799 33.801 22.5405 34.2567C21.8011 34.7125 21.2028 35.3647 20.8125 36.1406L19.7812 38.2031C19.6502 38.4632 19.4491 38.6814 19.2006 38.8333C18.9522 38.9851 18.6662 39.0645 18.375 39.0625H9.375C8.1318 39.0625 6.93951 38.5686 6.06044 37.6896C5.18136 36.8105 4.6875 35.6182 4.6875 34.375V17.1875H45.3125V34.375C45.3125 35.6182 44.8186 36.8105 43.9396 37.6896C43.0605 38.5686 41.8682 39.0625 40.625 39.0625Z"/></svg>