<svg width="85" height="75" viewBox="0 0 85 75" fill="none" xmlns="http://www.w3.org/2000/svg">
<path d="M76.705 30.1623C74.7349 30.1882 72.8332 29.5292 71.415 28.3293C69.0658 26.5231 66.0484 25.5274 62.9246 25.5274C59.8007 25.5274 56.7833 26.5231 54.4341 28.3293C53.0079 29.5209 51.1137 30.1855 49.1441 30.1855C47.1745 30.1855 45.2804 29.5209 43.8541 28.3293C41.5049 26.5231 38.4875 25.5274 35.3637 25.5274C32.2398 25.5274 29.2224 26.5231 26.8732 28.3293C25.4501 29.5262 23.5548 30.1944 21.5832 30.1944C19.6117 30.1944 17.7164 29.5262 16.2932 28.3293C13.9945 26.5253 11.0195 25.526 7.93504 25.5219C7.23354 25.5219 6.56078 25.7664 6.06474 26.2015C5.56871 26.6366 5.29004 27.2267 5.29004 27.8421C5.29004 28.4574 5.56871 29.0476 6.06474 29.4827C6.56078 29.9178 7.23354 30.1623 7.93504 30.1623C9.90515 30.1364 11.8069 30.7953 13.225 31.9952C15.5509 33.8207 18.5681 34.8215 21.689 34.8026C24.8191 34.8273 27.8468 33.8261 30.1795 31.9952C31.6027 30.7984 33.4979 30.1302 35.4695 30.1302C37.441 30.1302 39.3363 30.7984 40.7595 31.9952C43.1087 33.8014 46.1261 34.7972 49.2499 34.7972C52.3738 34.7972 55.3912 33.8014 57.7404 31.9952C59.1666 30.8037 61.0608 30.1391 63.0304 30.1391C65 30.1391 66.8941 30.8037 68.3204 31.9952C70.6272 33.8027 73.6119 34.8021 76.705 34.8026C77.4065 34.8026 78.0793 34.5582 78.5753 34.1231C79.0714 33.688 79.35 33.0978 79.35 32.4825C79.35 31.8671 79.0714 31.277 78.5753 30.8418C78.0793 30.4067 77.4065 30.1623 76.705 30.1623ZM76.705 16.2412C74.7349 16.2671 72.8332 15.6081 71.415 14.4082C69.0658 12.6021 66.0484 11.6063 62.9246 11.6063C59.8007 11.6063 56.7833 12.6021 54.4341 14.4082C53.0079 15.5998 51.1137 16.2644 49.1441 16.2644C47.1745 16.2644 45.2804 15.5998 43.8541 14.4082C41.5049 12.6021 38.4875 11.6063 35.3637 11.6063C32.2398 11.6063 29.2224 12.6021 26.8732 14.4082C25.4501 15.6051 23.5548 16.2733 21.5832 16.2733C19.6117 16.2733 17.7164 15.6051 16.2932 14.4082C13.9945 12.6042 11.0195 11.6049 7.93504 11.6008C7.23354 11.6008 6.56078 11.8453 6.06474 12.2804C5.56871 12.7155 5.29004 13.3057 5.29004 13.921C5.29004 14.5364 5.56871 15.1265 6.06474 15.5616C6.56078 15.9967 7.23354 16.2412 7.93504 16.2412C9.90515 16.2153 11.8069 16.8742 13.225 18.0741C15.5509 19.8996 18.5681 20.9004 21.689 20.8816C24.8191 20.9062 27.8468 19.905 30.1795 18.0741C31.6027 16.8773 33.4979 16.2091 35.4695 16.2091C37.441 16.2091 39.3363 16.8773 40.7595 18.0741C43.1087 19.8803 46.1261 20.8761 49.2499 20.8761C52.3738 20.8761 55.3912 19.8803 57.7404 18.0741C59.1666 16.8826 61.0608 16.218 63.0304 16.218C65 16.218 66.8941 16.8826 68.3204 18.0741C70.6272 19.8816 73.6119 20.881 76.705 20.8816C77.4065 20.8816 78.0793 20.6371 78.5753 20.202C79.0714 19.7669 79.35 19.1767 79.35 18.5614C79.35 17.946 79.0714 17.3559 78.5753 16.9208C78.0793 16.4856 77.4065 16.2412 76.705 16.2412ZM76.705 44.0834C74.7349 44.1093 72.8332 43.4503 71.415 42.2504C69.0658 40.4442 66.0484 39.4484 62.9246 39.4484C59.8007 39.4484 56.7833 40.4442 54.4341 42.2504C53.0079 43.4419 51.1137 44.1066 49.1441 44.1066C47.1745 44.1066 45.2804 43.4419 43.8541 42.2504C41.5049 40.4442 38.4875 39.4484 35.3637 39.4484C32.2398 39.4484 29.2224 40.4442 26.8732 42.2504C25.4501 43.4472 23.5548 44.1154 21.5832 44.1154C19.6117 44.1154 17.7164 43.4472 16.2932 42.2504C13.9945 40.4463 11.0195 39.4471 7.93504 39.443C7.23354 39.443 6.56078 39.6874 6.06474 40.1226C5.56871 40.5577 5.29004 41.1478 5.29004 41.7632C5.29004 42.3785 5.56871 42.9687 6.06474 43.4038C6.56078 43.8389 7.23354 44.0834 7.93504 44.0834C9.90515 44.0575 11.8069 44.7164 13.225 45.9163C15.5509 47.7418 18.5681 48.7426 21.689 48.7237C24.8191 48.7484 27.8468 47.7472 30.1795 45.9163C31.6027 44.7195 33.4979 44.0513 35.4695 44.0513C37.441 44.0513 39.3363 44.7195 40.7595 45.9163C43.1087 47.7225 46.1261 48.7183 49.2499 48.7183C52.3738 48.7183 55.3912 47.7225 57.7404 45.9163C59.1666 44.7248 61.0608 44.0602 63.0304 44.0602C65 44.0602 66.8941 44.7248 68.3204 45.9163C70.6272 47.7238 73.6119 48.7232 76.705 48.7237C77.4065 48.7237 78.0793 48.4793 78.5753 48.0442C79.0714 47.609 79.35 47.0189 79.35 46.4035C79.35 45.7882 79.0714 45.198 78.5753 44.7629C78.0793 44.3278 77.4065 44.0834 76.705 44.0834ZM76.705 58.0044C74.7349 58.0303 72.8332 57.3714 71.415 56.1715C69.0658 54.3653 66.0484 53.3695 62.9246 53.3695C59.8007 53.3695 56.7833 54.3653 54.4341 56.1715C53.0079 57.363 51.1137 58.0276 49.1441 58.0276C47.1745 58.0276 45.2804 57.363 43.8541 56.1715C41.5049 54.3653 38.4875 53.3695 35.3637 53.3695C32.2398 53.3695 29.2224 54.3653 26.8732 56.1715C25.4501 57.3683 23.5548 58.0365 21.5832 58.0365C19.6117 58.0365 17.7164 57.3683 16.2932 56.1715C13.9945 54.3674 11.0195 53.3682 7.93504 53.3641C7.23354 53.3641 6.56078 53.6085 6.06474 54.0436C5.56871 54.4788 5.29004 55.0689 5.29004 55.6843C5.29004 56.2996 5.56871 56.8898 6.06474 57.3249C6.56078 57.76 7.23354 58.0044 7.93504 58.0044C9.90515 57.9785 11.8069 58.6375 13.225 59.8374C15.5509 61.6629 18.5681 62.6637 21.689 62.6448C24.8191 62.6694 27.8468 61.6683 30.1795 59.8374C31.6027 58.6406 33.4979 57.9723 35.4695 57.9723C37.441 57.9723 39.3363 58.6406 40.7595 59.8374C43.1087 61.6436 46.1261 62.6393 49.2499 62.6393C52.3738 62.6393 55.3912 61.6436 57.7404 59.8374C59.1666 58.6458 61.0608 57.9812 63.0304 57.9812C65 57.9812 66.8941 58.6458 68.3204 59.8374C70.6272 61.6449 73.6119 62.6442 76.705 62.6448C77.4065 62.6448 78.0793 62.4004 78.5753 61.9652C79.0714 61.5301 79.35 60.94 79.35 60.3246C79.35 59.7093 79.0714 59.1191 78.5753 58.684C78.0793 58.2489 77.4065 58.0044 76.705 58.0044Z" fill="#FFE8CD"/>
</svg>
