<svg width="20" height="20" viewBox="0 0 20 20" fill="none" xmlns="http://www.w3.org/2000/svg">
<path d="M8.33317 12.4998L12.6582 9.99984L8.33317 7.49984V12.4998ZM17.9665 5.97484C18.0748 6.3665 18.1498 6.8915 18.1998 7.55817C18.2582 8.22484 18.2832 8.79984 18.2832 9.29984L18.3332 9.99984C18.3332 11.8248 18.1998 13.1665 17.9665 14.0248C17.7582 14.7748 17.2748 15.2582 16.5248 15.4665C16.1332 15.5748 15.4165 15.6498 14.3165 15.6998C13.2332 15.7582 12.2415 15.7832 11.3248 15.7832L9.99984 15.8332C6.50817 15.8332 4.33317 15.6998 3.47484 15.4665C2.72484 15.2582 2.2415 14.7748 2.03317 14.0248C1.92484 13.6332 1.84984 13.1082 1.79984 12.4415C1.7415 11.7748 1.7165 11.1998 1.7165 10.6998L1.6665 9.99984C1.6665 8.17484 1.79984 6.83317 2.03317 5.97484C2.2415 5.22484 2.72484 4.7415 3.47484 4.53317C3.8665 4.42484 4.58317 4.34984 5.68317 4.29984C6.7665 4.2415 7.75817 4.2165 8.67484 4.2165L9.99984 4.1665C13.4915 4.1665 15.6665 4.29984 16.5248 4.53317C17.2748 4.7415 17.7582 5.22484 17.9665 5.97484Z" fill="white"/>
</svg>
