<svg width="180" height="49" viewBox="0 0 180 49" fill="none" xmlns="http://www.w3.org/2000/svg">
<rect x="1.5" y="8.5" width="32" height="32" rx="3.5" stroke="#1363DF" stroke-width="3"/>
<rect width="28.2942" height="30.0993" transform="translate(13 19.043)" fill="white"/>
<g filter="url(#filter0_i_2592_6686)">
<path d="M21.5935 38.6937C21.2582 39.1326 20.6465 39.1968 20.2273 38.8372L15.8317 35.0671C15.4125 34.7075 15.3445 34.0603 15.6798 33.6215L15.862 33.3831C16.1974 32.9443 16.809 32.8801 17.2283 33.2396L21.6239 37.0098C22.0431 37.3693 22.111 38.0166 21.7757 38.4554L21.5935 38.6937Z" fill="#1363DF"/>
</g>
<rect width="7.95074" height="2.3" rx="1" transform="matrix(0.707107 -0.707107 0.666137 0.745829 15 34.1211)" fill="#1363DF"/>
<rect x="28.1748" y="22.043" width="3" height="24" rx="1" transform="rotate(12 28.1748 22.043)" fill="#1363DF"/>
<g filter="url(#filter1_i_2592_6686)">
<rect width="8.58344" height="2.3" rx="1" transform="matrix(0.726768 -0.686882 0.726768 0.686882 32.8311 37.9062)" fill="#1363DF"/>
</g>
<rect width="7.39724" height="2.3" rx="1" transform="matrix(0.738615 0.674127 -0.714677 0.699454 35.333 28.5469)" fill="#1363DF"/>
<path d="M58.196 32.764C57.008 32.764 55.9007 32.5733 54.874 32.192C53.862 31.796 52.982 31.2387 52.234 30.52C51.486 29.8013 50.8993 28.958 50.474 27.99C50.0633 27.022 49.858 25.9587 49.858 24.8C49.858 23.6413 50.0633 22.578 50.474 21.61C50.8993 20.642 51.486 19.7987 52.234 19.08C52.9967 18.3613 53.884 17.8113 54.896 17.43C55.908 17.034 57.0153 16.836 58.218 16.836C59.5527 16.836 60.7553 17.0707 61.826 17.54C62.9113 17.9947 63.8207 18.6693 64.554 19.564L62.266 21.676C61.738 21.0747 61.1513 20.6273 60.506 20.334C59.8607 20.026 59.1567 19.872 58.394 19.872C57.6753 19.872 57.0153 19.9893 56.414 20.224C55.8127 20.4587 55.292 20.796 54.852 21.236C54.412 21.676 54.0673 22.1967 53.818 22.798C53.5833 23.3993 53.466 24.0667 53.466 24.8C53.466 25.5333 53.5833 26.2007 53.818 26.802C54.0673 27.4033 54.412 27.924 54.852 28.364C55.292 28.804 55.8127 29.1413 56.414 29.376C57.0153 29.6107 57.6753 29.728 58.394 29.728C59.1567 29.728 59.8607 29.5813 60.506 29.288C61.1513 28.98 61.738 28.518 62.266 27.902L64.554 30.014C63.8207 30.9087 62.9113 31.5907 61.826 32.06C60.7553 32.5293 59.5453 32.764 58.196 32.764ZM72.0926 32.676C70.8312 32.676 69.7092 32.412 68.7266 31.884C67.7586 31.356 66.9886 30.6373 66.4166 29.728C65.8592 28.804 65.5806 27.7553 65.5806 26.582C65.5806 25.394 65.8592 24.3453 66.4166 23.436C66.9886 22.512 67.7586 21.7933 68.7266 21.28C69.7092 20.752 70.8312 20.488 72.0926 20.488C73.3392 20.488 74.4539 20.752 75.4366 21.28C76.4192 21.7933 77.1892 22.5047 77.7466 23.414C78.3039 24.3233 78.5826 25.3793 78.5826 26.582C78.5826 27.7553 78.3039 28.804 77.7466 29.728C77.1892 30.6373 76.4192 31.356 75.4366 31.884C74.4539 32.412 73.3392 32.676 72.0926 32.676ZM72.0926 29.86C72.6646 29.86 73.1779 29.728 73.6326 29.464C74.0872 29.2 74.4466 28.826 74.7106 28.342C74.9746 27.8433 75.1066 27.2567 75.1066 26.582C75.1066 25.8927 74.9746 25.306 74.7106 24.822C74.4466 24.338 74.0872 23.964 73.6326 23.7C73.1779 23.436 72.6646 23.304 72.0926 23.304C71.5206 23.304 71.0072 23.436 70.5526 23.7C70.0979 23.964 69.7312 24.338 69.4526 24.822C69.1886 25.306 69.0566 25.8927 69.0566 26.582C69.0566 27.2567 69.1886 27.8433 69.4526 28.342C69.7312 28.826 70.0979 29.2 70.5526 29.464C71.0072 29.728 71.5206 29.86 72.0926 29.86ZM86.1086 32.676C84.9939 32.676 83.9892 32.4267 83.0946 31.928C82.1999 31.4147 81.4886 30.7033 80.9606 29.794C80.4472 28.8847 80.1906 27.814 80.1906 26.582C80.1906 25.3353 80.4472 24.2573 80.9606 23.348C81.4886 22.4387 82.1999 21.7347 83.0946 21.236C83.9892 20.7373 84.9939 20.488 86.1086 20.488C87.1059 20.488 87.9786 20.708 88.7266 21.148C89.4746 21.588 90.0539 22.2553 90.4646 23.15C90.8752 24.0447 91.0806 25.1887 91.0806 26.582C91.0806 27.9607 90.8826 29.1047 90.4866 30.014C90.0906 30.9087 89.5186 31.576 88.7706 32.016C88.0372 32.456 87.1499 32.676 86.1086 32.676ZM86.7026 29.86C87.2599 29.86 87.7659 29.728 88.2206 29.464C88.6752 29.2 89.0346 28.826 89.2986 28.342C89.5772 27.8433 89.7166 27.2567 89.7166 26.582C89.7166 25.8927 89.5772 25.306 89.2986 24.822C89.0346 24.338 88.6752 23.964 88.2206 23.7C87.7659 23.436 87.2599 23.304 86.7026 23.304C86.1306 23.304 85.6172 23.436 85.1626 23.7C84.7079 23.964 84.3412 24.338 84.0626 24.822C83.7986 25.306 83.6666 25.8927 83.6666 26.582C83.6666 27.2567 83.7986 27.8433 84.0626 28.342C84.3412 28.826 84.7079 29.2 85.1626 29.464C85.6172 29.728 86.1306 29.86 86.7026 29.86ZM89.8046 32.5V30.08L89.8706 26.56L89.6506 23.062V16.176H93.0826V32.5H89.8046ZM102.283 32.676C100.934 32.676 99.7457 32.412 98.719 31.884C97.707 31.356 96.9223 30.6373 96.365 29.728C95.8077 28.804 95.529 27.7553 95.529 26.582C95.529 25.394 95.8003 24.3453 96.343 23.436C96.9003 22.512 97.6557 21.7933 98.609 21.28C99.5623 20.752 100.64 20.488 101.843 20.488C103.002 20.488 104.043 20.7373 104.967 21.236C105.906 21.72 106.646 22.424 107.189 23.348C107.732 24.2573 108.003 25.35 108.003 26.626C108.003 26.758 107.996 26.912 107.981 27.088C107.966 27.2493 107.952 27.4033 107.937 27.55H98.323V25.548H106.133L104.813 26.142C104.813 25.526 104.688 24.9907 104.439 24.536C104.19 24.0813 103.845 23.7293 103.405 23.48C102.965 23.216 102.452 23.084 101.865 23.084C101.278 23.084 100.758 23.216 100.303 23.48C99.863 23.7293 99.5183 24.0887 99.269 24.558C99.0197 25.0127 98.895 25.5553 98.895 26.186V26.714C98.895 27.3593 99.0343 27.9313 99.313 28.43C99.6063 28.914 100.01 29.288 100.523 29.552C101.051 29.8013 101.667 29.926 102.371 29.926C103.002 29.926 103.552 29.8307 104.021 29.64C104.505 29.4493 104.945 29.1633 105.341 28.782L107.167 30.762C106.624 31.378 105.942 31.8547 105.121 32.192C104.3 32.5147 103.354 32.676 102.283 32.676ZM110.68 32.5V17.1H117.676C119.348 17.1 120.822 17.4227 122.098 18.068C123.374 18.6987 124.371 19.586 125.09 20.73C125.809 21.874 126.168 23.2307 126.168 24.8C126.168 26.3547 125.809 27.7113 125.09 28.87C124.371 30.014 123.374 30.9087 122.098 31.554C120.822 32.1847 119.348 32.5 117.676 32.5H110.68ZM114.244 29.574H117.5C118.527 29.574 119.414 29.3833 120.162 29.002C120.925 28.606 121.511 28.0487 121.922 27.33C122.347 26.6113 122.56 25.768 122.56 24.8C122.56 23.8173 122.347 22.974 121.922 22.27C121.511 21.5513 120.925 21.0013 120.162 20.62C119.414 20.224 118.527 20.026 117.5 20.026H114.244V29.574ZM128.764 32.5V20.664H132.042V24.008L131.58 23.04C131.932 22.204 132.496 21.5733 133.274 21.148C134.051 20.708 134.997 20.488 136.112 20.488V23.656C135.965 23.6413 135.833 23.634 135.716 23.634C135.598 23.6193 135.474 23.612 135.342 23.612C134.403 23.612 133.64 23.8833 133.054 24.426C132.482 24.954 132.196 25.7827 132.196 26.912V32.5H128.764ZM144.789 32.5V30.19L144.569 29.684V25.548C144.569 24.8147 144.342 24.2427 143.887 23.832C143.447 23.4213 142.765 23.216 141.841 23.216C141.21 23.216 140.587 23.3187 139.971 23.524C139.37 23.7147 138.856 23.9787 138.431 24.316L137.199 21.918C137.844 21.4633 138.622 21.1113 139.531 20.862C140.44 20.6127 141.364 20.488 142.303 20.488C144.107 20.488 145.508 20.9133 146.505 21.764C147.502 22.6147 148.001 23.942 148.001 25.746V32.5H144.789ZM141.181 32.676C140.257 32.676 139.465 32.522 138.805 32.214C138.145 31.8913 137.639 31.4587 137.287 30.916C136.935 30.3733 136.759 29.7647 136.759 29.09C136.759 28.386 136.928 27.77 137.265 27.242C137.617 26.714 138.167 26.3033 138.915 26.01C139.663 25.702 140.638 25.548 141.841 25.548H144.987V27.55H142.215C141.408 27.55 140.851 27.682 140.543 27.946C140.25 28.21 140.103 28.54 140.103 28.936C140.103 29.376 140.272 29.728 140.609 29.992C140.961 30.2413 141.438 30.366 142.039 30.366C142.611 30.366 143.124 30.234 143.579 29.97C144.034 29.6913 144.364 29.288 144.569 28.76L145.097 30.344C144.848 31.1067 144.393 31.686 143.733 32.082C143.073 32.478 142.222 32.676 141.181 32.676ZM151.675 32.5V20.4C151.675 19.0653 152.071 18.002 152.863 17.21C153.655 16.4033 154.784 16 156.251 16C156.75 16 157.226 16.0513 157.681 16.154C158.15 16.2567 158.546 16.418 158.869 16.638L157.967 19.124C157.776 18.992 157.564 18.8893 157.329 18.816C157.094 18.7427 156.845 18.706 156.581 18.706C156.082 18.706 155.694 18.8527 155.415 19.146C155.151 19.4247 155.019 19.85 155.019 20.422V21.522L155.107 22.996V32.5H151.675ZM149.849 23.568V20.928H158.055V23.568H149.849ZM164.755 32.676C163.362 32.676 162.276 32.324 161.499 31.62C160.722 30.9013 160.333 29.838 160.333 28.43V18.046H163.765V28.386C163.765 28.8847 163.897 29.2733 164.161 29.552C164.425 29.816 164.784 29.948 165.239 29.948C165.782 29.948 166.244 29.8013 166.625 29.508L167.549 31.928C167.197 32.1773 166.772 32.368 166.273 32.5C165.789 32.6173 165.283 32.676 164.755 32.676ZM158.507 23.568V20.928H166.713V23.568H158.507ZM173.607 32.676C172.595 32.676 171.62 32.5587 170.681 32.324C169.757 32.0747 169.024 31.7667 168.481 31.4L169.625 28.936C170.168 29.2733 170.806 29.552 171.539 29.772C172.287 29.9773 173.021 30.08 173.739 30.08C174.531 30.08 175.089 29.9847 175.411 29.794C175.749 29.6033 175.917 29.3393 175.917 29.002C175.917 28.7233 175.785 28.518 175.521 28.386C175.272 28.2393 174.935 28.1293 174.509 28.056C174.084 27.9827 173.615 27.9093 173.101 27.836C172.603 27.7627 172.097 27.6673 171.583 27.55C171.07 27.418 170.601 27.2273 170.175 26.978C169.75 26.7287 169.405 26.3913 169.141 25.966C168.892 25.5407 168.767 24.9907 168.767 24.316C168.767 23.568 168.98 22.908 169.405 22.336C169.845 21.764 170.476 21.3167 171.297 20.994C172.119 20.6567 173.101 20.488 174.245 20.488C175.052 20.488 175.873 20.576 176.709 20.752C177.545 20.928 178.242 21.1847 178.799 21.522L177.655 23.964C177.083 23.6267 176.504 23.3993 175.917 23.282C175.345 23.15 174.788 23.084 174.245 23.084C173.483 23.084 172.925 23.1867 172.573 23.392C172.221 23.5973 172.045 23.8613 172.045 24.184C172.045 24.4773 172.17 24.6973 172.419 24.844C172.683 24.9907 173.028 25.108 173.453 25.196C173.879 25.284 174.341 25.3647 174.839 25.438C175.353 25.4967 175.866 25.592 176.379 25.724C176.893 25.856 177.355 26.0467 177.765 26.296C178.191 26.5307 178.535 26.8607 178.799 27.286C179.063 27.6967 179.195 28.2393 179.195 28.914C179.195 29.6473 178.975 30.3 178.535 30.872C178.095 31.4293 177.457 31.8693 176.621 32.192C175.8 32.5147 174.795 32.676 173.607 32.676Z" fill="#1363DF"/>
<defs>
<filter id="filter0_i_2592_6686" x="15.4668" y="33.0078" width="6.52148" height="10.0625" filterUnits="userSpaceOnUse" color-interpolation-filters="sRGB">
<feFlood flood-opacity="0" result="BackgroundImageFix"/>
<feBlend mode="normal" in="SourceGraphic" in2="BackgroundImageFix" result="shape"/>
<feColorMatrix in="SourceAlpha" type="matrix" values="0 0 0 0 0 0 0 0 0 0 0 0 0 0 0 0 0 0 127 0" result="hardAlpha"/>
<feOffset dy="4"/>
<feGaussianBlur stdDeviation="2"/>
<feComposite in2="hardAlpha" operator="arithmetic" k2="-1" k3="1"/>
<feColorMatrix type="matrix" values="0 0 0 0 0 0 0 0 0 0 0 0 0 0 0 0 0 0 0.25 0"/>
<feBlend mode="normal" in2="shape" result="effect1_innerShadow_2592_6686"/>
</filter>
<filter id="filter1_i_2592_6686" x="33.2568" y="32.4141" width="7.05859" height="10.668" filterUnits="userSpaceOnUse" color-interpolation-filters="sRGB">
<feFlood flood-opacity="0" result="BackgroundImageFix"/>
<feBlend mode="normal" in="SourceGraphic" in2="BackgroundImageFix" result="shape"/>
<feColorMatrix in="SourceAlpha" type="matrix" values="0 0 0 0 0 0 0 0 0 0 0 0 0 0 0 0 0 0 127 0" result="hardAlpha"/>
<feOffset dy="4"/>
<feGaussianBlur stdDeviation="2"/>
<feComposite in2="hardAlpha" operator="arithmetic" k2="-1" k3="1"/>
<feColorMatrix type="matrix" values="0 0 0 0 0 0 0 0 0 0 0 0 0 0 0 0 0 0 0.25 0"/>
<feBlend mode="normal" in2="shape" result="effect1_innerShadow_2592_6686"/>
</filter>
</defs>
</svg>
