<svg width="110" height="110" viewBox="0 0 110 110" fill="none" xmlns="http://www.w3.org/2000/svg">
<g id="balloon-svgrepo-com 1" clip-path="url(#clip0_2149_8531)">
<g id="Group">
<g id="Group_2">
<path id="Vector" d="M80.025 64.3745C96.184 62.6227 108.804 48.8997 108.804 32.2826C108.804 14.482 94.3224 0 76.5217 0C63.9748 0 53.0775 7.19512 47.7376 17.6758C43.3221 15.4924 38.4656 14.3479 33.4782 14.3479C15.6775 14.3479 1.19556 28.8299 1.19556 46.6305C1.19556 62.6113 12.8682 75.9144 28.1348 78.4685C26.4116 82.4093 27.1573 87.1789 30.3776 90.3992L34.5799 94.6017C35.9785 96.0004 35.9785 98.276 34.5799 99.6744L30.3774 103.877C28.9766 105.278 28.9766 107.549 30.3774 108.95C31.7779 110.35 34.0492 110.351 35.45 108.95L39.6526 104.747C43.8478 100.552 43.8478 93.7245 39.6526 89.529L35.45 85.3265C34.0516 83.9279 34.0516 81.6522 35.45 80.2538L36.9866 78.7172C47.8091 77.5317 57.334 70.9238 62.2593 61.2382C65.0321 62.6096 68.0285 63.5935 71.1781 64.1208C69.4549 68.0616 70.2006 72.8312 73.4209 76.0515L77.6232 80.254C79.0218 81.6527 79.0218 83.9283 77.6232 85.3267L73.4207 89.5293C69.2252 93.7247 69.2252 100.552 73.4207 104.747L77.6232 108.95C79.0238 110.351 81.2951 110.351 82.6959 108.95C84.0967 107.549 84.0967 105.278 82.6959 103.877L78.4933 99.6746C77.0949 98.276 77.0949 96.0004 78.4933 94.6019L82.6959 90.3994C86.8911 86.2039 86.8911 79.3768 82.6959 75.1813L78.4933 70.9788C77.0949 69.5802 77.0949 67.3045 78.4933 65.9061L80.025 64.3745ZM33.4782 71.7391C19.6332 71.7391 8.3694 60.4753 8.3694 46.6303C8.3694 32.7854 19.6332 21.5215 33.4782 21.5215C37.5991 21.5215 41.6051 22.5244 45.2054 24.4359C44.5755 26.9489 44.2391 29.5769 44.2391 32.2824C44.2391 42.3814 48.9014 51.4104 56.1855 57.3345C52.0699 66.0449 43.2471 71.7391 33.4782 71.7391ZM76.5217 57.3912C62.6767 57.3912 51.4129 46.1274 51.4129 32.2824C51.4129 18.4375 62.6767 7.17363 76.5217 7.17363C90.3667 7.17363 101.63 18.4375 101.63 32.2824C101.63 46.1274 90.3667 57.3912 76.5217 57.3912Z" fill="#1363DF"/>
</g>
</g>
<g id="Group_3">
<g id="Group_4">
<path id="Vector_2" d="M76.5218 14.3479C66.6325 14.3479 58.587 22.3934 58.587 32.2826C58.587 34.2635 60.193 35.8697 62.1741 35.8697C64.1551 35.8697 65.7611 34.2637 65.7611 32.2826C65.7611 26.3491 70.5884 21.5218 76.522 21.5218C78.5028 21.5218 80.109 19.9158 80.109 17.9347C80.109 15.9537 78.5026 14.3479 76.5218 14.3479Z" fill="#1363DF"/>
</g>
</g>
<g id="Group_5">
<g id="Group_6">
<path id="Vector_3" d="M33.4782 28.6956C23.5889 28.6956 15.5435 36.7411 15.5435 46.6303C15.5435 48.6112 17.1494 50.2174 19.1305 50.2174C21.1113 50.2174 22.7175 48.6114 22.7175 46.6303C22.7175 40.6968 27.5448 35.8694 33.4784 35.8694C35.4593 35.8694 37.0654 34.2635 37.0654 32.2824C37.0654 30.3013 35.4593 28.6956 33.4782 28.6956Z" fill="#1363DF"/>
</g>
</g>
</g>
<defs>
<clipPath id="clip0_2149_8531">
<rect width="110" height="110" fill="white"/>
</clipPath>
</defs>
</svg>
