<svg width="40" height="40" viewBox="0 0 40 40" fill="none" xmlns="http://www.w3.org/2000/svg">
<rect width="40" height="40" rx="5" fill="#EFF2FB"/>
<path d="M26.3996 11.6016H13.5996C12.4968 11.6016 11.5996 12.4988 11.5996 13.6016V26.4016C11.5996 27.5044 12.4968 28.4016 13.5996 28.4016H26.3996C27.5024 28.4016 28.3996 27.5044 28.3996 26.4016V13.6016C28.3996 12.4988 27.5024 11.6016 26.3996 11.6016ZM24.802 18.9308C24.7112 18.9392 24.6192 18.9448 24.526 18.9448C23.4768 18.9448 22.5548 18.4052 22.0184 17.5896C22.0184 19.7292 22.0184 22.1636 22.0184 22.2044C22.0184 24.088 20.4912 25.6152 18.6076 25.6152C16.724 25.6152 15.1968 24.088 15.1968 22.2044C15.1968 20.3208 16.724 18.7936 18.6076 18.7936C18.6788 18.7936 18.7484 18.8 18.8184 18.8044V20.4852C18.7484 20.4768 18.6796 20.464 18.6076 20.464C17.646 20.464 16.8668 21.2432 16.8668 22.2048C16.8668 23.1664 17.646 23.9456 18.6076 23.9456C19.5692 23.9456 20.4184 23.188 20.4184 22.2264C20.4184 22.1884 20.4352 14.3888 20.4352 14.3888H22.0416C22.1928 15.8252 23.3524 16.9588 24.802 17.0628V18.9308Z" fill="#082A5E"/>
</svg>
