<svg width="40" height="40" viewBox="0 0 40 40" fill="none" xmlns="http://www.w3.org/2000/svg">
<rect width="40" height="40" rx="5" fill="#EFF2FB"/>
<path d="M22.5866 14.8261H24.4344C24.6384 14.8261 24.804 14.6605 24.804 14.4565V11.9668C24.804 11.7731 24.6551 11.612 24.4622 11.5983C23.8742 11.5565 22.7256 11.5 21.8996 11.5C19.6301 11.5 18.1518 12.86 18.1518 15.3317V17.7826H15.5649C15.3609 17.7826 15.1953 17.9482 15.1953 18.1522V20.7391C15.1953 20.9431 15.3609 21.1087 15.5649 21.1087H18.1518V28.1304C18.1518 28.3344 18.3174 28.5 18.5214 28.5H21.1084C21.3124 28.5 21.4779 28.3344 21.4779 28.1304V21.1087H24.1469C24.3354 21.1087 24.4936 20.9672 24.5143 20.7798L24.8018 18.1928C24.8262 17.974 24.6547 17.7826 24.4344 17.7826H21.4779V15.9348C21.4779 15.3224 21.9742 14.8261 22.5866 14.8261Z" fill="#082A5E"/>
</svg>
