<svg width="40" height="40" viewBox="0 0 40 40" fill="none" xmlns="http://www.w3.org/2000/svg">
<rect width="40" height="40" rx="5" fill="#EFF2FB"/>
<path d="M28.7165 14.5846C28.0749 14.8763 27.3832 15.068 26.6665 15.1596C27.3999 14.718 27.9665 14.018 28.2332 13.1763C27.5415 13.593 26.7749 13.8846 25.9665 14.0513C25.3082 13.3346 24.3832 12.918 23.3332 12.918C21.3749 12.918 19.7749 14.518 19.7749 16.493C19.7749 16.7763 19.8082 17.0513 19.8665 17.3096C16.8999 17.1596 14.2582 15.7346 12.4999 13.5763C12.1915 14.1013 12.0165 14.718 12.0165 15.368C12.0165 16.6096 12.6415 17.7096 13.6082 18.3346C13.0165 18.3346 12.4665 18.168 11.9832 17.918C11.9832 17.918 11.9832 17.918 11.9832 17.943C11.9832 19.6763 13.2165 21.1263 14.8499 21.4513C14.5499 21.5346 14.2332 21.5763 13.9082 21.5763C13.6832 21.5763 13.4582 21.5513 13.2415 21.5096C13.6915 22.918 14.9999 23.968 16.5749 23.993C15.3582 24.9596 13.8165 25.5263 12.1332 25.5263C11.8499 25.5263 11.5665 25.5096 11.2832 25.4763C12.8665 26.493 14.7499 27.0846 16.7665 27.0846C23.3332 27.0846 26.9415 21.6346 26.9415 16.9096C26.9415 16.7513 26.9415 16.6013 26.9332 16.443C27.6332 15.943 28.2332 15.3096 28.7165 14.5846Z" fill="#082A5E"/>
</svg>
