<svg width="40" height="40" viewBox="0 0 40 40" fill="none" xmlns="http://www.w3.org/2000/svg">
<rect width="40" height="40" rx="5" fill="#EFF2FB"/>
<path d="M25.8333 12.5C26.2754 12.5 26.6993 12.6756 27.0118 12.9882C27.3244 13.3007 27.5 13.7246 27.5 14.1667V25.8333C27.5 26.2754 27.3244 26.6993 27.0118 27.0118C26.6993 27.3244 26.2754 27.5 25.8333 27.5H14.1667C13.7246 27.5 13.3007 27.3244 12.9882 27.0118C12.6756 26.6993 12.5 26.2754 12.5 25.8333V14.1667C12.5 13.7246 12.6756 13.3007 12.9882 12.9882C13.3007 12.6756 13.7246 12.5 14.1667 12.5H25.8333ZM25.4167 25.4167V21C25.4167 20.2795 25.1304 19.5885 24.621 19.079C24.1115 18.5696 23.4205 18.2833 22.7 18.2833C21.9917 18.2833 21.1667 18.7167 20.7667 19.3667V18.4417H18.4417V25.4167H20.7667V21.3083C20.7667 20.6667 21.2833 20.1417 21.925 20.1417C22.2344 20.1417 22.5312 20.2646 22.75 20.4834C22.9688 20.7022 23.0917 20.9989 23.0917 21.3083V25.4167H25.4167ZM15.7333 17.1333C16.1046 17.1333 16.4607 16.9858 16.7233 16.7233C16.9858 16.4607 17.1333 16.1046 17.1333 15.7333C17.1333 14.9583 16.5083 14.325 15.7333 14.325C15.3598 14.325 15.0016 14.4734 14.7375 14.7375C14.4734 15.0016 14.325 15.3598 14.325 15.7333C14.325 16.5083 14.9583 17.1333 15.7333 17.1333ZM16.8917 25.4167V18.4417H14.5833V25.4167H16.8917Z" fill="#082A5E"/>
</svg>
