<svg width="22" height="25" viewBox="0 0 22 25" fill="none" xmlns="http://www.w3.org/2000/svg">
<g id="Frame">
<path id="Vector" d="M3.66663 6.40592C3.66663 6.64904 3.7632 6.8822 3.93511 7.05411C4.10702 7.22601 4.34018 7.32259 4.58329 7.32259C4.82641 7.32259 5.05957 7.22601 5.23147 7.05411C5.40338 6.8822 5.49996 6.64904 5.49996 6.40592C5.49996 6.16281 5.40338 5.92965 5.23147 5.75774C5.05957 5.58584 4.82641 5.48926 4.58329 5.48926C4.34018 5.48926 4.10702 5.58584 3.93511 5.75774C3.7632 5.92965 3.66663 6.16281 3.66663 6.40592Z" stroke="#5D87FF" stroke-width="1.83333" stroke-linecap="round" stroke-linejoin="round"/>
<path id="Vector_2" d="M10.0834 6.40592C10.0834 6.64904 10.18 6.8822 10.3519 7.05411C10.5238 7.22601 10.7569 7.32259 11 7.32259C11.2432 7.32259 11.4763 7.22601 11.6482 7.05411C11.8201 6.8822 11.9167 6.64904 11.9167 6.40592C11.9167 6.16281 11.8201 5.92965 11.6482 5.75774C11.4763 5.58584 11.2432 5.48926 11 5.48926C10.7569 5.48926 10.5238 5.58584 10.3519 5.75774C10.18 5.92965 10.0834 6.16281 10.0834 6.40592Z" stroke="#5D87FF" stroke-width="1.83333" stroke-linecap="round" stroke-linejoin="round"/>
<path id="Vector_3" d="M16.5 6.40592C16.5 6.64904 16.5966 6.8822 16.7685 7.05411C16.9404 7.22601 17.1736 7.32259 17.4167 7.32259C17.6598 7.32259 17.8929 7.22601 18.0648 7.05411C18.2368 6.8822 18.3333 6.64904 18.3333 6.40592C18.3333 6.16281 18.2368 5.92965 18.0648 5.75774C17.8929 5.58584 17.6598 5.48926 17.4167 5.48926C17.1736 5.48926 16.9404 5.58584 16.7685 5.75774C16.5966 5.92965 16.5 6.16281 16.5 6.40592Z" stroke="#5D87FF" stroke-width="1.83333" stroke-linecap="round" stroke-linejoin="round"/>
<path id="Vector_4" d="M3.66663 12.8219C3.66663 13.0651 3.7632 13.2982 3.93511 13.4701C4.10702 13.642 4.34018 13.7386 4.58329 13.7386C4.82641 13.7386 5.05957 13.642 5.23147 13.4701C5.40338 13.2982 5.49996 13.0651 5.49996 12.8219C5.49996 12.5788 5.40338 12.3457 5.23147 12.1738C5.05957 12.0019 4.82641 11.9053 4.58329 11.9053C4.34018 11.9053 4.10702 12.0019 3.93511 12.1738C3.7632 12.3457 3.66663 12.5788 3.66663 12.8219Z" stroke="#5D87FF" stroke-width="1.83333" stroke-linecap="round" stroke-linejoin="round"/>
<path id="Vector_5" d="M10.0834 12.8219C10.0834 13.0651 10.18 13.2982 10.3519 13.4701C10.5238 13.642 10.7569 13.7386 11 13.7386C11.2432 13.7386 11.4763 13.642 11.6482 13.4701C11.8201 13.2982 11.9167 13.0651 11.9167 12.8219C11.9167 12.5788 11.8201 12.3457 11.6482 12.1738C11.4763 12.0019 11.2432 11.9053 11 11.9053C10.7569 11.9053 10.5238 12.0019 10.3519 12.1738C10.18 12.3457 10.0834 12.5788 10.0834 12.8219Z" stroke="#5D87FF" stroke-width="1.83333" stroke-linecap="round" stroke-linejoin="round"/>
<path id="Vector_6" d="M16.5 12.8219C16.5 13.0651 16.5966 13.2982 16.7685 13.4701C16.9404 13.642 17.1736 13.7386 17.4167 13.7386C17.6598 13.7386 17.8929 13.642 18.0648 13.4701C18.2368 13.2982 18.3333 13.0651 18.3333 12.8219C18.3333 12.5788 18.2368 12.3457 18.0648 12.1738C17.8929 12.0019 17.6598 11.9053 17.4167 11.9053C17.1736 11.9053 16.9404 12.0019 16.7685 12.1738C16.5966 12.3457 16.5 12.5788 16.5 12.8219Z" stroke="#5D87FF" stroke-width="1.83333" stroke-linecap="round" stroke-linejoin="round"/>
<path id="Vector_7" d="M3.66663 19.2389C3.66663 19.482 3.7632 19.7152 3.93511 19.8871C4.10702 20.059 4.34018 20.1556 4.58329 20.1556C4.82641 20.1556 5.05957 20.059 5.23147 19.8871C5.40338 19.7152 5.49996 19.482 5.49996 19.2389C5.49996 18.9958 5.40338 18.7627 5.23147 18.5908C5.05957 18.4188 4.82641 18.3223 4.58329 18.3223C4.34018 18.3223 4.10702 18.4188 3.93511 18.5908C3.7632 18.7627 3.66663 18.9958 3.66663 19.2389Z" stroke="#5D87FF" stroke-width="1.83333" stroke-linecap="round" stroke-linejoin="round"/>
<path id="Vector_8" d="M10.0834 19.2389C10.0834 19.482 10.18 19.7152 10.3519 19.8871C10.5238 20.059 10.7569 20.1556 11 20.1556C11.2432 20.1556 11.4763 20.059 11.6482 19.8871C11.8201 19.7152 11.9167 19.482 11.9167 19.2389C11.9167 18.9958 11.8201 18.7627 11.6482 18.5908C11.4763 18.4188 11.2432 18.3223 11 18.3223C10.7569 18.3223 10.5238 18.4188 10.3519 18.5908C10.18 18.7627 10.0834 18.9958 10.0834 19.2389Z" stroke="#5D87FF" stroke-width="1.83333" stroke-linecap="round" stroke-linejoin="round"/>
<path id="Vector_9" d="M16.5 19.2389C16.5 19.482 16.5966 19.7152 16.7685 19.8871C16.9404 20.059 17.1736 20.1556 17.4167 20.1556C17.6598 20.1556 17.8929 20.059 18.0648 19.8871C18.2368 19.7152 18.3333 19.482 18.3333 19.2389C18.3333 18.9958 18.2368 18.7627 18.0648 18.5908C17.8929 18.4188 17.6598 18.3223 17.4167 18.3223C17.1736 18.3223 16.9404 18.4188 16.7685 18.5908C16.5966 18.7627 16.5 18.9958 16.5 19.2389Z" stroke="#5D87FF" stroke-width="1.83333" stroke-linecap="round" stroke-linejoin="round"/>
</g>
</svg>
