<svg width="38" height="39" viewBox="0 0 38 39" fill="none" xmlns="http://www.w3.org/2000/svg">
<rect y="0.822266" width="38" height="38" rx="7" fill="#ECF2FF"/>
<g clip-path="url(#clip0_1531_102278)">
<path d="M11.6666 13.4059C11.6666 13.649 11.7632 13.8822 11.9351 14.0541C12.107 14.226 12.3402 14.3226 12.5833 14.3226C12.8264 14.3226 13.0596 14.226 13.2315 14.0541C13.4034 13.8822 13.5 13.649 13.5 13.4059C13.5 13.1628 13.4034 12.9297 13.2315 12.7577C13.0596 12.5858 12.8264 12.4893 12.5833 12.4893C12.3402 12.4893 12.107 12.5858 11.9351 12.7577C11.7632 12.9297 11.6666 13.1628 11.6666 13.4059Z" stroke="#5D87FF" stroke-width="1.83333" stroke-linecap="round" stroke-linejoin="round"/>
<path d="M18.0834 13.4059C18.0834 13.649 18.18 13.8822 18.3519 14.0541C18.5238 14.226 18.7569 14.3226 19 14.3226C19.2432 14.3226 19.4763 14.226 19.6482 14.0541C19.8201 13.8822 19.9167 13.649 19.9167 13.4059C19.9167 13.1628 19.8201 12.9297 19.6482 12.7577C19.4763 12.5858 19.2432 12.4893 19 12.4893C18.7569 12.4893 18.5238 12.5858 18.3519 12.7577C18.18 12.9297 18.0834 13.1628 18.0834 13.4059Z" stroke="#5D87FF" stroke-width="1.83333" stroke-linecap="round" stroke-linejoin="round"/>
<path d="M24.5 13.4059C24.5 13.649 24.5966 13.8822 24.7685 14.0541C24.9404 14.226 25.1736 14.3226 25.4167 14.3226C25.6598 14.3226 25.8929 14.226 26.0648 14.0541C26.2368 13.8822 26.3333 13.649 26.3333 13.4059C26.3333 13.1628 26.2368 12.9297 26.0648 12.7577C25.8929 12.5858 25.6598 12.4893 25.4167 12.4893C25.1736 12.4893 24.9404 12.5858 24.7685 12.7577C24.5966 12.9297 24.5 13.1628 24.5 13.4059Z" stroke="#5D87FF" stroke-width="1.83333" stroke-linecap="round" stroke-linejoin="round"/>
<path d="M11.6666 19.8219C11.6666 20.0651 11.7632 20.2982 11.9351 20.4701C12.107 20.642 12.3402 20.7386 12.5833 20.7386C12.8264 20.7386 13.0596 20.642 13.2315 20.4701C13.4034 20.2982 13.5 20.0651 13.5 19.8219C13.5 19.5788 13.4034 19.3457 13.2315 19.1738C13.0596 19.0019 12.8264 18.9053 12.5833 18.9053C12.3402 18.9053 12.107 19.0019 11.9351 19.1738C11.7632 19.3457 11.6666 19.5788 11.6666 19.8219Z" stroke="#5D87FF" stroke-width="1.83333" stroke-linecap="round" stroke-linejoin="round"/>
<path d="M18.0834 19.8219C18.0834 20.0651 18.18 20.2982 18.3519 20.4701C18.5238 20.642 18.7569 20.7386 19 20.7386C19.2432 20.7386 19.4763 20.642 19.6482 20.4701C19.8201 20.2982 19.9167 20.0651 19.9167 19.8219C19.9167 19.5788 19.8201 19.3457 19.6482 19.1738C19.4763 19.0019 19.2432 18.9053 19 18.9053C18.7569 18.9053 18.5238 19.0019 18.3519 19.1738C18.18 19.3457 18.0834 19.5788 18.0834 19.8219Z" stroke="#5D87FF" stroke-width="1.83333" stroke-linecap="round" stroke-linejoin="round"/>
<path d="M24.5 19.8219C24.5 20.0651 24.5966 20.2982 24.7685 20.4701C24.9404 20.642 25.1736 20.7386 25.4167 20.7386C25.6598 20.7386 25.8929 20.642 26.0648 20.4701C26.2368 20.2982 26.3333 20.0651 26.3333 19.8219C26.3333 19.5788 26.2368 19.3457 26.0648 19.1738C25.8929 19.0019 25.6598 18.9053 25.4167 18.9053C25.1736 18.9053 24.9404 19.0019 24.7685 19.1738C24.5966 19.3457 24.5 19.5788 24.5 19.8219Z" stroke="#5D87FF" stroke-width="1.83333" stroke-linecap="round" stroke-linejoin="round"/>
<path d="M11.6666 26.2389C11.6666 26.482 11.7632 26.7152 11.9351 26.8871C12.107 27.059 12.3402 27.1556 12.5833 27.1556C12.8264 27.1556 13.0596 27.059 13.2315 26.8871C13.4034 26.7152 13.5 26.482 13.5 26.2389C13.5 25.9958 13.4034 25.7627 13.2315 25.5908C13.0596 25.4188 12.8264 25.3223 12.5833 25.3223C12.3402 25.3223 12.107 25.4188 11.9351 25.5908C11.7632 25.7627 11.6666 25.9958 11.6666 26.2389Z" stroke="#5D87FF" stroke-width="1.83333" stroke-linecap="round" stroke-linejoin="round"/>
<path d="M18.0834 26.2389C18.0834 26.482 18.18 26.7152 18.3519 26.8871C18.5238 27.059 18.7569 27.1556 19 27.1556C19.2432 27.1556 19.4763 27.059 19.6482 26.8871C19.8201 26.7152 19.9167 26.482 19.9167 26.2389C19.9167 25.9958 19.8201 25.7627 19.6482 25.5908C19.4763 25.4188 19.2432 25.3223 19 25.3223C18.7569 25.3223 18.5238 25.4188 18.3519 25.5908C18.18 25.7627 18.0834 25.9958 18.0834 26.2389Z" stroke="#5D87FF" stroke-width="1.83333" stroke-linecap="round" stroke-linejoin="round"/>
<path d="M24.5 26.2389C24.5 26.482 24.5966 26.7152 24.7685 26.8871C24.9404 27.059 25.1736 27.1556 25.4167 27.1556C25.6598 27.1556 25.8929 27.059 26.0648 26.8871C26.2368 26.7152 26.3333 26.482 26.3333 26.2389C26.3333 25.9958 26.2368 25.7627 26.0648 25.5908C25.8929 25.4188 25.6598 25.3223 25.4167 25.3223C25.1736 25.3223 24.9404 25.4188 24.7685 25.5908C24.5966 25.7627 24.5 25.9958 24.5 26.2389Z" stroke="#5D87FF" stroke-width="1.83333" stroke-linecap="round" stroke-linejoin="round"/>
</g>
<defs>
<clipPath id="clip0_1531_102278">
<rect width="22" height="24" fill="white" transform="translate(8 7.82227)"/>
</clipPath>
</defs>
</svg>
