<svg width="16" height="21" viewBox="0 0 16 21" fill="none" xmlns="http://www.w3.org/2000/svg">
<path id="Vector" d="M12.5674 8.32333H3.16745C3.07856 8.32333 3.01189 8.35667 2.96745 8.42334C2.923 8.49 2.90078 8.56778 2.90078 8.65667C2.90078 8.74556 2.923 8.81222 2.96745 8.85667C3.01189 8.90111 3.07856 8.92334 3.16745 8.92334H12.5674C12.6563 8.92334 12.7341 8.90111 12.8008 8.85667C12.8674 8.81222 12.9008 8.74556 12.9008 8.65667C12.9008 8.56778 12.8674 8.49 12.8008 8.42334C12.7341 8.35667 12.6563 8.32333 12.5674 8.32333ZM12.5674 5.79H3.16745C3.07856 5.79 3.01189 5.82333 2.96745 5.89C2.923 5.95667 2.90078 6.03445 2.90078 6.12333C2.90078 6.21222 2.923 6.29 2.96745 6.35667C3.01189 6.42334 3.07856 6.45667 3.16745 6.45667H12.5674C12.6563 6.45667 12.7341 6.42334 12.8008 6.35667C12.8674 6.29 12.9008 6.21222 12.9008 6.12333C12.9008 6.03445 12.8674 5.95667 12.8008 5.89C12.7341 5.82333 12.6563 5.79 12.5674 5.79ZM12.5674 10.79H3.16745C3.07856 10.79 3.01189 10.8233 2.96745 10.89C2.923 10.9567 2.90078 11.0344 2.90078 11.1233C2.90078 11.2122 2.923 11.29 2.96745 11.3567C3.01189 11.4233 3.07856 11.4567 3.16745 11.4567H12.5674C12.6563 11.4567 12.7341 11.4233 12.8008 11.3567C12.8674 11.29 12.9008 11.2122 12.9008 11.1233C12.9008 11.0344 12.8674 10.9567 12.8008 10.89C12.7341 10.8233 12.6563 10.79 12.5674 10.79ZM12.5674 13.3233H3.16745C3.07856 13.3233 3.01189 13.3567 2.96745 13.4233C2.923 13.49 2.90078 13.5678 2.90078 13.6567C2.90078 13.7456 2.923 13.8122 2.96745 13.8567C3.01189 13.9011 3.07856 13.9233 3.16745 13.9233H12.5674C12.6563 13.9233 12.7341 13.9011 12.8008 13.8567C12.8674 13.8122 12.9008 13.7456 12.9008 13.6567C12.9008 13.5678 12.8674 13.49 12.8008 13.4233C12.7341 13.3567 12.6563 13.3233 12.5674 13.3233ZM10.0341 15.79H3.16745C3.07856 15.79 3.01189 15.8233 2.96745 15.89C2.923 15.9567 2.90078 16.0344 2.90078 16.1233C2.90078 16.2122 2.923 16.29 2.96745 16.3567C3.01189 16.4233 3.07856 16.4567 3.16745 16.4567H10.0341C10.123 16.4567 10.2008 16.4233 10.2674 16.3567C10.3341 16.29 10.3674 16.2122 10.3674 16.1233C10.3674 16.0344 10.3341 15.9567 10.2674 15.89C10.2008 15.8233 10.123 15.79 10.0341 15.79ZM15.3008 4.05667C15.2563 4.05667 14.6119 3.43445 13.3674 2.19L11.4341 0.256668C11.3897 0.212223 11.2119 0.190001 10.9008 0.190001H1.90078C1.45634 0.190001 1.07856 0.345556 0.767448 0.656668C0.456337 0.967779 0.300781 1.34556 0.300781 1.79V18.6567C0.300781 19.0567 0.456337 19.4122 0.767448 19.7233C1.07856 20.0344 1.45634 20.19 1.90078 20.19H13.7674C14.2119 20.19 14.5786 20.0344 14.8674 19.7233C15.1563 19.4122 15.3008 19.0567 15.3008 18.6567V4.79C15.3008 4.34556 15.3008 4.12333 15.3008 4.12333V4.05667ZM14.2341 3.92333H11.5674V1.25667L14.2341 3.92333ZM13.7674 19.59H1.90078C1.63411 19.59 1.41189 19.49 1.23411 19.29C1.05634 19.09 0.967448 18.8789 0.967448 18.6567V1.79C0.967448 1.52333 1.05634 1.29 1.23411 1.09C1.41189 0.890001 1.63411 0.790001 1.90078 0.790001H10.9674V4.25667C10.9674 4.34556 11.0008 4.42334 11.0674 4.49C11.1341 4.55667 11.2119 4.59 11.3008 4.59H14.7008V18.6567C14.7008 18.8789 14.6119 19.09 14.4341 19.29C14.2563 19.49 14.0341 19.59 13.7674 19.59Z" fill="black"/>
</svg>
