<svg width="108" height="108" viewBox="0 0 108 108" fill="none" xmlns="http://www.w3.org/2000/svg">
<path d="M54 25.25C56.071 25.25 57.75 26.9289 57.75 29V59C57.75 61.071 56.071 62.75 54 62.75C51.929 62.75 50.25 61.071 50.25 59V29C50.25 26.9289 51.929 25.25 54 25.25Z" fill="#1363DF"/>
<path d="M54 79C56.7615 79 59 76.7615 59 74C59 71.2385 56.7615 69 54 69C51.2385 69 49 71.2385 49 74C49 76.7615 51.2385 79 54 79Z" fill="#1363DF"/>
<path fill-rule="evenodd" clip-rule="evenodd" d="M0.25 54C0.25 24.3147 24.3147 0.25 54 0.25C83.6855 0.25 107.75 24.3147 107.75 54C107.75 83.6855 83.6855 107.75 54 107.75C24.3147 107.75 0.25 83.6855 0.25 54ZM54 7.75C28.4568 7.75 7.75 28.4568 7.75 54C7.75 79.543 28.4568 100.25 54 100.25C79.543 100.25 100.25 79.543 100.25 54C100.25 28.4568 79.543 7.75 54 7.75Z" fill="#1363DF"/>
</svg>
