<svg width="101" height="100" viewBox="0 0 101 100" fill="none" xmlns="http://www.w3.org/2000/svg">
<g id="Vector">
<path d="M85.8556 14.6454C66.3284 -4.8818 34.6736 -4.8818 15.1464 14.6454C-4.38083 34.1726 -4.38083 65.8274 15.1464 85.3546C34.6736 104.882 66.3284 104.882 85.8556 85.3546C105.383 65.8274 105.379 34.1726 85.8556 14.6454ZM77.7119 37.6365L47.3291 68.0233C46.579 68.7731 45.5618 69.1944 44.5012 69.1944C43.4406 69.1944 42.4234 68.7731 41.6733 68.0233L23.2901 49.636C22.9187 49.2647 22.6241 48.8238 22.4231 48.3386C22.2222 47.8534 22.1187 47.3333 22.1187 46.8081C22.1187 45.7475 22.5401 44.7302 23.2901 43.9802C24.0401 43.2302 25.0573 42.8089 26.118 42.8089C27.1786 42.8089 28.1958 43.2302 28.9458 43.9802L44.5012 59.5356L72.0561 31.9767C72.4277 31.6054 72.8689 31.3108 73.3543 31.1099C73.8398 30.9091 74.36 30.8058 74.8854 30.806C75.4108 30.8061 75.931 30.9098 76.4163 31.111C76.9016 31.3123 77.3425 31.6071 77.7139 31.9787C78.0853 32.3503 78.3798 32.7915 78.5807 33.2769C78.7815 33.7624 78.8848 34.2827 78.8847 34.808C78.8845 35.3334 78.7808 35.8536 78.5796 36.3389C78.3784 36.8242 78.0835 37.2651 77.7119 37.6365Z" fill="#44C019"/>
<path d="M77.7119 37.6365L47.3291 68.0233C46.579 68.7731 45.5618 69.1944 44.5012 69.1944C43.4406 69.1944 42.4234 68.7731 41.6733 68.0233L23.2901 49.636C22.9187 49.2647 22.6241 48.8238 22.4231 48.3386C22.2222 47.8534 22.1187 47.3333 22.1187 46.8081C22.1187 45.7475 22.5401 44.7302 23.2901 43.9802C24.0401 43.2302 25.0573 42.8089 26.118 42.8089C27.1786 42.8089 28.1958 43.2302 28.9458 43.9802L44.5012 59.5356L72.0561 31.9767C72.4277 31.6054 72.8689 31.3108 73.3543 31.1099C73.8398 30.9091 74.36 30.8058 74.8854 30.806C75.4108 30.8061 75.931 30.9098 76.4163 31.111C76.9016 31.3123 77.3425 31.6071 77.7139 31.9787C78.0853 32.3503 78.3798 32.7915 78.5807 33.2769C78.7815 33.7624 78.8848 34.2827 78.8847 34.808C78.8845 35.3334 78.7808 35.8536 78.5796 36.3389C78.3784 36.8242 78.0835 37.2651 77.7119 37.6365Z" fill="white"/>
</g>
</svg>
