<svg width="96" height="96" viewBox="0 0 96 96" fill="none" xmlns="http://www.w3.org/2000/svg">
<g clip-path="url(#clip0_2681_4883)">
<path d="M68 28H52V35.6H68C74.84 35.6 80.4 41.16 80.4 48C80.4 53.72 76.48 58.52 71.16 59.92L77 65.76C83.52 62.44 88 55.8 88 48C88 36.96 79.04 28 68 28ZM64 44H55.24L63.24 52H64V44ZM8 17.08L20.44 29.52C13.16 32.48 8 39.64 8 48C8 59.04 16.96 68 28 68H44V60.4H28C21.16 60.4 15.6 54.84 15.6 48C15.6 41.64 20.44 36.4 26.64 35.72L34.92 44H32V52H42.92L52 61.08V68H58.92L74.96 84L80 78.96L13.08 12L8 17.08Z" fill="black"/>
</g>
<defs>
<clipPath id="clip0_2681_4883">
<rect width="96" height="96" fill="white"/>
</clipPath>
</defs>
</svg>
