<svg width="120" height="120" viewBox="0 0 120 120" fill="none" xmlns="http://www.w3.org/2000/svg">
<path d="M115 59.9999C114.997 70.4492 112.017 80.6814 106.409 89.4985C100.801 98.3156 92.7974 105.353 83.3352 109.786C73.8729 114.22 63.3436 115.866 52.9797 114.532C42.6159 113.198 32.8464 108.94 24.815 102.255L23.535 103.535C22.5975 104.473 21.326 105 20 105C19.3427 105.002 18.6917 104.873 18.085 104.62C17.1716 104.241 16.3909 103.6 15.8418 102.778C15.2927 101.955 14.9998 100.989 15 99.9999V89.9999C15 88.6738 15.5268 87.402 16.4645 86.4644C17.4022 85.5267 18.6739 84.9999 20 84.9999H30C30.9888 85.0001 31.9552 85.2935 32.7773 85.8429C33.5993 86.3923 34.24 87.1731 34.6184 88.0866C34.9967 89.0001 35.0958 90.0053 34.9029 90.9751C34.7101 91.9448 34.234 92.8356 33.535 93.5349L31.925 95.1449C39.8936 101.506 49.7864 104.973 59.9828 104.977C70.1792 104.981 80.0746 101.522 88.0481 95.1664C96.0216 88.8111 101.6 79.9363 103.87 69.9958C106.141 60.0554 104.968 49.6386 100.544 40.452C96.1195 31.2654 88.7067 23.8535 79.5195 19.4307C70.3323 15.0078 59.9154 13.8362 49.9753 16.1076C40.0351 18.3791 31.161 23.959 24.8068 31.9333C18.4525 39.9076 14.9948 49.8035 15 59.9999C15.0006 63.0223 15.3021 66.0372 15.9 68.9999C16.1652 70.2995 15.9033 71.6512 15.1719 72.7576C14.4405 73.8641 13.2996 74.6347 12 74.8999C10.7004 75.1651 9.34875 74.9032 8.24229 74.1718C7.13582 73.4404 6.36522 72.2995 6.1 70.9999C4.57088 63.4694 4.63671 55.702 6.29325 48.1984C7.94979 40.6949 11.1603 33.6218 15.7178 27.4349C20.2752 21.2481 26.0785 16.085 32.7536 12.2783C39.4286 8.47161 46.8273 6.10589 54.4726 5.33364C62.1179 4.56138 69.8402 5.39973 77.1417 7.79464C84.4432 10.1896 91.1618 14.0879 96.8644 19.2383C102.567 24.3887 107.127 30.677 110.251 37.6977C113.374 44.7184 114.992 52.3157 115 59.9999ZM60 24.9999C58.6739 24.9999 57.4022 25.5267 56.4645 26.4644C55.5268 27.4021 55 28.6738 55 29.9999V59.9999C55 61.326 55.5268 62.5978 56.4645 63.5354C57.4022 64.4731 58.6739 64.9999 60 64.9999H85C86.3261 64.9999 87.5979 64.4731 88.5355 63.5354C89.4732 62.5978 90 61.326 90 59.9999C90 58.6738 89.4732 57.402 88.5355 56.4644C87.5979 55.5267 86.3261 54.9999 85 54.9999H65V29.9999C65 28.6738 64.4732 27.4021 63.5355 26.4644C62.5979 25.5267 61.3261 24.9999 60 24.9999Z" fill="#1363DF"/>
</svg>
