<svg width="21" height="21" viewBox="0 0 21 21" fill="none" xmlns="http://www.w3.org/2000/svg">
<g clip-path="url(#clip0_2346_7229)">
<path d="M16.0329 4.39H1.36628C1.01072 4.39 0.710721 4.51223 0.466276 4.75667C0.221832 5.00111 0.0996094 5.30111 0.0996094 5.65667V14.8567C0.0996094 15.2122 0.221832 15.5122 0.466276 15.7567C0.710721 16.0011 1.01072 16.1233 1.36628 16.1233H16.0329C16.3885 16.1233 16.6885 16.0011 16.9329 15.7567C17.1774 15.5122 17.2996 15.2122 17.2996 14.8567V5.65667C17.2996 5.30111 17.1774 5.00111 16.9329 4.75667C16.6885 4.51223 16.3885 4.39 16.0329 4.39ZM8.69961 11.3233L1.49961 5.19H15.8996L8.69961 11.3233ZM0.899609 5.65667L5.56628 9.65667L0.899609 14.79V5.65667ZM6.16628 10.19L8.43294 12.1233C8.52183 12.1678 8.61072 12.19 8.69961 12.19C8.7885 12.19 8.87739 12.1678 8.96628 12.1233L11.1663 10.19L15.9663 15.3233H1.43294L6.16628 10.19ZM11.7663 9.65667L16.4996 5.65667V14.79L11.7663 9.65667Z" fill="black"/>
</g>
<defs>
<clipPath id="clip0_2346_7229">
<rect width="20" height="20" fill="white" transform="matrix(1 0 0 -1 0.0996094 20.19)"/>
</clipPath>
</defs>
</svg>
