<svg width="98" height="103" viewBox="0 0 98 103" fill="none" xmlns="http://www.w3.org/2000/svg">
<g id="Group">
<path id="Vector" d="M78.82 35.28H78.54H72.1C70.98 35.28 70.14 34.44 70.14 33.32C70.14 32.2 70.98 31.36 72.1 31.36H78.4C82.32 31.22 84.14 30.1 84.98 27.16C85.26 26.18 86.38 25.48 87.36 25.76C88.34 26.04 89.04 27.16 88.76 28.14C87.64 32.48 83.86 35.28 78.82 35.28ZM87.22 21.84C86.1 21.84 85.26 21 85.26 19.88C85.26 18.76 86.1 17.92 87.22 17.92C88.2 17.92 89.18 18.76 89.18 19.88C89.18 21 88.34 21.84 87.22 21.84ZM87.22 16.1C86.1 16.1 85.26 15.26 85.26 14.14C85.26 13.02 86.1 12.18 87.22 12.18C88.2 12.18 89.18 13.02 89.18 14.14C89.18 15.26 88.34 16.1 87.22 16.1ZM87.5 10.22H87.08C86.1 9.94003 85.4 8.96003 85.54 7.98003C85.96 4.48003 88.62 0.980032 93.1 1.12003C94.22 1.12003 95.06 1.96003 95.06 3.08003C95.06 4.20003 94.22 5.04003 93.1 5.04003C90.58 5.18003 90.02 6.30003 89.32 8.68003C89.32 9.66003 88.48 10.22 87.5 10.22Z" fill="#231F20"/>
<path id="Vector_2" d="M71.9601 25.76H64.4001C63.2801 25.76 62.4401 24.92 62.4401 23.8C62.4401 22.68 63.2801 21.84 64.4001 21.84H71.8201C73.7801 21.84 74.4801 21.42 74.7601 21C75.1801 20.58 75.4601 19.6 75.4601 18.2V9.8C75.4601 8.68 76.3001 7.84 77.4201 7.84C78.5401 7.84 79.3801 8.68 79.3801 9.8V18.34C79.3801 19.74 79.2401 21.98 77.8401 23.52C76.5801 25.06 74.4801 25.76 71.9601 25.76ZM77.4201 3.92C76.3001 3.92 75.4601 3.08 75.4601 1.96C75.4601 0.839999 76.3001 0 77.4201 0C78.5401 0 79.3801 0.839999 79.3801 1.96C79.3801 3.08 78.5401 3.92 77.4201 3.92Z" fill="#231F20"/>
<path id="Vector_3" d="M81.7601 44.1C80.6401 44.1 79.8 43.26 79.8 42.14C79.8 41.02 80.6401 40.18 81.7601 40.18H90.0201C90.4401 40.18 90.8601 40.18 91.1401 40.04C92.1201 39.9 93.2401 40.6 93.3801 41.72C93.5201 42.28 93.3801 42.7 92.9601 43.12C92.6801 43.54 92.1201 43.82 91.7001 43.82C91.1401 43.96 90.7201 43.96 90.0201 43.96H81.7601V44.1ZM95.6201 38.5C94.5001 38.5 93.6601 37.66 93.6601 36.54V32.62C93.6601 31.5 94.5001 30.66 95.6201 30.66C96.7401 30.66 97.5801 31.5 97.5801 32.62V36.54C97.5801 37.52 96.7401 38.5 95.6201 38.5ZM95.6201 28.7C94.5001 28.7 93.6601 27.86 93.6601 26.74C93.6601 25.62 94.5001 24.78 95.6201 24.78C96.7401 24.78 97.5801 25.62 97.5801 26.74C97.5801 27.86 96.7401 28.7 95.6201 28.7Z" fill="#231F20"/>
<path id="Vector_4" d="M70.7001 76.3C70.0001 76.3 69.4401 75.8799 69.3001 75.1799L68.6001 71.4C64.82 52.92 50.4 38.5 31.92 34.72L28.28 34.02C27.58 33.88 27.02 33.18 27.16 32.34L28.14 25.62C28.14 25.2 28.42 24.92 28.7 24.64C28.98 24.36 29.4 24.36 29.82 24.36L38.22 26.04C57.82 30.1 73.22 45.36 77.2801 65.1L78.9601 73.5C79.1001 73.92 78.9601 74.34 78.6801 74.62C78.4001 74.9 78.1201 75.1799 77.7001 75.1799L70.98 76.16L70.7001 76.3ZM32.48 31.78C52.08 35.84 67.48 51.1 71.5401 70.84L71.9601 73.22L75.7401 72.66L74.3401 65.8C70.56 47.32 56.14 32.9 37.66 29.12L30.8 27.72L30.1 31.36L32.48 31.78Z" fill="#231F20"/>
<path id="Vector_5" d="M58.38 82.88C57.96 82.88 57.68 82.74 57.4 82.46L20.72 45.92C20.44 45.64 20.3 45.08 20.3 44.66L22.26 31.36C22.26 30.94 22.54 30.66 22.82 30.38C23.1 30.1 23.52 30.1 23.94 30.1L32.34 31.78C51.94 35.84 67.34 51.1 71.4 70.84L73.08 79.24C73.22 79.66 73.08 80.08 72.8 80.36C72.52 80.64 72.24 80.92 71.82 80.92L58.52 82.88H58.38ZM23.24 44.38L58.8 79.94L69.86 78.26L68.46 71.4C64.68 52.92 50.26 38.5 31.78 34.72L24.92 33.32L23.24 44.38Z" fill="#231F20"/>
<path id="Vector_6" d="M2.38005 102.62C1.82005 102.62 1.40005 102.48 0.980045 102.06C0.420045 101.5 0.280044 100.8 0.560044 100.1L17.64 42.0001C17.78 41.3001 18.34 40.8801 19.04 40.7401C19.74 40.6001 20.44 40.7401 20.86 41.3001L61.8801 82.3201C62.3001 82.7401 62.58 83.4401 62.44 84.1401C62.3 84.8401 61.7401 85.2601 61.1801 85.5401L2.94004 102.48C2.66004 102.62 2.52005 102.62 2.38005 102.62ZM20.44 46.2001L5.18005 97.8601L56.84 82.6001L20.44 46.2001Z" fill="#231F20"/>
<path id="Vector_7" d="M60.9001 76.9999C60.2001 76.9999 59.6401 76.4399 59.5001 75.8799C59.3601 75.4599 59.5001 75.1799 59.7801 74.7599C60.0601 74.4799 60.3401 74.1999 60.7601 74.1999L63.4201 73.6399C63.1401 72.7999 62.8601 71.8199 62.4401 70.8399C62.3001 70.4199 62.3001 70.1399 62.4401 69.7199C62.5801 69.4399 62.8601 69.1599 63.2801 69.0199C63.9801 68.7399 64.8201 69.1599 65.1001 69.8599C66.0801 72.6599 66.5001 74.3399 66.5001 74.3399C66.6401 74.7599 66.5001 75.1799 66.3601 75.4599C66.0801 75.7399 65.8001 76.0199 65.3801 76.1599L61.1801 76.9999H60.9001ZM61.6001 66.3599C61.0401 66.3599 60.4801 66.0799 60.2001 65.5199C60.0601 65.2399 60.0601 64.8199 60.2001 64.3999C60.3401 64.1199 60.6201 63.6999 60.9001 63.5599C61.6001 63.2799 62.4401 63.5599 62.8601 64.2599C63.1401 64.9599 62.8601 65.7999 62.1601 66.2199C61.8801 66.3599 61.7401 66.3599 61.6001 66.3599ZM58.9401 61.1799C58.3801 61.1799 57.9601 60.8999 57.6801 60.4799C57.5401 60.1999 57.4001 59.7799 57.5401 59.3599C57.6801 58.9399 57.8201 58.6599 58.2401 58.5199C58.9401 58.0999 59.7801 58.3799 60.2001 59.0799C60.3401 59.3599 60.4801 59.7799 60.3401 60.1999C60.2001 60.6199 59.9201 60.8999 59.6401 61.0399C59.5001 61.0399 59.2201 61.1799 58.9401 61.1799ZM55.8601 56.2799C55.4401 56.2799 54.8801 55.9999 54.6001 55.5799L54.3201 55.2999L54.1801 55.0199C49.2801 48.16 43.9601 45.08 42.0001 44.1C41.3001 43.68 40.8801 43.68 40.8801 43.68C40.4601 43.54 40.1801 43.26 40.0401 42.98C39.9001 42.7 39.9001 42.28 40.0401 41.86C40.3201 41.16 41.1601 40.74 41.8601 41.02C42.1401 41.16 49.7001 43.96 56.5601 53.48L56.8401 53.8999L56.9801 54.0399C57.2601 54.3199 57.2601 54.74 57.2601 55.16C57.1201 55.58 56.9801 55.8599 56.7001 56.1399C56.5601 56.1399 56.2801 56.2799 55.8601 56.2799Z" fill="#1363DF"/>
</g>
</svg>
