<svg width="23" height="25" viewBox="0 0 23 25" fill="none" xmlns="http://www.w3.org/2000/svg">
<g id="Frame">
<path id="Vector" d="M3.74658 6.40592C3.74658 6.64904 3.84316 6.8822 4.01507 7.05411C4.18698 7.22601 4.42013 7.32259 4.66325 7.32259C4.90636 7.32259 5.13952 7.22601 5.31143 7.05411C5.48334 6.8822 5.57992 6.64904 5.57992 6.40592C5.57992 6.16281 5.48334 5.92965 5.31143 5.75774C5.13952 5.58584 4.90636 5.48926 4.66325 5.48926C4.42013 5.48926 4.18698 5.58584 4.01507 5.75774C3.84316 5.92965 3.74658 6.16281 3.74658 6.40592Z" stroke="#7C8FAC" stroke-width="1.83333" stroke-linecap="round" stroke-linejoin="round"/>
<path id="Vector_2" d="M10.1633 6.40592C10.1633 6.64904 10.2599 6.8822 10.4318 7.05411C10.6037 7.22601 10.8369 7.32259 11.08 7.32259C11.3231 7.32259 11.5563 7.22601 11.7282 7.05411C11.9001 6.8822 11.9967 6.64904 11.9967 6.40592C11.9967 6.16281 11.9001 5.92965 11.7282 5.75774C11.5563 5.58584 11.3231 5.48926 11.08 5.48926C10.8369 5.48926 10.6037 5.58584 10.4318 5.75774C10.2599 5.92965 10.1633 6.16281 10.1633 6.40592Z" stroke="#7C8FAC" stroke-width="1.83333" stroke-linecap="round" stroke-linejoin="round"/>
<path id="Vector_3" d="M16.58 6.40592C16.58 6.64904 16.6765 6.8822 16.8484 7.05411C17.0203 7.22601 17.2535 7.32259 17.4966 7.32259C17.7397 7.32259 17.9729 7.22601 18.1448 7.05411C18.3167 6.8822 18.4133 6.64904 18.4133 6.40592C18.4133 6.16281 18.3167 5.92965 18.1448 5.75774C17.9729 5.58584 17.7397 5.48926 17.4966 5.48926C17.2535 5.48926 17.0203 5.58584 16.8484 5.75774C16.6765 5.92965 16.58 6.16281 16.58 6.40592Z" stroke="#7C8FAC" stroke-width="1.83333" stroke-linecap="round" stroke-linejoin="round"/>
<path id="Vector_4" d="M3.74658 12.8219C3.74658 13.0651 3.84316 13.2982 4.01507 13.4701C4.18698 13.642 4.42013 13.7386 4.66325 13.7386C4.90636 13.7386 5.13952 13.642 5.31143 13.4701C5.48334 13.2982 5.57992 13.0651 5.57992 12.8219C5.57992 12.5788 5.48334 12.3457 5.31143 12.1738C5.13952 12.0019 4.90636 11.9053 4.66325 11.9053C4.42013 11.9053 4.18698 12.0019 4.01507 12.1738C3.84316 12.3457 3.74658 12.5788 3.74658 12.8219Z" stroke="#7C8FAC" stroke-width="1.83333" stroke-linecap="round" stroke-linejoin="round"/>
<path id="Vector_5" d="M10.1633 12.8219C10.1633 13.0651 10.2599 13.2982 10.4318 13.4701C10.6037 13.642 10.8369 13.7386 11.08 13.7386C11.3231 13.7386 11.5563 13.642 11.7282 13.4701C11.9001 13.2982 11.9967 13.0651 11.9967 12.8219C11.9967 12.5788 11.9001 12.3457 11.7282 12.1738C11.5563 12.0019 11.3231 11.9053 11.08 11.9053C10.8369 11.9053 10.6037 12.0019 10.4318 12.1738C10.2599 12.3457 10.1633 12.5788 10.1633 12.8219Z" stroke="#7C8FAC" stroke-width="1.83333" stroke-linecap="round" stroke-linejoin="round"/>
<path id="Vector_6" d="M16.58 12.8219C16.58 13.0651 16.6765 13.2982 16.8484 13.4701C17.0203 13.642 17.2535 13.7386 17.4966 13.7386C17.7397 13.7386 17.9729 13.642 18.1448 13.4701C18.3167 13.2982 18.4133 13.0651 18.4133 12.8219C18.4133 12.5788 18.3167 12.3457 18.1448 12.1738C17.9729 12.0019 17.7397 11.9053 17.4966 11.9053C17.2535 11.9053 17.0203 12.0019 16.8484 12.1738C16.6765 12.3457 16.58 12.5788 16.58 12.8219Z" stroke="#7C8FAC" stroke-width="1.83333" stroke-linecap="round" stroke-linejoin="round"/>
<path id="Vector_7" d="M3.74658 19.2389C3.74658 19.482 3.84316 19.7152 4.01507 19.8871C4.18698 20.059 4.42013 20.1556 4.66325 20.1556C4.90636 20.1556 5.13952 20.059 5.31143 19.8871C5.48334 19.7152 5.57992 19.482 5.57992 19.2389C5.57992 18.9958 5.48334 18.7627 5.31143 18.5908C5.13952 18.4188 4.90636 18.3223 4.66325 18.3223C4.42013 18.3223 4.18698 18.4188 4.01507 18.5908C3.84316 18.7627 3.74658 18.9958 3.74658 19.2389Z" stroke="#7C8FAC" stroke-width="1.83333" stroke-linecap="round" stroke-linejoin="round"/>
<path id="Vector_8" d="M10.1633 19.2389C10.1633 19.482 10.2599 19.7152 10.4318 19.8871C10.6037 20.059 10.8369 20.1556 11.08 20.1556C11.3231 20.1556 11.5563 20.059 11.7282 19.8871C11.9001 19.7152 11.9967 19.482 11.9967 19.2389C11.9967 18.9958 11.9001 18.7627 11.7282 18.5908C11.5563 18.4188 11.3231 18.3223 11.08 18.3223C10.8369 18.3223 10.6037 18.4188 10.4318 18.5908C10.2599 18.7627 10.1633 18.9958 10.1633 19.2389Z" stroke="#7C8FAC" stroke-width="1.83333" stroke-linecap="round" stroke-linejoin="round"/>
<path id="Vector_9" d="M16.58 19.2389C16.58 19.482 16.6765 19.7152 16.8484 19.8871C17.0203 20.059 17.2535 20.1556 17.4966 20.1556C17.7397 20.1556 17.9729 20.059 18.1448 19.8871C18.3167 19.7152 18.4133 19.482 18.4133 19.2389C18.4133 18.9958 18.3167 18.7627 18.1448 18.5908C17.9729 18.4188 17.7397 18.3223 17.4966 18.3223C17.2535 18.3223 17.0203 18.4188 16.8484 18.5908C16.6765 18.7627 16.58 18.9958 16.58 19.2389Z" stroke="#7C8FAC" stroke-width="1.83333" stroke-linecap="round" stroke-linejoin="round"/>
</g>
</svg>
