<svg width="21" height="16" viewBox="0 0 21 16" fill="none" xmlns="http://www.w3.org/2000/svg">
<path id="Vector" d="M17.8326 5.85667C18.4103 5.23445 18.6992 4.51222 18.6992 3.69C18.6992 2.86778 18.4103 2.15667 17.8326 1.55667C17.2548 0.956669 16.5437 0.678891 15.6992 0.723335C15.1214 0.678891 14.6103 0.812224 14.1659 1.12334C14.077 1.16778 14.0214 1.23445 13.9992 1.32334C13.977 1.41222 13.9881 1.50111 14.0326 1.59C14.077 1.67889 14.1437 1.73445 14.2326 1.75667C14.3214 1.77889 14.4103 1.76778 14.4992 1.72334C14.8548 1.50111 15.2548 1.39 15.6992 1.39C16.3214 1.39 16.8659 1.61222 17.3326 2.05667C17.7992 2.50111 18.0326 3.03445 18.0326 3.65667C18.0326 4.05667 17.9437 4.43445 17.7659 4.79C17.5881 5.14556 17.3437 5.42334 17.0326 5.62334C16.7214 5.82334 16.3992 5.94556 16.0659 5.99C15.7326 6.03445 15.3881 6.01222 15.0326 5.92334C14.9437 5.92334 14.8659 5.94556 14.7992 5.99C14.7326 6.03445 14.6881 6.10111 14.6659 6.19C14.6437 6.27889 14.6548 6.35667 14.6992 6.42334C14.7437 6.49 14.8103 6.54556 14.8992 6.59C15.1659 6.63445 15.4326 6.65667 15.6992 6.65667C16.2326 6.65667 16.7214 6.52334 17.1659 6.25667C18.0103 6.56778 18.6992 7.10111 19.2326 7.85667C19.7659 8.61222 20.0326 9.43445 20.0326 10.3233V11.99H16.9659C16.877 10.8789 16.4992 9.86778 15.8326 8.95667C15.1659 8.04556 14.3214 7.36778 13.2992 6.92334C14.0103 6.21222 14.3659 5.35667 14.3659 4.35667C14.3659 3.35667 14.0103 2.50111 13.2992 1.79C12.5881 1.07889 11.7214 0.712224 10.6992 0.690002C9.677 0.66778 8.81033 1.02334 8.09922 1.75667C7.38811 2.49 7.03255 3.35667 7.03255 4.35667C7.03255 5.35667 7.38811 6.21222 8.09922 6.92334C7.38811 7.23445 6.76589 7.65667 6.23255 8.19C5.16589 9.25667 4.56589 10.5456 4.43255 12.0567H1.36589V10.39C1.36589 9.19 1.78811 8.16778 2.63255 7.32334C3.077 6.83445 3.61033 6.50111 4.23255 6.32334C4.677 6.54556 5.16589 6.65667 5.69922 6.65667C5.96589 6.65667 6.23255 6.63445 6.49922 6.59C6.58811 6.54556 6.65477 6.49 6.69922 6.42334C6.74366 6.35667 6.75477 6.27889 6.73255 6.19C6.71033 6.10111 6.66589 6.03445 6.59922 5.99C6.53255 5.94556 6.45477 5.92334 6.36589 5.92334C6.01033 6.01222 5.66589 6.03445 5.33255 5.99C4.99922 5.94556 4.677 5.82334 4.36589 5.62334C4.05477 5.42334 3.81033 5.14556 3.63255 4.79C3.45477 4.43445 3.36589 4.05667 3.36589 3.65667C3.36589 3.03445 3.59922 2.50111 4.06589 2.05667C4.53255 1.61222 5.077 1.39 5.69922 1.39C6.14366 1.39 6.54366 1.50111 6.89922 1.72334C6.98811 1.76778 7.077 1.77889 7.16589 1.75667C7.25477 1.73445 7.32144 1.67889 7.36589 1.59C7.41033 1.50111 7.42144 1.41222 7.39922 1.32334C7.377 1.23445 7.32144 1.16778 7.23255 1.12334C6.78811 0.812224 6.277 0.656669 5.69922 0.656669C4.85477 0.656669 4.14366 0.956669 3.56589 1.55667C2.98811 2.15667 2.69922 2.86778 2.69922 3.69C2.69922 4.51222 2.98811 5.21222 3.56589 5.79C3.03255 6.05667 2.54366 6.41222 2.09922 6.85667C1.65477 7.30111 1.31033 7.83445 1.06589 8.45667C0.821441 9.07889 0.699219 9.72334 0.699219 10.39V12.39C0.699219 12.4789 0.732552 12.5567 0.799219 12.6233C0.865885 12.69 0.943663 12.7233 1.03255 12.7233H4.36589V15.39C4.36589 15.4789 4.39922 15.5456 4.46589 15.59C4.53255 15.6344 4.61033 15.6567 4.69922 15.6567H16.6992C16.7881 15.6567 16.8659 15.6344 16.9326 15.59C16.9992 15.5456 17.0326 15.4789 17.0326 15.39V12.6567H20.3659C20.4548 12.6567 20.5326 12.6344 20.5992 12.59C20.6659 12.5456 20.6992 12.4789 20.6992 12.39V10.39C20.6992 9.36778 20.4326 8.45667 19.8992 7.65667C19.3659 6.85667 18.677 6.25667 17.8326 5.85667ZM7.69922 4.39C7.69922 3.54556 7.98811 2.83445 8.56589 2.25667C9.14366 1.67889 9.85477 1.39 10.6992 1.39C11.5437 1.39 12.2548 1.67889 12.8326 2.25667C13.4103 2.83445 13.6992 3.53445 13.6992 4.35667C13.6992 5.17889 13.4103 5.89 12.8326 6.49C12.2548 7.09 11.5437 7.39 10.6992 7.39C9.85477 7.39 9.14366 7.09 8.56589 6.49C7.98811 5.89 7.69922 5.19 7.69922 4.39ZM16.3659 14.99H5.03255V12.6567C5.03255 11.9011 5.177 11.1789 5.46589 10.49C5.75477 9.80111 6.177 9.19 6.73255 8.65667C7.28811 8.12334 7.94366 7.70111 8.69922 7.39C9.277 7.79 9.94366 7.99 10.6992 7.99C11.4548 7.99 12.1437 7.79 12.7659 7.39C13.8326 7.83445 14.6992 8.53445 15.3659 9.49C16.0326 10.4456 16.3659 11.5011 16.3659 12.6567V14.99Z" fill="black"/>
</svg>
