<svg width="20" height="21" viewBox="0 0 20 21" fill="none" xmlns="http://www.w3.org/2000/svg">
<g id="Vector">
<path d="M17.0709 3.42908C13.1655 -0.476361 6.83453 -0.476361 2.92908 3.42908C-0.976361 7.33453 -0.976361 13.6655 2.92908 17.5709C6.83453 21.4764 13.1655 21.4764 17.0709 17.5709C20.9764 13.6655 20.9756 7.33453 17.0709 3.42908ZM15.4422 8.0273L9.36563 14.1047C9.21561 14.2546 9.01217 14.3389 8.80005 14.3389C8.58793 14.3389 8.38449 14.2546 8.23447 14.1047L4.55782 10.4272C4.48355 10.3529 4.42463 10.2648 4.38443 10.1677C4.34424 10.0707 4.32355 9.96666 4.32355 9.86162C4.32355 9.64949 4.40782 9.44605 4.55782 9.29605C4.70782 9.14605 4.91126 9.06178 5.1234 9.06178C5.33553 9.06178 5.53897 9.14605 5.68897 9.29605L8.80005 12.4071L14.311 6.89534C14.3854 6.82107 14.4736 6.76217 14.5707 6.72199C14.6678 6.68181 14.7718 6.66115 14.8769 6.66119C14.982 6.66123 15.086 6.68196 15.1831 6.72221C15.2801 6.76245 15.3683 6.82142 15.4426 6.89574C15.5169 6.97007 15.5758 7.0583 15.6159 7.15539C15.6561 7.25248 15.6768 7.35653 15.6767 7.4616C15.6767 7.56668 15.656 7.67072 15.6157 7.76778C15.5755 7.86484 15.5165 7.95303 15.4422 8.0273Z" fill="#1363DF"/>
<path d="M15.4422 8.0273L9.36563 14.1047C9.21561 14.2546 9.01217 14.3389 8.80005 14.3389C8.58793 14.3389 8.38449 14.2546 8.23447 14.1047L4.55782 10.4272C4.48355 10.3529 4.42463 10.2648 4.38443 10.1677C4.34424 10.0707 4.32355 9.96666 4.32355 9.86162C4.32355 9.64949 4.40782 9.44605 4.55782 9.29605C4.70782 9.14605 4.91126 9.06178 5.1234 9.06178C5.33553 9.06178 5.53897 9.14605 5.68897 9.29605L8.80005 12.4071L14.311 6.89534C14.3854 6.82107 14.4736 6.76217 14.5707 6.72199C14.6678 6.68181 14.7718 6.66115 14.8769 6.66119C14.982 6.66123 15.086 6.68196 15.1831 6.72221C15.2801 6.76245 15.3683 6.82142 15.4426 6.89574C15.5169 6.97007 15.5758 7.0583 15.6159 7.15539C15.6561 7.25248 15.6768 7.35653 15.6767 7.4616C15.6767 7.56668 15.656 7.67072 15.6157 7.76778C15.5755 7.86484 15.5165 7.95303 15.4422 8.0273Z" fill="white"/>
</g>
</svg>
