<svg xmlns="http://www.w3.org/2000/svg" width="18" height="18" fill="none" viewBox="0 0 18 18"><path id="Vector" fill="#082A5E" fill-opacity=".7" d="M11.375 8.20837H9.625V4.70837C9.625 4.47631 9.53282 4.25375 9.36872 4.08966C9.20463 3.92556 8.98207 3.83337 8.75 3.83337C8.51794 3.83337 8.29538 3.92556 8.13129 4.08966C7.96719 4.25375 7.875 4.47631 7.875 4.70837V9.08337C7.875 9.31544 7.96719 9.538 8.13129 9.70209C8.29538 9.86619 8.51794 9.95837 8.75 9.95837H11.375C11.6071 9.95837 11.8296 9.86619 11.9937 9.70209C12.1578 9.538 12.25 9.31544 12.25 9.08337C12.25 8.85131 12.1578 8.62875 11.9937 8.46466C11.8296 8.30056 11.6071 8.20837 11.375 8.20837ZM8.75 0.333374C7.01942 0.333374 5.32769 0.846553 3.88876 1.80801C2.44983 2.76948 1.32832 4.13604 0.666058 5.73489C0.00379124 7.33375 -0.169488 9.09308 0.168133 10.7904C0.505753 12.4877 1.33911 14.0468 2.56282 15.2706C3.78653 16.4943 5.34563 17.3276 7.04296 17.6652C8.7403 18.0029 10.4996 17.8296 12.0985 17.1673C13.6973 16.5051 15.0639 15.3835 16.0254 13.9446C16.9868 12.5057 17.5 10.814 17.5 9.08337C17.4974 6.76352 16.5747 4.53942 14.9343 2.89904C13.294 1.25865 11.0699 0.335954 8.75 0.333374ZM8.75 16.0834C7.36553 16.0834 6.01216 15.6728 4.86101 14.9037C3.70987 14.1345 2.81266 13.0412 2.28285 11.7622C1.75303 10.4831 1.61441 9.07561 1.88451 7.71774C2.1546 6.35987 2.82129 5.11259 3.80026 4.13363C4.77922 3.15466 6.0265 2.48797 7.38437 2.21788C8.74224 1.94778 10.1497 2.0864 11.4288 2.61622C12.7079 3.14603 13.8011 4.04324 14.5703 5.19438C15.3395 6.34553 15.75 7.6989 15.75 9.08337C15.7479 10.9392 15.0097 12.7185 13.6974 14.0308C12.3851 15.3431 10.6059 16.0812 8.75 16.0834Z"/></svg>