<svg xmlns="http://www.w3.org/2000/svg" width="25" height="26" fill="none" viewBox="0 0 25 26"><g id="File" clip-path="url(#clip0_943_99850)"><path id="Vector" fill="#fff" fill-opacity=".7" d="M22.2656 5.80134C22.526 6.06176 22.7492 6.41518 22.9352 6.86161C23.1212 7.30804 23.2142 7.71726 23.2142 8.08929V24.1607C23.2142 24.5327 23.084 24.849 22.8236 25.1094C22.5632 25.3698 22.247 25.5 21.8749 25.5H3.12493C2.75291 25.5 2.43669 25.3698 2.17627 25.1094C1.91585 24.849 1.78564 24.5327 1.78564 24.1607V1.83929C1.78564 1.46726 1.91585 1.15104 2.17627 0.890625C2.43669 0.630208 2.75291 0.5 3.12493 0.5H15.6249C15.997 0.5 16.4062 0.593006 16.8526 0.779018C17.299 0.96503 17.6525 1.18824 17.9129 1.44866L22.2656 5.80134ZM16.0714 2.39732V7.64286H21.3169C21.2239 7.37314 21.1216 7.18248 21.01 7.07087L16.6433 2.70424C16.5317 2.59263 16.3411 2.49033 16.0714 2.39732ZM21.4285 23.7143V9.42857H15.6249C15.2529 9.42857 14.9367 9.29836 14.6763 9.03795C14.4159 8.77753 14.2856 8.46131 14.2856 8.08929V2.28571H3.57136V23.7143H21.4285ZM7.14279 11.6607C7.14279 11.5305 7.18464 11.4235 7.26834 11.3398C7.35205 11.2561 7.45901 11.2143 7.58922 11.2143H17.4106C17.5409 11.2143 17.6478 11.2561 17.7315 11.3398C17.8152 11.4235 17.8571 11.5305 17.8571 11.6607V12.5536C17.8571 12.6838 17.8152 12.7907 17.7315 12.8744C17.6478 12.9581 17.5409 13 17.4106 13H7.58922C7.45901 13 7.35205 12.9581 7.26834 12.8744C7.18464 12.7907 7.14279 12.6838 7.14279 12.5536V11.6607ZM17.4106 14.7857C17.5409 14.7857 17.6478 14.8276 17.7315 14.9113C17.8152 14.995 17.8571 15.1019 17.8571 15.2321V16.125C17.8571 16.2552 17.8152 16.3622 17.7315 16.4459C17.6478 16.5296 17.5409 16.5714 17.4106 16.5714H7.58922C7.45901 16.5714 7.35205 16.5296 7.26834 16.4459C7.18464 16.3622 7.14279 16.2552 7.14279 16.125V15.2321C7.14279 15.1019 7.18464 14.995 7.26834 14.9113C7.35205 14.8276 7.45901 14.7857 7.58922 14.7857H17.4106ZM17.4106 18.3571C17.5409 18.3571 17.6478 18.399 17.7315 18.4827C17.8152 18.5664 17.8571 18.6734 17.8571 18.8036V19.6964C17.8571 19.8266 17.8152 19.9336 17.7315 20.0173C17.6478 20.101 17.5409 20.1429 17.4106 20.1429H7.58922C7.45901 20.1429 7.35205 20.101 7.26834 20.0173C7.18464 19.9336 7.14279 19.8266 7.14279 19.6964V18.8036C7.14279 18.6734 7.18464 18.5664 7.26834 18.4827C7.35205 18.399 7.45901 18.3571 7.58922 18.3571H17.4106Z"/></g><defs><clipPath id="clip0_943_99850"><rect width="25" height="25" fill="#fff" transform="translate(0 0.5)"/></clipPath></defs></svg>