<svg width="18" height="19" viewBox="0 0 18 19" fill="none" xmlns="http://www.w3.org/2000/svg">
<g id="File" clip-path="url(#clip0_943_100027)">
<path id="Vector" d="M16.0312 4.15034C16.2187 4.33784 16.3794 4.5923 16.5133 4.91373C16.6472 5.23516 16.7142 5.5298 16.7142 5.79766V17.3691C16.7142 17.6369 16.6205 17.8646 16.433 18.0521C16.2455 18.2396 16.0178 18.3334 15.7499 18.3334H2.24993C1.98207 18.3334 1.75439 18.2396 1.56689 18.0521C1.37939 17.8646 1.28564 17.6369 1.28564 17.3691V1.29766C1.28564 1.0298 1.37939 0.802124 1.56689 0.614624C1.75439 0.427124 1.98207 0.333374 2.24993 0.333374H11.2499C11.5178 0.333374 11.8124 0.400338 12.1339 0.534267C12.4553 0.668195 12.7097 0.82891 12.8972 1.01641L16.0312 4.15034ZM11.5714 1.69945V5.47623H15.3481C15.2812 5.28203 15.2075 5.14476 15.1272 5.0644L11.9832 1.92043C11.9028 1.84007 11.7656 1.76641 11.5714 1.69945ZM15.4285 17.0477V6.76195H11.2499C10.9821 6.76195 10.7544 6.6682 10.5669 6.4807C10.3794 6.2932 10.2856 6.06552 10.2856 5.79766V1.61909H2.57136V17.0477H15.4285ZM5.14279 8.36909C5.14279 8.27534 5.17292 8.19833 5.23319 8.13806C5.29346 8.07779 5.37046 8.04766 5.46421 8.04766H12.5356C12.6294 8.04766 12.7064 8.07779 12.7667 8.13806C12.8269 8.19833 12.8571 8.27534 12.8571 8.36909V9.01195C12.8571 9.1057 12.8269 9.1827 12.7667 9.24297C12.7064 9.30324 12.6294 9.33337 12.5356 9.33337H5.46421C5.37046 9.33337 5.29346 9.30324 5.23319 9.24297C5.17292 9.1827 5.14279 9.1057 5.14279 9.01195V8.36909ZM12.5356 10.6191C12.6294 10.6191 12.7064 10.6492 12.7667 10.7095C12.8269 10.7698 12.8571 10.8468 12.8571 10.9405V11.5834C12.8571 11.6771 12.8269 11.7541 12.7667 11.8144C12.7064 11.8747 12.6294 11.9048 12.5356 11.9048H5.46421C5.37046 11.9048 5.29346 11.8747 5.23319 11.8144C5.17292 11.7541 5.14279 11.6771 5.14279 11.5834V10.9405C5.14279 10.8468 5.17292 10.7698 5.23319 10.7095C5.29346 10.6492 5.37046 10.6191 5.46421 10.6191H12.5356ZM12.5356 13.1905C12.6294 13.1905 12.7064 13.2207 12.7667 13.2809C12.8269 13.3412 12.8571 13.4182 12.8571 13.5119V14.1548C12.8571 14.2486 12.8269 14.3256 12.7667 14.3858C12.7064 14.4461 12.6294 14.4762 12.5356 14.4762H5.46421C5.37046 14.4762 5.29346 14.4461 5.23319 14.3858C5.17292 14.3256 5.14279 14.2486 5.14279 14.1548V13.5119C5.14279 13.4182 5.17292 13.3412 5.23319 13.2809C5.29346 13.2207 5.37046 13.1905 5.46421 13.1905H12.5356Z" fill="#4C4E64" fill-opacity="0.7"/>
</g>
<defs>
<clipPath id="clip0_943_100027">
<rect width="18" height="18" fill="white" transform="translate(0 0.333374)"/>
</clipPath>
</defs>
</svg>
