<svg width="19" height="14" viewBox="0 0 19 14" fill="none" xmlns="http://www.w3.org/2000/svg">
<path id="Vector" d="M6.41667 8.93752C4.27167 8.93752 0 10.01 0 12.1459V13.75H12.8333V12.1459C12.8333 10.01 8.56167 8.93752 6.41667 8.93752ZM2.145 11.9167C2.915 11.385 4.77583 10.7709 6.41667 10.7709C8.0575 10.7709 9.91833 11.385 10.6883 11.9167H2.145ZM6.41667 7.33335C8.18583 7.33335 9.625 5.89419 9.625 4.12502C9.625 2.35585 8.18583 0.916687 6.41667 0.916687C4.6475 0.916687 3.20833 2.35585 3.20833 4.12502C3.20833 5.89419 4.6475 7.33335 6.41667 7.33335ZM6.41667 2.75002C7.1775 2.75002 7.79167 3.36419 7.79167 4.12502C7.79167 4.88585 7.1775 5.50002 6.41667 5.50002C5.65583 5.50002 5.04167 4.88585 5.04167 4.12502C5.04167 3.36419 5.65583 2.75002 6.41667 2.75002ZM12.87 8.99252C13.9333 9.76252 14.6667 10.7892 14.6667 12.1459V13.75H18.3333V12.1459C18.3333 10.2942 15.125 9.24002 12.87 8.99252ZM11.9167 7.33335C13.6858 7.33335 15.125 5.89419 15.125 4.12502C15.125 2.35585 13.6858 0.916687 11.9167 0.916687C11.4217 0.916687 10.9633 1.03585 10.5417 1.23752C11.1192 2.05335 11.4583 3.05252 11.4583 4.12502C11.4583 5.19752 11.1192 6.19669 10.5417 7.01252C10.9633 7.21419 11.4217 7.33335 11.9167 7.33335Z" fill="#4C4E64" fill-opacity="0.7"/>
</svg>
