<svg width="18" height="18" viewBox="0 0 18 18" fill="none" xmlns="http://www.w3.org/2000/svg">
<path id="Vector" d="M15.3908 0.43335H2.59082C1.48802 0.43335 0.59082 1.33055 0.59082 2.43335V15.2333C0.59082 16.3361 1.48802 17.2333 2.59082 17.2333H15.3908C16.4936 17.2333 17.3908 16.3361 17.3908 15.2333V2.43335C17.3908 1.33055 16.4936 0.43335 15.3908 0.43335ZM13.7932 7.76255C13.7024 7.77095 13.6104 7.77655 13.5172 7.77655C12.468 7.77655 11.546 7.23695 11.0096 6.42135C11.0096 8.56095 11.0096 10.9953 11.0096 11.0361C11.0096 12.9197 9.48242 14.4469 7.59882 14.4469C5.71522 14.4469 4.18802 12.9197 4.18802 11.0361C4.18802 9.15255 5.71522 7.62535 7.59882 7.62535C7.67002 7.62535 7.73962 7.63175 7.80962 7.63615V9.31695C7.73962 9.30855 7.67082 9.29575 7.59882 9.29575C6.63722 9.29575 5.85802 10.0749 5.85802 11.0365C5.85802 11.9981 6.63722 12.7773 7.59882 12.7773C8.56042 12.7773 9.40962 12.0197 9.40962 11.0581C9.40962 11.0201 9.42642 3.22055 9.42642 3.22055H11.0328C11.184 4.65695 12.3436 5.79055 13.7932 5.89455V7.76255Z" fill="#082A5E"/>
</svg>
