<svg xmlns="http://www.w3.org/2000/svg" width="16" height="16" fill="none" viewBox="0 0 16 16"><path id="Vector" fill="#082A5E" d="M13.9242 0.333374C14.3662 0.333374 14.7901 0.508969 15.1027 0.821529C15.4152 1.13409 15.5908 1.55801 15.5908 2.00004V13.6667C15.5908 14.1087 15.4152 14.5327 15.1027 14.8452C14.7901 15.1578 14.3662 15.3334 13.9242 15.3334H2.25749C1.81546 15.3334 1.39154 15.1578 1.07898 14.8452C0.766415 14.5327 0.59082 14.1087 0.59082 13.6667V2.00004C0.59082 1.55801 0.766415 1.13409 1.07898 0.821529C1.39154 0.508969 1.81546 0.333374 2.25749 0.333374H13.9242ZM13.5075 13.25V8.83337C13.5075 8.11287 13.2213 7.42187 12.7118 6.9124C12.2023 6.40293 11.5113 6.11671 10.7908 6.11671C10.0825 6.11671 9.25749 6.55004 8.85749 7.20004V6.27504H6.53249V13.25H8.85749V9.14171C8.85749 8.50004 9.37415 7.97504 10.0158 7.97504C10.3252 7.97504 10.622 8.09796 10.8408 8.31675C11.0596 8.53554 11.1825 8.83229 11.1825 9.14171V13.25H13.5075ZM3.82415 4.96671C4.19546 4.96671 4.55155 4.81921 4.8141 4.55666C5.07665 4.29411 5.22415 3.93801 5.22415 3.56671C5.22415 2.79171 4.59915 2.15837 3.82415 2.15837C3.45064 2.15837 3.09243 2.30675 2.82831 2.57087C2.5642 2.83498 2.41582 3.19319 2.41582 3.56671C2.41582 4.34171 3.04915 4.96671 3.82415 4.96671ZM4.98249 13.25V6.27504H2.67415V13.25H4.98249Z"/></svg>