<svg xmlns="http://www.w3.org/2000/svg" width="10" height="18" fill="none" viewBox="0 0 10 18"><path id="Vector" fill="#082A5E" d="M7.78242 3.65946H9.63025C9.83425 3.65946 9.99981 3.4939 9.99981 3.2899V0.800135C9.99981 0.606483 9.85088 0.445352 9.65796 0.431678C9.06998 0.389918 7.92138 0.333374 7.0954 0.333374C4.8259 0.333374 3.34764 1.69337 3.34764 4.16503V6.61598H0.760679C0.556679 6.61598 0.391113 6.78155 0.391113 6.98555V9.5725C0.391113 9.7765 0.556679 9.94207 0.760679 9.94207H3.34764V16.9638C3.34764 17.1678 3.5132 17.3334 3.7172 17.3334H6.30416C6.50816 17.3334 6.67372 17.1678 6.67372 16.9638V9.94207H9.34272C9.5312 9.94207 9.68938 9.80053 9.71007 9.61316L9.99759 7.0262C10.022 6.80742 9.85051 6.61598 9.63025 6.61598H6.67372V4.76816C6.67372 4.15579 7.17005 3.65946 7.78242 3.65946Z"/></svg>