<svg xmlns="http://www.w3.org/2000/svg" width="18" height="15" fill="none" viewBox="0 0 18 15"><path id="Vector" fill="#082A5E" d="M17.591 2.41673C16.9494 2.70839 16.2577 2.90006 15.541 2.99173C16.2744 2.55006 16.8411 1.85006 17.1077 1.00839C16.4161 1.42506 15.6494 1.71673 14.841 1.88339C14.1827 1.16673 13.2577 0.750061 12.2077 0.750061C10.2494 0.750061 8.64938 2.35006 8.64938 4.32506C8.64938 4.60839 8.68272 4.88339 8.74105 5.14173C5.77438 4.99173 3.13272 3.56673 1.37438 1.40839C1.06605 1.93339 0.891048 2.55006 0.891048 3.20006C0.891048 4.44173 1.51605 5.54173 2.48272 6.16673C1.89105 6.16673 1.34105 6.00006 0.857715 5.75006C0.857715 5.75006 0.857715 5.75006 0.857715 5.77506C0.857715 7.50839 2.09105 8.95839 3.72438 9.28339C3.42438 9.36673 3.10772 9.4084 2.78272 9.4084C2.55772 9.4084 2.33272 9.3834 2.11605 9.34173C2.56605 10.7501 3.87438 11.8001 5.44938 11.8251C4.23272 12.7917 2.69105 13.3584 1.00771 13.3584C0.724382 13.3584 0.441048 13.3417 0.157715 13.3084C1.74105 14.3251 3.62438 14.9167 5.64105 14.9167C12.2077 14.9167 15.8161 9.46673 15.8161 4.74173C15.8161 4.58339 15.816 4.43339 15.8077 4.27506C16.5077 3.77506 17.1077 3.14173 17.591 2.41673Z"/></svg>