<svg width="16" height="17" viewBox="0 0 16 17" fill="none" xmlns="http://www.w3.org/2000/svg">
<g id="_x37_7_Essential_Icons">
<path id="Share" d="M12.5 10.8534C11.636 10.8534 10.862 11.2674 10.376 11.8974L6.00205 9.35939C6.27205 8.69339 6.27205 7.95539 6.00205 7.28939L10.376 4.75139C10.862 5.38139 11.636 5.79539 12.5 5.79539C13.994 5.79539 15.2 4.58939 15.2 3.09539C15.2 1.60139 13.994 0.395386 12.5 0.395386C11.006 0.395386 9.80004 1.60139 9.80004 3.09539C9.80004 3.45539 9.87204 3.81539 9.99804 4.12139L5.62405 6.67739C5.12005 6.04739 4.36405 5.63339 3.50005 5.63339C2.00605 5.63339 0.800049 6.83939 0.800049 8.33339C0.800049 9.82739 2.00605 11.0334 3.50005 11.0334C4.36405 11.0334 5.13805 10.6194 5.62405 9.98939L9.99804 12.5274C9.87204 12.8334 9.80004 13.1934 9.80004 13.5534C9.80004 15.0474 11.006 16.2534 12.5 16.2534C13.994 16.2534 15.2 15.0474 15.2 13.5534C15.2 12.0594 13.994 10.8534 12.5 10.8534ZM12.5 1.13339C13.598 1.13339 14.48 2.01539 14.48 3.11339C14.48 4.21139 13.598 5.09339 12.5 5.09339C11.402 5.09339 10.52 4.21139 10.52 3.11339C10.52 2.01539 11.402 1.13339 12.5 1.13339ZM3.50005 10.3134C2.40205 10.3134 1.52005 9.43139 1.52005 8.33339C1.52005 7.23539 2.40205 6.35339 3.50005 6.35339C4.59805 6.35339 5.48005 7.23539 5.48005 8.33339C5.48005 9.43139 4.59805 10.3134 3.50005 10.3134ZM12.5 15.5334C11.402 15.5334 10.52 14.6514 10.52 13.5534C10.52 12.4554 11.402 11.5734 12.5 11.5734C13.598 11.5734 14.48 12.4554 14.48 13.5534C14.48 14.6514 13.598 15.5334 12.5 15.5334Z" fill="#4C4E64"/>
</g>
</svg>
