<svg xmlns="http://www.w3.org/2000/svg" width="10" height="11" fill="none" viewBox="0 0 10 11"><path fill="#797979" d="M5 0.5752C4.34326 0.574335 3.69283 0.703275 3.08608 0.95461C2.47933 1.20595 1.92822 1.57472 1.46444 2.03974C-0.488148 3.99246 -0.488148 7.1586 1.46444 9.11065C2.44141 10.087 3.72037 10.5752 5 10.5752C6.27963 10.5752 7.55926 10.087 8.53556 9.11065C10.4881 7.15793 10.4881 3.99179 8.53556 2.03974C8.07178 1.57472 7.52067 1.20595 6.91392 0.95461C6.30717 0.703275 5.65674 0.574335 5 0.5752ZM8.06214 8.63721C7.66094 9.04059 7.18372 9.36039 6.6581 9.5781C6.13248 9.79581 5.56891 9.9071 5 9.90554C4.43111 9.90697 3.86757 9.79562 3.34197 9.57792C2.81638 9.36022 2.33914 9.04049 1.93786 8.63721C1.12026 7.81955 0.669613 6.73203 0.669613 5.57486C0.669613 4.41769 1.12026 3.33084 1.93786 2.51252C2.33906 2.10913 2.81628 1.78933 3.3419 1.57162C3.86752 1.35391 4.43109 1.24262 5 1.24419C6.15642 1.24419 7.24387 1.69487 8.06214 2.51252C8.88041 3.33017 9.33039 4.41836 9.33039 5.57486C9.33039 6.73136 8.87974 7.81955 8.06214 8.63721ZM6.98674 5.21794H5.31271V2.86945C5.31271 2.78064 5.27744 2.69548 5.21465 2.63269C5.15186 2.56989 5.0667 2.53462 4.9779 2.53462C4.88911 2.53462 4.80395 2.56989 4.74116 2.63269C4.67837 2.69548 4.6431 2.78064 4.6431 2.86945V5.55276C4.6431 5.64157 4.67837 5.72673 4.74116 5.78952C4.80395 5.85232 4.88911 5.88759 4.9779 5.88759H6.98674C7.07554 5.88759 7.1607 5.85232 7.22349 5.78952C7.28627 5.72673 7.32155 5.64157 7.32155 5.55276C7.32155 5.46396 7.28627 5.3788 7.22349 5.316C7.1607 5.25321 7.07554 5.21794 6.98674 5.21794Z"/></svg>