<svg width="40" height="41" viewBox="0 0 40 41" fill="none" xmlns="http://www.w3.org/2000/svg">
<rect x="0.5" y="0.882324" width="39" height="39" rx="7.5" fill="white" stroke="#C2C2C2"/>
<path d="M23.0548 18.4212C23.1231 18.5579 22.9864 18.5579 22.9181 18.5579L20.5938 19.1732C20.3888 19.3099 20.252 19.1048 20.252 19.1048C18.8165 17.3275 15.8087 18.5579 15.672 21.1556C15.5353 23.6165 18.7481 24.5736 20.252 22.1126H17.6544C17.4493 22.1126 17.1075 22.0443 17.4493 21.429L17.9962 20.2669C18.1329 19.9935 18.2013 19.9935 18.6114 19.9935H23.3966C23.3966 25.5306 17.2442 27.9915 13.963 24.6419C12.4591 23.0696 11.9806 19.515 15.0567 16.9857C17.5177 15.0032 21.6192 15.0032 23.0548 18.4212ZM24.1485 24.9837C21.0724 22.3177 22.713 16.7806 27.5665 15.8919C32.5567 15.0032 34.7442 19.6517 32.7618 23.138C31.1212 26.0775 26.7462 27.3079 24.1485 24.9837ZM30.5743 21.4974C31.1895 19.7884 29.9591 18.1478 28.1134 18.2845C26.0626 18.4896 24.627 21.1556 25.9259 22.7279C27.2247 24.2318 29.8907 23.5482 30.5743 21.4974ZM8.63096 21.3607V21.2923L8.76767 20.9505L8.90439 20.8822H11.7071L11.7755 20.9505L11.7071 21.2923L11.6388 21.3607H8.63096ZM5.34971 20.1302C5.34971 20.1302 5.21299 20.1302 5.28135 20.0618L5.55479 19.6517L5.6915 19.5833H11.9806L12.0489 19.6517L11.9122 19.9935L11.8438 20.0618L5.34971 20.1302ZM7.40049 18.8314L7.33213 18.763L7.67392 18.4212L7.81064 18.3529H12.7325V18.4212L12.5274 18.763L12.3907 18.8314H7.40049Z" fill="#0C77FF"/>
</svg>
