<svg width="35" height="35" viewBox="0 0 35 36" fill="none" xmlns="http://www.w3.org/2000/svg">
<path d="M21.0543 15.4214C21.1227 15.5581 20.9859 15.5581 20.9176 15.5581L18.5934 16.1734C18.3883 16.3101 18.2516 16.105 18.2516 16.105C16.816 14.3276 13.8082 15.5581 13.6715 18.1558C13.5348 20.6167 16.7477 21.5737 18.2516 19.1128H15.6539C15.4488 19.1128 15.107 19.0444 15.4488 18.4292L15.9957 17.2671C16.1324 16.9937 16.2008 16.9937 16.6109 16.9937H21.3961C21.3961 22.5308 15.2437 24.9917 11.9625 21.6421C10.4586 20.0698 9.98008 16.5151 13.0562 13.9859C15.5172 12.0034 19.6187 12.0034 21.0543 15.4214ZM22.148 21.9839C19.0719 19.3179 20.7125 13.7808 25.566 12.8921C30.5562 12.0034 32.7437 16.6519 30.7613 20.1382C29.1207 23.0776 24.7457 24.3081 22.148 21.9839ZM28.5738 18.4976C29.1891 16.7886 27.9586 15.148 26.1129 15.2847C24.0621 15.4898 22.6266 18.1558 23.9254 19.728C25.2242 21.2319 27.8902 20.5483 28.5738 18.4976ZM6.63047 18.3608V18.2925L6.76719 17.9507L6.9039 17.8823H9.70664L9.775 17.9507L9.70664 18.2925L9.63828 18.3608H6.63047ZM3.34922 17.1304C3.34922 17.1304 3.2125 17.1304 3.28086 17.062L3.5543 16.6519L3.69102 16.5835H9.98008L10.0484 16.6519L9.91172 16.9937L9.84336 17.062L3.34922 17.1304ZM5.4 15.8316L5.33164 15.7632L5.67344 15.4214L5.81016 15.353H10.732V15.4214L10.527 15.7632L10.3902 15.8316H5.4Z" fill="#1363DF"/>
</svg>
