<svg width="40" height="41" viewBox="0 0 40 41" fill="none" xmlns="http://www.w3.org/2000/svg">
<rect x="0.5" y="0.882324" width="39" height="39" rx="7.5" fill="white" stroke="#C2C2C2"/>
<path d="M16.4689 16.1743C16.238 15.6637 16.1344 15.0682 16.3109 14.5272C16.4872 13.9742 16.8823 13.5305 17.2774 13.1172C18.3772 12.017 19.7327 11.2087 20.8084 10.0905C21.404 9.47661 21.8962 8.74121 22.0663 7.89634C22.2062 7.27646 22.1394 6.63833 22.0118 6.02441C22.5831 6.67476 22.7715 7.60464 22.6073 8.44341C22.4312 9.3854 21.9083 10.218 21.2946 10.9352C20.8023 11.5126 20.237 12.0231 19.6475 12.4973C18.9608 13.0504 18.2862 13.6459 17.8548 14.4239C17.4899 15.0559 17.4048 15.8339 17.6541 16.5207C18.0614 17.6997 19.0093 18.575 19.526 19.6871C18.9546 19.1826 18.3956 18.66 17.8727 18.107C17.326 17.5235 16.8093 16.9037 16.4689 16.1743ZM19.5685 15.2504C19.4652 16.2168 19.9695 17.1284 20.5714 17.8457C20.863 18.1677 21.1122 18.5628 21.1242 19.0126C21.1365 19.6141 20.7963 20.1734 20.3584 20.5683C20.4619 20.5563 20.5348 20.465 20.6199 20.4165C21.2763 19.9971 21.9082 19.4683 22.2303 18.7452C22.4431 18.2529 22.3945 17.6693 22.115 17.2134C21.7867 16.6786 21.3553 16.2045 21.1001 15.6211C20.9601 15.293 20.9115 14.9101 21.027 14.5637C21.1791 14.0958 21.5072 13.7128 21.8537 13.3785C22.8078 12.473 23.9625 11.8286 25.0687 11.1237C23.6708 11.5248 22.2912 12.0779 21.1122 12.9471C20.3646 13.5062 19.6719 14.2841 19.5685 15.2504ZM26.2115 19.8209C26.874 19.8574 27.5241 20.3436 27.6458 21.0122C27.7613 21.5896 27.4818 22.1608 27.1231 22.5983C26.5335 23.3033 25.7372 23.8079 24.9352 24.2394C24.856 24.2878 24.7892 24.3486 24.7284 24.4156C25.786 24.1481 26.8434 23.7472 27.7005 23.0603C28.1743 22.6652 28.5937 22.1424 28.685 21.5164C28.7701 20.9756 28.5453 20.4164 28.1441 20.0579C27.6578 19.614 26.9712 19.45 26.3268 19.5352C25.9561 19.5838 25.5489 19.6628 25.2937 19.9728C25.5977 19.9122 25.8953 19.7905 26.2115 19.8209ZM13.0168 21.5589C13.8129 21.7717 14.6334 21.8325 15.4478 21.8873C16.1771 21.9358 16.9066 21.9481 17.642 21.9419C19.5382 21.9117 21.4465 21.7839 23.3062 21.3707C23.4824 21.3282 23.677 21.2978 23.8352 21.1884C24.1451 20.9877 24.4852 20.8297 24.8197 20.6717C23.3062 20.9148 21.7868 21.1216 20.2553 21.2188C18.7055 21.316 17.1434 21.3768 15.5877 21.2735C15.144 21.2311 14.6881 21.2066 14.2749 21.0363C14.1775 20.9938 14.0438 20.9089 14.0924 20.7811C14.1836 20.617 14.3659 20.5381 14.5239 20.453C15.1926 20.1369 15.9218 19.9607 16.633 19.7541C15.4113 19.7357 14.1957 20.0457 13.0776 20.5259C12.8283 20.6475 12.5488 20.7447 12.3483 20.9514C12.2691 21.0363 12.2691 21.1824 12.3604 21.2552C12.5427 21.4193 12.7857 21.4922 13.0168 21.5589ZM22.8627 23.2305C21.799 23.4189 20.7292 23.5953 19.6534 23.6499C18.4744 23.7289 17.2953 23.6619 16.1285 23.5404C15.9037 23.51 15.6787 23.4736 15.4782 23.3704C15.3749 23.3095 15.2717 23.2124 15.2778 23.0845C15.2898 22.884 15.4599 22.7443 15.5816 22.5984C15.2049 22.7321 14.828 22.8718 14.5119 23.1212C14.3781 23.2246 14.2445 23.3885 14.2808 23.5709C14.3358 23.7835 14.5424 23.9112 14.7247 24.0084C15.1743 24.2395 15.6788 24.3426 16.1712 24.4338C17.4169 24.6345 18.6872 24.6406 19.9391 24.5553C21.2644 24.4521 22.5831 24.2334 23.8655 23.8564C23.5008 23.6925 23.1543 23.5039 22.8627 23.2305ZM16.1832 25.3335C15.8429 25.4307 15.4964 25.5463 15.2169 25.7709C15.0769 25.8803 14.9677 26.0689 15.0346 26.2452C15.1197 26.47 15.3324 26.6039 15.5328 26.719C16.0556 27.0049 16.6451 27.1384 17.2224 27.2419C18.5293 27.4484 19.8723 27.4181 21.173 27.1872C21.9448 27.0413 22.7167 26.8346 23.4338 26.5126C22.9658 26.3181 22.5101 26.0992 22.0726 25.844C21.3129 25.9777 20.5469 26.1176 19.769 26.1662C18.742 26.2452 17.7026 26.1601 16.6755 26.0325C16.4323 25.9778 16.1285 25.9535 15.9644 25.7407C15.8795 25.5643 16.0739 25.4367 16.1832 25.3335ZM24.4975 29.2413C25.3483 29.0653 26.2054 28.8644 26.9833 28.4695C27.2262 28.3295 27.5241 28.1776 27.6033 27.886C27.6458 27.6065 27.354 27.4605 27.1474 27.345C27.275 27.4912 27.3601 27.7038 27.2323 27.8738C27.0196 28.1596 26.6551 28.2689 26.3329 28.3783C25.3241 28.664 24.2786 28.7795 23.2394 28.895C20.4863 29.1441 17.7147 29.205 14.9617 28.974C14.0379 28.8767 13.0956 28.7734 12.2144 28.4453C12.0748 28.3844 11.862 28.3236 11.862 28.1351C11.9166 27.9713 12.0748 27.8799 12.2144 27.8009C12.8465 27.4789 13.5515 27.3025 14.2565 27.26C14.0501 27.1384 13.8069 27.1263 13.5699 27.1324C12.9802 27.1506 12.4029 27.3025 11.8439 27.4912C11.3637 27.6671 10.8714 27.8618 10.4884 28.2144C10.3365 28.3479 10.1969 28.6031 10.3547 28.7856C10.5978 29.047 10.9747 29.1137 11.3088 29.1927C13.1807 29.5149 15.0769 29.697 16.9734 29.764C19.4895 29.8371 22.0239 29.7276 24.4975 29.2413ZM26.9894 29.5696C25.8467 29.9343 24.6616 30.1348 23.4824 30.2989C21.4465 30.5541 19.3922 30.6332 17.344 30.5725C16.0981 30.5239 14.8523 30.4388 13.6244 30.232C13.9101 30.4265 14.2627 30.4872 14.5909 30.5785C15.9707 30.8703 17.3866 30.925 18.7906 30.9674C20.8507 31.004 22.9111 30.925 24.9411 30.6028C25.9015 30.4329 26.8678 30.2261 27.7307 29.7763C28.1806 29.5393 28.6365 29.1744 28.7152 28.6458C28.2595 29.1319 27.6033 29.3569 26.9894 29.5696Z" fill="#0C77FF"/>
</svg>
