<svg xmlns="http://www.w3.org/2000/svg" width="25" height="25" fill="none" viewBox="0 0 25 25"><path fill="#1363DF" d="M9.46887 10.1743C9.23796 9.66372 9.13445 9.06821 9.31086 8.52725C9.48723 7.97417 9.8823 7.53052 10.2774 7.11719C11.3772 6.01704 12.7327 5.20874 13.8084 4.09053C14.404 3.47661 14.8962 2.74121 15.0663 1.89634C15.2062 1.27646 15.1394 0.63833 15.0118 0.0244141C15.5831 0.674756 15.7715 1.60464 15.6073 2.44341C15.4312 3.3854 14.9083 4.21802 14.2946 4.93516C13.8023 5.51265 13.237 6.02314 12.6475 6.49731C11.9608 7.05039 11.2862 7.64595 10.8548 8.42393C10.4899 9.05591 10.4048 9.83389 10.6541 10.5207C11.0614 11.6997 12.0093 12.575 12.526 13.6871C11.9546 13.1826 11.3956 12.66 10.8727 12.107C10.326 11.5235 9.80925 10.9037 9.46887 10.1743ZM12.5685 9.25039C12.4652 10.2168 12.9695 11.1284 13.5714 11.8457C13.863 12.1677 14.1122 12.5628 14.1242 13.0126C14.1365 13.6141 13.7963 14.1734 13.3584 14.5683C13.4619 14.5563 13.5348 14.465 13.6199 14.4165C14.2763 13.9971 14.9082 13.4683 15.2303 12.7452C15.4431 12.2529 15.3945 11.6693 15.115 11.2134C14.7867 10.6786 14.3553 10.2045 14.1001 9.62114C13.9601 9.29297 13.9115 8.91011 14.027 8.56367C14.1791 8.09575 14.5072 7.71279 14.8537 7.37852C15.8078 6.47305 16.9625 5.82856 18.0687 5.12368C16.6708 5.52476 15.2912 6.07788 14.1122 6.94707C13.3646 7.5062 12.6719 8.28408 12.5685 9.25039ZM19.2115 13.8209C19.874 13.8574 20.5241 14.3436 20.6458 15.0122C20.7613 15.5896 20.4818 16.1608 20.1231 16.5983C19.5335 17.3033 18.7372 17.8079 17.9352 18.2394C17.856 18.2878 17.7892 18.3486 17.7284 18.4156C18.786 18.1481 19.8434 17.7472 20.7005 17.0603C21.1743 16.6652 21.5937 16.1424 21.685 15.5164C21.7701 14.9756 21.5453 14.4164 21.1441 14.0579C20.6578 13.614 19.9712 13.45 19.3268 13.5352C18.9561 13.5838 18.5489 13.6628 18.2937 13.9728C18.5977 13.9122 18.8953 13.7905 19.2115 13.8209ZM6.01682 15.5589C6.81287 15.7717 7.63342 15.8325 8.44783 15.8873C9.17712 15.9358 9.90657 15.9481 10.642 15.9419C12.5382 15.9117 14.4465 15.7839 16.3062 15.3707C16.4824 15.3282 16.677 15.2978 16.8352 15.1884C17.1451 14.9877 17.4852 14.8297 17.8197 14.6717C16.3062 14.9148 14.7868 15.1216 13.2553 15.2188C11.7055 15.316 10.1434 15.3768 8.58767 15.2735C8.14402 15.2311 7.68811 15.2066 7.27488 15.0363C7.17751 14.9938 7.04377 14.9089 7.09236 14.7811C7.18362 14.617 7.36594 14.5381 7.52395 14.453C8.1926 14.1369 8.92185 13.9607 9.63298 13.7541C8.41125 13.7357 7.19568 14.0457 6.07761 14.5259C5.82834 14.6475 5.5488 14.7447 5.34832 14.9514C5.26912 15.0363 5.26912 15.1824 5.36038 15.2552C5.54275 15.4193 5.78572 15.4922 6.01682 15.5589ZM15.8627 17.2305C14.799 17.4189 13.7292 17.5953 12.6534 17.6499C11.4744 17.7289 10.2953 17.6619 9.12849 17.5404C8.90369 17.51 8.67873 17.4736 8.47825 17.3704C8.37493 17.3095 8.27165 17.2124 8.27776 17.0845C8.28982 16.884 8.45989 16.7443 8.58157 16.5984C8.20486 16.7321 7.82795 16.8718 7.51194 17.1212C7.37805 17.2246 7.24446 17.3885 7.28083 17.5709C7.33577 17.7835 7.54236 17.9112 7.72468 18.0084C8.17429 18.2395 8.67878 18.3426 9.17122 18.4338C10.4169 18.6345 11.6872 18.6406 12.9391 18.5553C14.2644 18.4521 15.5831 18.2334 16.8655 17.8564C16.5008 17.6925 16.1543 17.5039 15.8627 17.2305ZM9.18323 19.3335C8.84289 19.4307 8.49641 19.5463 8.21692 19.7709C8.07688 19.8803 7.96765 20.0689 8.03459 20.2452C8.1197 20.47 8.33245 20.6039 8.53279 20.719C9.05564 21.0049 9.64509 21.1384 10.2224 21.2419C11.5293 21.4484 12.8723 21.4181 14.173 21.1872C14.9448 21.0413 15.7167 20.8346 16.4338 20.5126C15.9658 20.3181 15.5101 20.0992 15.0726 19.844C14.3129 19.9777 13.5469 20.1176 12.769 20.1662C11.742 20.2452 10.7026 20.1601 9.67546 20.0325C9.4323 19.9778 9.12849 19.9535 8.96438 19.7407C8.87947 19.5643 9.07385 19.4367 9.18323 19.3335ZM17.4975 23.2413C18.3483 23.0653 19.2054 22.8644 19.9833 22.4695C20.2262 22.3295 20.5241 22.1776 20.6033 21.886C20.6458 21.6065 20.354 21.4605 20.1474 21.345C20.275 21.4912 20.3601 21.7038 20.2323 21.8738C20.0196 22.1596 19.6551 22.2689 19.3329 22.3783C18.3241 22.664 17.2786 22.7795 16.2394 22.895C13.4863 23.1441 10.7147 23.205 7.96169 22.974C7.03787 22.8767 6.09563 22.7734 5.21443 22.4453C5.07478 22.3844 4.86204 22.3236 4.86204 22.1351C4.91658 21.9713 5.07478 21.8799 5.21443 21.8009C5.84651 21.4789 6.55154 21.3025 7.25652 21.26C7.05007 21.1384 6.80691 21.1263 6.5699 21.1324C5.98025 21.1506 5.4029 21.3025 4.84387 21.4912C4.3637 21.6671 3.87141 21.8618 3.4884 22.2144C3.3365 22.3479 3.19685 22.6031 3.35466 22.7856C3.59783 23.047 3.97473 23.1137 4.30876 23.1927C6.18074 23.5149 8.07688 23.697 9.97336 23.764C12.4895 23.8371 15.0239 23.7276 17.4975 23.2413ZM19.9894 23.5696C18.8467 23.9343 17.6616 24.1348 16.4824 24.2989C14.4465 24.5541 12.3922 24.6332 10.344 24.5725C9.09812 24.5239 7.85227 24.4388 6.62444 24.232C6.91008 24.4265 7.26267 24.4872 7.59094 24.5785C8.97068 24.8703 10.3866 24.925 11.7906 24.9674C13.8507 25.004 15.9111 24.925 17.9411 24.6028C18.9015 24.4329 19.8678 24.2261 20.7307 23.7763C21.1806 23.5393 21.6365 23.1744 21.7152 22.6458C21.2595 23.1319 20.6033 23.3569 19.9894 23.5696Z"/></svg>