<svg width="40" height="41" viewBox="0 0 40 41" fill="none" xmlns="http://www.w3.org/2000/svg">
<rect x="0.5" y="0.887207" width="39" height="39" rx="7.5" fill="white" stroke="#C2C2C2"/>
<path d="M9.4375 10.4375V30.5625H29.5625V10.4375H9.4375ZM20.2188 26.0703C20.2188 28.0294 19.0616 28.9844 17.3864 28.9844C15.8735 28.9844 14.9952 28.201 14.5496 27.2554L16.0895 26.3232C16.3865 26.8502 16.612 27.2958 17.2602 27.2958C17.7993 27.2958 18.2422 27.0528 18.2422 26.1071V19.7812H20.2188V26.0703ZM24.6817 28.9395C22.9257 28.9395 21.791 28.1471 21.2371 27.0528L22.7793 26.1602C23.1836 26.8223 23.7114 27.2634 24.6436 27.2634C25.427 27.2634 25.8821 26.9166 25.8821 26.3762C25.8821 25.728 25.4135 25.4985 24.5488 25.1184L24.0762 24.9154C22.7115 24.335 21.8067 23.6054 21.8067 22.0651C21.8067 20.6469 22.8871 19.611 24.5757 19.611C25.7783 19.611 26.6421 19.9847 27.2643 21.079L25.7891 22.0273C25.4647 21.4465 25.1152 21.2188 24.5735 21.2188C24.0196 21.2188 23.6683 21.57 23.6683 22.0273C23.6683 22.5947 24.0196 22.8243 24.83 23.1755L25.3026 23.3781C26.9103 24.0672 27.8155 24.7707 27.8155 26.3502C27.8159 28.0527 26.4786 28.9395 24.6817 28.9395Z" fill="#0C77FF"/>
</svg>
