<svg width="23" height="23" viewBox="0 0 23 23" fill="none" xmlns="http://www.w3.org/2000/svg">
<path d="M1.4375 1.43726V21.5623H21.5625V1.43726H1.4375ZM12.2188 17.0701C12.2188 19.0291 11.0616 19.9841 9.38643 19.9841C7.87346 19.9841 6.99523 19.2007 6.54961 18.2551L8.08953 17.323C8.38647 17.8499 8.61197 18.2955 9.2602 18.2955C9.79926 18.2955 10.2422 18.0525 10.2422 17.1069V10.781H12.2188V17.0701ZM16.6817 19.9392C14.9257 19.9392 13.791 19.1468 13.2371 18.0525L14.7793 17.1599C15.1836 17.8221 15.7114 18.2632 16.6436 18.2632C17.427 18.2632 17.8821 17.9164 17.8821 17.376C17.8821 16.7278 17.4135 16.4982 16.5488 16.1182L16.0762 15.9151C14.7115 15.3347 13.8067 14.6052 13.8067 13.0648C13.8067 11.6467 14.8871 10.6108 16.5757 10.6108C17.7783 10.6108 18.6421 10.9845 19.2643 12.0788L17.7891 13.0271C17.4647 12.4463 17.1152 12.2185 16.5735 12.2185C16.0196 12.2185 15.6683 12.5698 15.6683 13.0271C15.6683 13.5945 16.0196 13.824 16.83 14.1753L17.3026 14.3779C18.9103 15.067 19.8155 15.7705 19.8155 17.3499C19.8159 19.0525 18.4786 19.9392 16.6817 19.9392Z" fill="#1363DF"/>
</svg>
