<svg width="40" height="41" viewBox="0 0 40 41" fill="none" xmlns="http://www.w3.org/2000/svg">
<rect x="0.5" y="0.884766" width="39" height="39" rx="7.5" fill="white" stroke="#C2C2C2"/>
<g clip-path="url(#clip0_403_97119)">
<path d="M20 31.5362C19.6894 31.5362 19.3996 31.4534 19.1304 31.3085L16.3768 29.6729C15.9627 29.4451 16.1698 29.3623 16.294 29.3209C16.853 29.1346 16.9565 29.0932 17.5362 28.7619C17.5983 28.7205 17.6812 28.7412 17.7433 28.7826L19.8551 30.0455C19.9379 30.0869 20.0414 30.0869 20.1035 30.0455L28.3644 25.2629C28.4472 25.2215 28.4886 25.1387 28.4886 25.0352V15.4907C28.4886 15.3872 28.4472 15.3043 28.3644 15.2629L20.1035 10.501C20.0207 10.4596 19.9172 10.4596 19.8551 10.501L11.5942 15.2629C11.5114 15.3043 11.47 15.4079 11.47 15.4907V25.0352C11.47 25.118 11.5114 25.2215 11.5942 25.2629L13.8509 26.5673C15.0725 27.1884 15.8385 26.4638 15.8385 25.7391V16.3188C15.8385 16.1946 15.942 16.0704 16.087 16.0704H17.1429C17.2671 16.0704 17.3913 16.1739 17.3913 16.3188V25.7391C17.3913 27.3747 16.501 28.3271 14.9482 28.3271C14.472 28.3271 14.0994 28.3271 13.0435 27.8095L10.8696 26.5673C10.3313 26.2567 10 25.677 10 25.0559V15.5114C10 14.8903 10.3313 14.3106 10.8696 14L19.1304 9.21739C19.648 8.92754 20.352 8.92754 20.8696 9.21739L29.1304 14C29.6687 14.3106 30 14.8903 30 15.5114V25.0559C30 25.677 29.6687 26.2567 29.1304 26.5673L20.8696 31.3499C20.6004 31.4741 20.2899 31.5362 20 31.5362ZM22.5466 24.9731C18.9234 24.9731 18.1781 23.3168 18.1781 21.9089C18.1781 21.7847 18.2816 21.6604 18.4265 21.6604H19.5031C19.6273 21.6604 19.7308 21.7433 19.7308 21.8675C19.8965 22.9648 20.3727 23.5031 22.5673 23.5031C24.3064 23.5031 25.0518 23.1097 25.0518 22.178C25.0518 21.6397 24.8447 21.2464 22.1325 20.9772C19.8758 20.7495 18.4679 20.2526 18.4679 18.4513C18.4679 16.7743 19.8758 15.7805 22.236 15.7805C24.8861 15.7805 26.1905 16.6915 26.3561 18.6791C26.3561 18.7412 26.3354 18.8033 26.294 18.8654C26.2526 18.9068 26.1905 18.9482 26.1284 18.9482H25.0518C24.9482 18.9482 24.8447 18.8654 24.824 18.7619C24.5756 17.6232 23.9337 17.2505 22.236 17.2505C20.3313 17.2505 20.1035 17.913 20.1035 18.4099C20.1035 19.0103 20.3727 19.1967 22.94 19.5279C25.4865 19.8592 26.6874 20.3354 26.6874 22.1159C26.6667 23.9379 25.176 24.9731 22.5466 24.9731Z" fill="#0C77FF"/>
</g>
<defs>
<clipPath id="clip0_403_97119">
<rect width="20" height="22.5781" fill="white" transform="translate(10 9)"/>
</clipPath>
</defs>
</svg>
