<svg xmlns="http://www.w3.org/2000/svg" width="20" height="23" fill="none" viewBox="0 0 20 23"><g clip-path="url(#clip0_943_100426)"><path fill="#1363DF" d="M10 22.5361C9.68944 22.5361 9.39959 22.4533 9.13043 22.3084L6.37681 20.6727C5.96273 20.445 6.16977 20.3622 6.294 20.3208C6.853 20.1344 6.95652 20.093 7.53623 19.7618C7.59834 19.7204 7.68116 19.7411 7.74327 19.7825L9.85507 21.0454C9.93789 21.0868 10.0414 21.0868 10.1035 21.0454L18.3644 16.2628C18.4472 16.2214 18.4886 16.1386 18.4886 16.0351V6.49056C18.4886 6.38704 18.4472 6.30422 18.3644 6.26281L10.1035 1.50091C10.0207 1.4595 9.91718 1.4595 9.85507 1.50091L1.5942 6.26281C1.51139 6.30422 1.46998 6.40774 1.46998 6.49056V16.0351C1.46998 16.1179 1.51139 16.2214 1.5942 16.2628L3.85093 17.5672C5.07246 18.1883 5.83851 17.4636 5.83851 16.739V7.31871C5.83851 7.19449 5.94203 7.07027 6.08696 7.07027H7.14286C7.26708 7.07027 7.3913 7.17379 7.3913 7.31871V16.739C7.3913 18.3746 6.50104 19.327 4.94824 19.327C4.47205 19.327 4.09938 19.327 3.04348 18.8094L0.869565 17.5672C0.331263 17.2566 0 16.6769 0 16.0558V6.51126C0 5.89014 0.331263 5.31043 0.869565 4.99988L9.13043 0.217269C9.64803 -0.0725858 10.352 -0.0725858 10.8696 0.217269L19.1304 4.99988C19.6687 5.31043 20 5.89014 20 6.51126V16.0558C20 16.6769 19.6687 17.2566 19.1304 17.5672L10.8696 22.3498C10.6004 22.474 10.2899 22.5361 10 22.5361ZM12.5466 15.973C8.9234 15.973 8.17805 14.3166 8.17805 12.9088C8.17805 12.7845 8.28157 12.6603 8.4265 12.6603H9.50311C9.62733 12.6603 9.73085 12.7431 9.73085 12.8674C9.89648 13.9647 10.3727 14.503 12.5673 14.503C14.3064 14.503 15.0518 14.1096 15.0518 13.1779C15.0518 12.6396 14.8447 12.2462 12.1325 11.9771C9.87578 11.7494 8.46791 11.2525 8.46791 9.45122C8.46791 7.7742 9.87578 6.78041 12.236 6.78041C14.8861 6.78041 16.1905 7.69139 16.3561 9.67896C16.3561 9.74107 16.3354 9.80319 16.294 9.8653C16.2526 9.9067 16.1905 9.94811 16.1284 9.94811H15.0518C14.9482 9.94811 14.8447 9.8653 14.824 9.76178C14.5756 8.62306 13.9337 8.25039 12.236 8.25039C10.3313 8.25039 10.1035 8.91292 10.1035 9.40981C10.1035 10.0102 10.3727 10.1966 12.94 10.5278C15.4865 10.8591 16.6874 11.3353 16.6874 13.1158C16.6667 14.9378 15.176 15.973 12.5466 15.973Z"/></g><defs><clipPath id="clip0_943_100426"><rect width="20" height="22.578" fill="#fff"/></clipPath></defs></svg>