<svg width="50" height="51" viewBox="0 0 50 51" fill="none" xmlns="http://www.w3.org/2000/svg">
<path d="M1.52588e-05 25.5783C1.52588e-05 18.9478 2.63393 12.589 7.32234 7.90059C12.0107 3.21218 18.3696 0.578262 25 0.578262C28.2831 0.578262 31.534 1.2249 34.5671 2.48127C37.6002 3.73764 40.3562 5.57912 42.6777 7.90059C47.3661 12.589 50 18.9478 50 25.5783C50 32.2087 47.3661 38.5675 42.6777 43.2559C37.9893 47.9443 31.6304 50.5782 25 50.5782C21.717 50.5782 18.4661 49.9316 15.4329 48.6752C12.3998 47.4189 9.64381 45.5774 7.32234 43.2559C5.00088 40.9345 3.15939 38.1785 1.90302 35.1453C0.646656 32.1122 1.52588e-05 28.8613 1.52588e-05 25.5783ZM30 10.5783L15 25.5783L30 40.5782L33.5 37.0783L22 25.5783L33.5 14.0783L30 10.5783Z" fill="black"/>
</svg>
