<svg width="40" height="41" viewBox="0 0 40 41" fill="none" xmlns="http://www.w3.org/2000/svg">
<rect x="0.5" y="0.884766" width="39" height="39" rx="7.5" fill="white" stroke="#C2C2C2"/>
<path d="M17.6429 12.1429H19.2143M15.2857 14.5V10.5714C15.2857 9.70355 15.9893 9 16.8571 9H23.1429C24.0108 9 24.7143 9.70355 24.7143 10.5714V18.4286C24.7143 19.2964 24.0108 20 23.1429 20H16.8571C15.9893 20 15.2857 20.7036 15.2857 21.5714V29.4286C15.2857 30.2965 15.9893 31 16.8571 31H23.1429C24.0108 31 24.7143 30.2965 24.7143 29.4286V25.5M20.7857 15.2857H10.5714C9.70355 15.2857 9 15.9893 9 16.8571V24.7143C9 25.5822 9.70355 26.2857 10.5714 26.2857H15.2857M19.2143 24.7143H29.4286C30.2965 24.7143 31 24.0108 31 23.1429V15.2857C31 14.4178 30.2965 13.7143 29.4286 13.7143H24.7143M20.7857 27.8571H22.3571" stroke="#0C77FF" stroke-width="1.3"/>
</svg>
