<svg width="24" height="24" viewBox="0 0 24 24" fill="none" xmlns="http://www.w3.org/2000/svg">
<path d="M9.64286 4.14274H11.2143M7.28571 6.49988V2.57131C7.28571 1.70343 7.98927 0.999878 8.85714 0.999878H15.1429C16.0108 0.999878 16.7143 1.70343 16.7143 2.57131V10.4284C16.7143 11.2963 16.0108 11.9999 15.1429 11.9999H8.85714C7.98927 11.9999 7.28571 12.7034 7.28571 13.5713V21.4284C7.28571 22.2963 7.98927 22.9999 8.85714 22.9999H15.1429C16.0108 22.9999 16.7143 22.2963 16.7143 21.4284V17.4999M12.7857 7.28559H2.57143C1.70355 7.28559 1 7.98915 1 8.85702V16.7142C1 17.5821 1.70355 18.2856 2.57143 18.2856H7.28571M11.2143 16.7142H21.4286C22.2965 16.7142 23 16.0106 23 15.1427V7.28559C23 6.41772 22.2965 5.71416 21.4286 5.71416H16.7143M12.7857 19.857H14.3571" stroke="#1363DF" stroke-width="1.3"/>
</svg>
