<svg width="30" height="30" viewBox="0 0 30 30" fill="none" xmlns="http://www.w3.org/2000/svg">
<path d="M13.8787 13.0472C13.4963 13.2679 13.188 13.5971 12.9927 13.9931C12.7974 14.3891 12.724 14.8342 12.7816 15.2719C12.8392 15.7097 13.0254 16.1205 13.3165 16.4525C13.6077 16.7844 13.9907 17.0226 14.4172 17.1369C14.8437 17.2511 15.2945 17.2364 15.7126 17.0944C16.1307 16.9525 16.4973 16.6897 16.7661 16.3394C17.0348 15.9891 17.1937 15.567 17.2226 15.1264C17.2514 14.6858 17.149 14.2466 16.9282 13.8642C16.6321 13.3515 16.1445 12.9774 15.5727 12.8242C15.0008 12.671 14.3915 12.7512 13.8787 13.0472ZM23.8846 15.4693C23.738 15.3018 23.5834 15.1338 23.4207 14.9654C23.5343 14.8459 23.6443 14.7266 23.7507 14.6073C25.7579 12.352 26.6051 10.0902 25.8201 8.73038C25.0674 7.42663 22.8283 7.03811 20.0252 7.58314C19.7491 7.63716 19.4745 7.69809 19.2015 7.76594C19.1492 7.58574 19.0936 7.40658 19.0347 7.22844C18.0837 4.36278 16.5476 2.49877 14.9776 2.49976C13.472 2.50044 12.017 4.24612 11.0887 6.94663C10.9974 7.21304 10.9129 7.48167 10.8353 7.75252C10.6527 7.70773 10.4694 7.66635 10.2853 7.62839C7.32778 7.02117 4.94569 7.42109 4.16223 8.78164C3.41098 10.0863 4.19664 12.2189 6.07287 14.3718C6.25894 14.5848 6.45028 14.793 6.64689 14.9965C6.41512 15.2352 6.19564 15.4738 5.99108 15.7111C4.16033 17.8336 3.41959 19.9313 4.16963 21.2304C4.94424 22.5722 7.2928 23.0108 10.1514 22.4483C10.383 22.4024 10.6134 22.3507 10.8425 22.2933C10.9265 22.5863 11.0185 22.8767 11.1187 23.1646C12.0429 25.8109 13.4898 27.5004 14.99 27.4998C16.5393 27.4989 18.0924 25.6837 19.0334 22.9264C19.1077 22.7085 19.1781 22.4822 19.2447 22.2492C19.5407 22.3228 19.8385 22.3882 20.1383 22.4452C22.8925 22.9663 25.0789 22.5565 25.8276 21.2565C26.6007 19.9136 25.8036 17.6614 23.8846 15.4693ZM5.08772 9.31456C5.57004 8.47706 7.51677 8.15032 10.0703 8.67456C10.2335 8.70811 10.3995 8.74562 10.5683 8.78706C10.319 9.88989 10.1431 11.008 10.0417 12.1341C9.12034 12.7823 8.24188 13.4895 7.41185 14.2511C7.22898 14.062 7.05099 13.8683 6.87788 13.67C5.27029 11.8254 4.63498 10.1008 5.08772 9.31456ZM9.94604 16.4747C9.30784 15.9914 8.71473 15.4964 8.1764 14.9984C8.71435 14.5036 9.30784 14.0102 9.94474 13.5282C9.92186 14.0192 9.91052 14.5105 9.91072 15.0022C9.91106 15.4932 9.92283 15.984 9.94604 16.4747ZM9.94528 21.4004C8.86186 21.6413 7.74335 21.6808 6.64564 21.5169C6.34472 21.4934 6.05181 21.4085 5.78499 21.2674C5.51818 21.1263 5.28314 20.932 5.09439 20.6965C4.6393 19.9081 5.23409 18.224 6.79979 16.4087C6.99663 16.1812 7.19993 15.9596 7.40968 15.744C8.23984 16.5097 9.11972 17.2196 10.0436 17.8691C10.1463 19.0096 10.3243 20.1421 10.5763 21.2591C10.3672 21.3114 10.1568 21.3585 9.94528 21.4004ZM18.8217 11.3512C18.4025 11.0871 17.978 10.8314 17.5484 10.5842C17.1257 10.3408 16.6978 10.1066 16.2649 9.88158C17.0062 9.56992 17.7348 9.30373 18.4382 9.08682C18.6041 9.83469 18.732 10.5905 18.8217 11.3512ZM12.0987 7.29377C12.894 4.97984 14.0708 3.56811 14.9781 3.56772C15.9445 3.56726 17.2 5.09054 18.021 7.56476C18.0744 7.72605 18.1248 7.88825 18.1723 8.05136C17.0937 8.3859 16.0384 8.79145 15.0133 9.26536C13.9926 8.78588 12.9406 8.3758 11.8646 8.03793C11.9365 7.788 12.0146 7.53994 12.0987 7.29377ZM11.5983 9.07351C12.332 9.3045 13.0536 9.57234 13.7604 9.87601C12.8847 10.3279 12.0316 10.8202 11.2012 11.3528C11.3015 10.5553 11.435 9.79117 11.5983 9.07351ZM11.203 18.6494C11.6171 18.9145 12.0373 19.1698 12.4635 19.4153C12.8983 19.6656 13.3389 19.9054 13.7852 20.1347C13.0731 20.4489 12.3453 20.7263 11.6047 20.9659C11.4395 20.2383 11.3045 19.4607 11.203 18.6494ZM18.0226 22.5812C17.69 23.6402 17.1654 24.6288 16.475 25.4978C16.3044 25.7467 16.0844 25.9581 15.8289 26.1187C15.5734 26.2793 15.2877 26.3858 14.9894 26.4316C14.0791 26.4322 12.9173 25.0754 12.127 22.8123C12.0339 22.5448 11.9483 22.2748 11.8701 22.0023C12.9512 21.6535 14.0075 21.2319 15.0316 20.7402C16.0651 21.2172 17.1287 21.6258 18.2158 21.9633C18.1564 22.1708 18.092 22.3768 18.0226 22.5812ZM18.4754 20.926C17.7639 20.706 17.0247 20.4353 16.2727 20.1191C16.6966 19.896 17.1236 19.6604 17.5536 19.4123C17.9949 19.1575 18.425 18.8963 18.8437 18.6287C18.7603 19.4003 18.6374 20.167 18.4754 20.926ZM19.0333 14.9976C19.0342 15.7567 19.0105 16.5153 18.9622 17.2732C18.3463 17.69 17.6961 18.0969 17.0197 18.4875C16.346 18.8764 15.6785 19.2338 15.0237 19.5573C14.3347 19.2271 13.659 18.8713 12.9965 18.4898C12.3378 18.1107 11.6942 17.7069 11.0657 17.2786C11.0082 16.5209 10.9793 15.7619 10.9789 15.0014C10.9783 14.2415 11.0068 13.4827 11.0639 12.7244C11.6796 12.3039 12.3251 11.8973 12.9924 11.512C13.6628 11.1249 14.3387 10.769 15.0108 10.4464C15.6913 10.7771 16.3596 11.1316 17.0155 11.5097C17.6738 11.888 18.3192 12.2875 18.9518 12.708C19.0061 13.4701 19.0332 14.2333 19.0333 14.9976ZM20.2292 8.63158C22.6308 8.16443 24.4417 8.47868 24.8953 9.26436C25.3786 10.1014 24.686 11.95 22.953 13.8973C22.8573 14.0047 22.7579 14.1127 22.6549 14.221C21.8105 13.4577 20.9151 12.7528 19.975 12.1112C19.8801 10.9974 19.7108 9.89121 19.4682 8.80003C19.7268 8.73641 19.9804 8.68026 20.2292 8.63158ZM20.0668 13.4875C20.701 13.9505 21.3107 14.4461 21.8935 14.9723C21.3133 15.5071 20.7055 16.0112 20.0726 16.4826C20.092 15.9877 20.1015 15.4925 20.1012 14.9971C20.101 14.4938 20.0895 13.9906 20.0668 13.4875ZM24.9019 20.7234C24.4476 21.5124 22.6921 21.8413 20.3367 21.3957C20.0667 21.3447 19.7898 21.2841 19.5057 21.2137C19.7425 20.1085 19.9043 18.9886 19.9901 17.8615C20.9287 17.2087 21.8212 16.4921 22.6614 15.7167C22.8084 15.8694 22.9483 16.0215 23.081 16.1728C23.8323 16.9897 24.4268 17.9379 24.8348 18.9701C24.9653 19.2422 25.0385 19.5382 25.0501 19.8398C25.0616 20.1414 25.0112 20.4421 24.9019 20.7234Z" fill="#1363DF"/>
</svg>
