<svg width="40" height="41" viewBox="0 0 40 41" fill="none" xmlns="http://www.w3.org/2000/svg">
<rect x="0.5" y="0.887207" width="39" height="39" rx="7.5" fill="white" stroke="#C2C2C2"/>
<path d="M18.8787 18.0474C18.4963 18.2682 18.188 18.5974 17.9927 18.9934C17.7974 19.3894 17.724 19.8344 17.7816 20.2722C17.8392 20.7099 18.0254 21.1207 18.3165 21.4527C18.6077 21.7847 18.9907 22.0228 19.4172 22.1371C19.8437 22.2514 20.2945 22.2366 20.7126 22.0947C21.1307 21.9527 21.4973 21.69 21.7661 21.3397C22.0348 20.9894 22.1937 20.5672 22.2226 20.1267C22.2514 19.6861 22.149 19.2468 21.9282 18.8644C21.6321 18.3517 21.1445 17.9776 20.5727 17.8244C20.0008 17.6712 19.3915 17.7514 18.8787 18.0474ZM28.8846 20.4695C28.738 20.302 28.5834 20.1341 28.4207 19.9657C28.5343 19.8462 28.6443 19.7268 28.7507 19.6075C30.7579 17.3522 31.6051 15.0904 30.8201 13.7306C30.0674 12.4269 27.8283 12.0384 25.0252 12.5834C24.7491 12.6374 24.4745 12.6983 24.2015 12.7662C24.1492 12.586 24.0936 12.4068 24.0347 12.2287C23.0837 9.36303 21.5476 7.49901 19.9776 7.5C18.472 7.50069 17.017 9.24636 16.0887 11.9469C15.9974 12.2133 15.9129 12.4819 15.8353 12.7528C15.6527 12.708 15.4694 12.6666 15.2853 12.6286C12.3278 12.0214 9.94569 12.4213 9.16223 13.7819C8.41098 15.0866 9.19664 17.2192 11.0729 19.372C11.2589 19.585 11.4503 19.7933 11.6469 19.9967C11.4151 20.2355 11.1956 20.4741 10.9911 20.7114C9.16033 22.8339 8.41959 24.9316 9.16963 26.2306C9.94424 27.5725 12.2928 28.0111 15.1514 27.4486C15.383 27.4027 15.6134 27.351 15.8425 27.2936C15.9265 27.5865 16.0185 27.877 16.1187 28.1648C17.0429 30.8111 18.4898 32.5006 19.99 32.5001C21.5393 32.4992 23.0924 30.684 24.0334 27.9266C24.1077 27.7087 24.1781 27.4825 24.2447 27.2495C24.5407 27.3231 24.8385 27.3884 25.1383 27.4454C27.8925 27.9665 30.0789 27.5567 30.8276 26.2567C31.6007 24.9139 30.8036 22.6617 28.8846 20.4695ZM10.0877 14.3148C10.57 13.4773 12.5168 13.1506 15.0703 13.6748C15.2335 13.7084 15.3995 13.7459 15.5683 13.7873C15.319 14.8901 15.1431 16.0083 15.0417 17.1344C14.1203 17.7826 13.2419 18.4897 12.4119 19.2514C12.229 19.0623 12.051 18.8686 11.8779 18.6703C10.2703 16.8256 9.63498 15.101 10.0877 14.3148ZM14.946 21.4749C14.3078 20.9917 13.7147 20.4966 13.1764 19.9987C13.7144 19.5038 14.3078 19.0104 14.9447 18.5285C14.9219 19.0194 14.9105 19.5108 14.9107 20.0025C14.9111 20.4935 14.9228 20.9843 14.946 21.4749ZM14.9453 26.4007C13.8619 26.6416 12.7433 26.681 11.6456 26.5171C11.3447 26.4937 11.0518 26.4088 10.785 26.2677C10.5182 26.1266 10.2831 25.9322 10.0944 25.6967C9.6393 24.9084 10.2341 23.2242 11.7998 21.4089C11.9966 21.1814 12.1999 20.9599 12.4097 20.7442C13.2398 21.5099 14.1197 22.2198 15.0436 22.8693C15.1463 24.0098 15.3243 25.1423 15.5763 26.2593C15.3672 26.3116 15.1568 26.3588 14.9453 26.4007ZM23.8217 16.3515C23.4025 16.0873 22.978 15.8316 22.5484 15.5844C22.1257 15.3411 21.6978 15.1069 21.2649 14.8818C22.0062 14.5702 22.7348 14.304 23.4382 14.0871C23.6041 14.8349 23.732 15.5907 23.8217 16.3515ZM17.0987 12.294C17.894 9.98009 19.0708 8.56835 19.9781 8.56796C20.9445 8.5675 22.2 10.0908 23.021 12.565C23.0744 12.7263 23.1248 12.8885 23.1723 13.0516C22.0937 13.3861 21.0384 13.7917 20.0133 14.2656C18.9926 13.7861 17.9406 13.376 16.8646 13.0382C16.9365 12.7882 17.0146 12.5402 17.0987 12.294ZM16.5983 14.0738C17.332 14.3047 18.0536 14.5726 18.7604 14.8763C17.8847 15.3282 17.0316 15.8204 16.2012 16.353C16.3015 15.5555 16.435 14.7914 16.5983 14.0738ZM16.203 23.6496C16.6171 23.9147 17.0373 24.17 17.4635 24.4155C17.8983 24.6658 18.3389 24.9057 18.7852 25.135C18.0731 25.4491 17.3453 25.7266 16.6047 25.9661C16.4395 25.2385 16.3045 24.461 16.203 23.6496ZM23.0226 27.5815C22.69 28.6404 22.1654 29.6291 21.475 30.498C21.3044 30.747 21.0844 30.9583 20.8289 31.1189C20.5734 31.2796 20.2877 31.3861 19.9894 31.4319C19.0791 31.4324 17.9173 30.0756 17.127 27.8126C17.0339 27.545 16.9483 27.275 16.8701 27.0026C17.9512 26.6538 19.0075 26.2321 20.0316 25.7404C21.0651 26.2174 22.1287 26.626 23.2158 26.9636C23.1564 27.171 23.092 27.377 23.0226 27.5815ZM23.4754 25.9262C22.7639 25.7062 22.0247 25.4356 21.2727 25.1193C21.6966 24.8962 22.1236 24.6606 22.5536 24.4125C22.9949 24.1577 23.425 23.8965 23.8437 23.6289C23.7603 24.4005 23.6374 25.1672 23.4754 25.9262ZM24.0333 19.9979C24.0342 20.757 24.0105 21.5155 23.9622 22.2734C23.3463 22.6902 22.6961 23.0972 22.0197 23.4877C21.346 23.8766 20.6785 24.2341 20.0237 24.5576C19.3347 24.2274 18.659 23.8715 17.9965 23.4901C17.3378 23.1109 16.6942 22.7072 16.0657 22.2788C16.0082 21.5211 15.9793 20.7621 15.9789 20.0017C15.9783 19.2418 16.0068 18.4829 16.0639 17.7246C16.6796 17.3042 17.3251 16.8975 17.9924 16.5122C18.6628 16.1251 19.3387 15.7692 20.0108 15.4466C20.6913 15.7774 21.3596 16.1318 22.0155 16.5099C22.6738 16.8883 23.3192 17.2877 23.9518 17.7083C24.0061 18.4703 24.0332 19.2335 24.0333 19.9979ZM25.2292 13.6318C27.6308 13.1647 29.4417 13.4789 29.8953 14.2646C30.3786 15.1016 29.686 16.9502 27.953 18.8976C27.8573 19.005 27.7579 19.1129 27.6549 19.2213C26.8105 18.458 25.9151 17.7531 24.975 17.1114C24.8801 15.9976 24.7108 14.8915 24.4682 13.8003C24.7268 13.7367 24.9804 13.6805 25.2292 13.6318ZM25.0668 18.4877C25.701 18.9507 26.3107 19.4463 26.8935 19.9725C26.3133 20.5073 25.7055 21.0115 25.0726 21.4829C25.092 20.988 25.1015 20.4928 25.1012 19.9974C25.101 19.494 25.0895 18.9908 25.0668 18.4877ZM29.9019 25.7236C29.4476 26.5126 27.6921 26.8416 25.3367 26.396C25.0667 26.345 24.7898 26.2843 24.5057 26.214C24.7425 25.1088 24.9043 23.9888 24.9901 22.8618C25.9287 22.209 26.8212 21.4923 27.6614 20.7169C27.8084 20.8697 27.9483 21.0217 28.081 21.173C28.8323 21.99 29.4268 22.9381 29.8348 23.9703C29.9653 24.2425 30.0385 24.5385 30.0501 24.84C30.0616 25.1416 30.0112 25.4423 29.9019 25.7236Z" fill="#0C77FF"/>
</svg>
