<svg xmlns="http://www.w3.org/2000/svg" width="102" height="57" fill="none" viewBox="0 0 102 57"><rect width="100.147" height="55.138" x=".5" y=".868" fill="#fff" stroke="#DEDEDE" rx="5.5"/><path fill="#1778F2" fill-rule="evenodd" d="M66 28.0917C66 19.7568 59.2843 13 51 13C42.7157 13 36 19.7568 36 28.0917C36 35.6244 41.4853 41.8678 48.6562 43V32.4541H44.8477V28.0917H48.6562V24.7668C48.6562 20.9844 50.8956 18.8952 54.322 18.8952C55.9631 18.8952 57.6797 19.1899 57.6797 19.1899V22.9039H55.7882C53.9249 22.9039 53.3438 24.0672 53.3438 25.2607V28.0917H57.5039L56.8389 32.4541H53.3438V43C60.5147 41.8678 66 35.6244 66 28.0917Z" clip-rule="evenodd"/></svg>