<svg width="30" height="30" viewBox="0 0 30 30" fill="none" xmlns="http://www.w3.org/2000/svg">
<path fill-rule="evenodd" clip-rule="evenodd" d="M30.0005 15.0916C30.0005 6.7567 23.2848 -6.10352e-05 15.0005 -6.10352e-05C6.71621 -6.10352e-05 0.000488281 6.7567 0.000488281 15.0916C0.000488281 22.6243 5.48577 28.8678 12.6567 29.9999V19.454H8.84814V15.0916H12.6567V11.7667C12.6567 7.98438 14.8961 5.89512 18.3225 5.89512C19.9636 5.89512 21.6802 6.18988 21.6802 6.18988V9.90385H19.7887C17.9253 9.90385 17.3442 11.0672 17.3442 12.2607V15.0916H21.5044L20.8394 19.454H17.3442V29.9999C24.5152 28.8678 30.0005 22.6243 30.0005 15.0916Z" fill="#1778F2"/>
</svg>
