<svg width="30" height="30" viewBox="0 0 30 30" fill="none" xmlns="http://www.w3.org/2000/svg">
<path d="M15.0004 0C11.4387 0.000151434 7.99317 1.29973 5.28044 3.66621C2.56771 6.03269 0.764775 9.31163 0.194228 12.9163C-0.37632 16.5211 0.322754 20.2163 2.16636 23.3409C4.00997 26.4655 6.87781 28.8156 10.2567 29.9706C11.0067 30.1052 11.288 29.6438 11.288 29.24C11.288 28.8748 11.2692 27.6637 11.2692 26.3756C7.50048 27.0869 6.52548 25.4337 6.22549 24.5686C5.8926 23.7272 5.3649 22.9816 4.688 22.3962C4.163 22.1079 3.41301 21.3966 4.66923 21.3774C5.14891 21.4307 5.60897 21.6019 6.01043 21.8763C6.4119 22.1507 6.74293 22.5203 6.97548 22.9537C7.18063 23.3316 7.4565 23.6642 7.78726 23.9326C8.11802 24.201 8.49718 24.3998 8.90301 24.5177C9.30885 24.6355 9.73338 24.6701 10.1523 24.6195C10.5712 24.5688 10.9762 24.4339 11.3442 24.2225C11.4091 23.4407 11.749 22.7096 12.3004 22.1656C8.96297 21.7811 5.47549 20.4546 5.47549 14.572C5.45441 13.0435 6.00451 11.5647 7.01298 10.4388C6.55441 9.11036 6.60806 7.6525 7.16298 6.36327C7.16298 6.36327 8.41917 5.95954 11.2879 7.93965C13.7424 7.24754 16.3335 7.24754 18.7879 7.93965C21.6566 5.94033 22.9129 6.36327 22.9129 6.36327C23.4679 7.65248 23.5215 9.11037 23.0629 10.4388C24.0744 11.5628 24.6249 13.0429 24.6004 14.572C24.6004 20.4738 21.0941 21.7811 17.7567 22.1656C18.1146 22.5376 18.3903 22.9842 18.565 23.4751C18.7397 23.9661 18.8093 24.4898 18.7691 25.0108C18.7691 27.0678 18.7504 28.721 18.7504 29.2401C18.7504 29.6438 19.0316 30.1244 19.7816 29.9706C23.1546 28.8062 26.0142 26.4506 27.85 23.3244C29.6857 20.1983 30.3781 16.5049 29.8036 12.9037C29.2291 9.30244 27.4251 6.02775 24.7136 3.66415C22.002 1.30056 18.5595 0.00189921 15.0004 0Z" fill="black"/>
</svg>
