<svg width="102" height="57" viewBox="0 0 102 57" fill="none" xmlns="http://www.w3.org/2000/svg">
<rect x="0.499512" y="0.847412" width="100.147" height="55.1378" rx="5.5" fill="white" stroke="#DEDEDE"/>
<path d="M50.9999 13C47.4382 13.0002 43.9927 14.2997 41.28 16.6662C38.5672 19.0327 36.7643 22.3116 36.1937 25.9163C35.6232 29.5211 36.3223 33.2163 38.1659 36.3409C40.0095 39.4655 42.8773 41.8156 46.2562 42.9706C47.0062 43.1052 47.2875 42.6438 47.2875 42.24C47.2875 41.8748 47.2687 40.6637 47.2687 39.3756C43.5 40.0869 42.525 38.4337 42.225 37.5686C41.8921 36.7272 41.3644 35.9816 40.6875 35.3962C40.1625 35.1079 39.4125 34.3966 40.6687 34.3774C41.1484 34.4307 41.6085 34.6019 42.0099 34.8763C42.4114 35.1507 42.7424 35.5203 42.975 35.9537C43.1801 36.3316 43.456 36.6642 43.7868 36.9326C44.1175 37.201 44.4967 37.3998 44.9025 37.5177C45.3084 37.6355 45.7329 37.6701 46.1518 37.6195C46.5707 37.5688 46.9757 37.4339 47.3437 37.2225C47.4086 36.4407 47.7485 35.7096 48.3 35.1656C44.9625 34.7811 41.475 33.4546 41.475 27.572C41.4539 26.0435 42.004 24.5647 43.0125 23.4388C42.5539 22.1104 42.6076 20.6525 43.1625 19.3633C43.1625 19.3633 44.4187 18.9595 47.2875 20.9397C49.7419 20.2475 52.333 20.2475 54.7874 20.9397C57.6561 18.9403 58.9124 19.3633 58.9124 19.3633C59.4674 20.6525 59.521 22.1104 59.0624 23.4388C60.0739 24.5628 60.6245 26.0429 60.5999 27.572C60.5999 33.4738 57.0936 34.7811 53.7562 35.1656C54.1141 35.5376 54.3898 35.9842 54.5645 36.4751C54.7392 36.9661 54.8089 37.4898 54.7687 38.0108C54.7687 40.0678 54.7499 41.721 54.7499 42.2401C54.7499 42.6438 55.0311 43.1244 55.7811 42.9706C59.1541 41.8062 62.0137 39.4506 63.8495 36.3244C65.6852 33.1983 66.3777 29.5049 65.8031 25.9037C65.2286 22.3024 63.4246 19.0278 60.7131 16.6642C58.0015 14.3006 54.559 13.0019 50.9999 13Z" fill="black"/>
</svg>
