<svg xmlns="http://www.w3.org/2000/svg" width="102" height="57" fill="none" viewBox="0 0 102 57"><rect width="100.147" height="55.138" x=".5" y=".868" fill="#fff" stroke="#DEDEDE" rx="5.5"/><path fill="#4285F4" fill-rule="evenodd" d="M62.7222 28.2783C62.7222 27.4269 62.6452 26.6082 62.5022 25.8223H51.1033V30.4669H57.6169C57.3364 31.9678 56.4836 33.2395 55.2018 34.0909V37.1036H59.1133C61.4019 35.0133 62.7222 31.9351 62.7222 28.2783Z" clip-rule="evenodd"/><path fill="#34A853" fill-rule="evenodd" d="M51.1031 40.0154C54.3709 40.0154 57.1106 38.9402 59.1131 37.1064L55.2017 34.0937C54.1179 34.8141 52.7315 35.2398 51.1031 35.2398C47.9508 35.2398 45.2826 33.1276 44.3309 30.2896H40.2874V33.4005C42.2789 37.3247 46.3719 40.0154 51.1031 40.0154Z" clip-rule="evenodd"/><path fill="#FBBC05" fill-rule="evenodd" d="M44.3309 30.2892C44.0888 29.5688 43.9513 28.7992 43.9513 28.0078C43.9513 27.2164 44.0888 26.4469 44.3309 25.7265V22.6155H40.2873C39.4676 24.2365 39 26.0703 39 28.0078C39 29.9454 39.4676 31.7792 40.2873 33.4002L44.3309 30.2892Z" clip-rule="evenodd"/><path fill="#EA4335" fill-rule="evenodd" d="M51.1031 20.7756C52.8801 20.7756 54.4755 21.3814 55.7298 22.5713L59.2012 19.1273C57.1051 17.1898 54.3654 16 51.1031 16C46.3719 16 42.2789 18.6907 40.2874 22.6149L44.3309 25.7259C45.2826 22.8878 47.9508 20.7756 51.1031 20.7756Z" clip-rule="evenodd"/></svg>