<svg width="26" height="26" viewBox="0 0 26 26" fill="none" xmlns="http://www.w3.org/2000/svg">
<path fill-rule="evenodd" clip-rule="evenodd" d="M26.0002 13.293C26.0002 12.3712 25.9158 11.4848 25.7591 10.634H13.2656V15.6624H20.4047C20.0972 17.2874 19.1626 18.6641 17.7577 19.5859V22.8476H22.0448C24.5531 20.5845 26.0002 17.2519 26.0002 13.293Z" fill="#4285F4"/>
<path fill-rule="evenodd" clip-rule="evenodd" d="M13.2654 26C16.847 26 19.8498 24.836 22.0446 22.8506L17.7575 19.5889C16.5697 20.3689 15.0502 20.8297 13.2654 20.8297C9.81043 20.8297 6.88605 18.543 5.84292 15.4704H1.41113V18.8385C3.59387 23.0869 8.07992 26 13.2654 26Z" fill="#34A853"/>
<path fill-rule="evenodd" clip-rule="evenodd" d="M5.84273 15.4701C5.57742 14.6901 5.42668 13.857 5.42668 13.0002C5.42668 12.1434 5.57742 11.3103 5.84273 10.5303V7.16223H1.41094C0.51252 8.91716 0 10.9025 0 13.0002C0 15.0978 0.51252 17.0832 1.41094 18.8382L5.84273 15.4701Z" fill="#FBBC05"/>
<path fill-rule="evenodd" clip-rule="evenodd" d="M13.2654 5.17026C15.213 5.17026 16.9616 5.82615 18.3364 7.11428L22.1411 3.38578C19.8438 1.28813 16.841 0 13.2654 0C8.07992 0 3.59387 2.91307 1.41113 7.16155L5.84292 10.5296C6.88605 7.45699 9.81043 5.17026 13.2654 5.17026Z" fill="#EA4335"/>
</svg>
