<svg width="18" height="18" viewBox="0 0 18 18" fill="none" xmlns="http://www.w3.org/2000/svg">
<path d="M9.00032 0.99707C4.40782 0.99707 0.666992 4.7379 0.666992 9.3304C0.666992 13.9229 4.40782 17.6637 9.00032 17.6637C13.5928 17.6637 17.3337 13.9229 17.3337 9.3304C17.3337 4.7379 13.5928 0.99707 9.00032 0.99707ZM9.00032 2.66374C12.6921 2.66374 15.667 5.63863 15.667 9.3304C15.667 13.0222 12.6921 15.9971 9.00032 15.9971C5.30856 15.9971 2.33366 13.0222 2.33366 9.3304C2.33366 5.63863 5.30856 2.66374 9.00032 2.66374ZM8.16699 5.16374V8.49707H4.83366V10.1637H8.16699V13.4971H9.83366V10.1637H13.167V8.49707H9.83366V5.16374H8.16699Z" fill="#64686B"/>
</svg>
