<svg width="16" height="16" viewBox="0 0 16 16" fill="none" xmlns="http://www.w3.org/2000/svg">
<g id="Vector">
<path d="M13.6567 2.34327C10.5324 -0.781089 5.46762 -0.781089 2.34327 2.34327C-0.781089 5.46762 -0.781089 10.5324 2.34327 13.6567C5.46762 16.7811 10.5324 16.7811 13.6567 13.6567C16.7811 10.5324 16.7805 5.46762 13.6567 2.34327ZM12.3537 6.02184L7.4925 10.8837C7.37249 11.0037 7.20974 11.0711 7.04004 11.0711C6.87034 11.0711 6.70759 11.0037 6.58758 10.8837L3.64625 7.94176C3.58684 7.88234 3.5397 7.8118 3.50755 7.73417C3.47539 7.65654 3.45884 7.57333 3.45884 7.4893C3.45884 7.31959 3.52625 7.15684 3.64625 7.03684C3.76626 6.91684 3.92901 6.84942 4.09872 6.84942C4.26842 6.84942 4.43118 6.91684 4.55118 7.03684L7.04004 9.5257L11.4488 5.11628C11.5083 5.05686 11.5789 5.00973 11.6565 4.97759C11.7342 4.94545 11.8175 4.92892 11.9015 4.92895C11.9856 4.92898 12.0688 4.94557 12.1465 4.97776C12.2241 5.00996 12.2946 5.05714 12.3541 5.1166C12.4135 5.17606 12.4606 5.24664 12.4928 5.32431C12.5249 5.40198 12.5414 5.48522 12.5414 5.56928C12.5414 5.65334 12.5248 5.73657 12.4926 5.81422C12.4604 5.89187 12.4132 5.96242 12.3537 6.02184Z" fill="#A2F0AA"/>
<path d="M12.3537 6.02184L7.4925 10.8837C7.37249 11.0037 7.20974 11.0711 7.04004 11.0711C6.87034 11.0711 6.70759 11.0037 6.58758 10.8837L3.64625 7.94176C3.58684 7.88234 3.5397 7.8118 3.50755 7.73417C3.47539 7.65654 3.45884 7.57333 3.45884 7.4893C3.45884 7.31959 3.52625 7.15684 3.64625 7.03684C3.76626 6.91684 3.92901 6.84942 4.09872 6.84942C4.26842 6.84942 4.43118 6.91684 4.55118 7.03684L7.04004 9.5257L11.4488 5.11628C11.5083 5.05686 11.5789 5.00973 11.6565 4.97759C11.7342 4.94545 11.8175 4.92892 11.9015 4.92895C11.9856 4.92898 12.0688 4.94557 12.1465 4.97776C12.2241 5.00996 12.2946 5.05714 12.3541 5.1166C12.4135 5.17606 12.4606 5.24664 12.4928 5.32431C12.5249 5.40198 12.5414 5.48522 12.5414 5.56928C12.5414 5.65334 12.5248 5.73657 12.4926 5.81422C12.4604 5.89187 12.4132 5.96242 12.3537 6.02184Z" fill="#49884F"/>
</g>
</svg>
