<svg width="16" height="16" viewBox="0 0 16 16" fill="none" xmlns="http://www.w3.org/2000/svg">
<rect width="16" height="16" rx="8" fill="#FFEDBE"/>
<path d="M8.24475 3C5.34675 3 3 5.352 3 8.25C3 11.148 5.34675 13.5 8.24475 13.5C11.148 13.5 13.5 11.148 13.5 8.25C13.5 5.352 11.148 3 8.24475 3ZM8.25 12.45C5.9295 12.45 4.05 10.5705 4.05 8.25C4.05 5.9295 5.9295 4.05 8.25 4.05C10.5705 4.05 12.45 5.9295 12.45 8.25C12.45 10.5705 10.5705 12.45 8.25 12.45ZM8.5125 5.625H7.725V8.775L10.4812 10.4287L10.875 9.783L8.5125 8.38125V5.625Z" fill="#FF9E0C"/>
</svg>
