<svg xmlns="http://www.w3.org/2000/svg" width="16" height="16" fill="none" viewBox="0 0 16 16"><g id="Frame 47"><rect width="16" height="16" fill="#FFBEBE" rx="8"/><g id="Artboard"><g id="inbox"><path id="Shape" stroke="#E20000" stroke-linecap="round" stroke-linejoin="round" d="M12.667 8.5H10.8416C10.299 8.5 9.79617 8.7847 9.51699 9.25V9.25C9.23781 9.7153 8.73497 10 8.19235 10H8.14164C7.59901 10 7.09617 9.7153 6.81699 9.25V9.25C6.53781 8.7847 6.03498 8.5 5.49235 8.5H3.66699"/><path id="Shape_2" fill-rule="evenodd" stroke="#E20000" stroke-linecap="round" stroke-linejoin="round" d="M5.22849 4.595L4.38182 6.71237C3.9096 7.89328 3.66699 9.15343 3.66699 10.4253V11C3.66699 11.2652 3.76181 11.5196 3.9306 11.7071C4.09938 11.8946 4.3283 12 4.56699 12H11.767C12.0057 12 12.2346 11.8946 12.4034 11.7071C12.5722 11.5196 12.667 11.2652 12.667 11V10.4253C12.667 9.15343 12.4244 7.89328 11.9522 6.71237L11.1055 4.595C11.0349 4.41784 10.9194 4.26729 10.7732 4.16166C10.627 4.05603 10.4564 3.99987 10.282 4H6.05199C5.8776 3.99987 5.70694 4.05603 5.56074 4.16166C5.41455 4.26729 5.29912 4.41784 5.22849 4.595Z" clip-rule="evenodd"/></g></g></g></svg>