<svg xmlns="http://www.w3.org/2000/svg" width="56" height="56" fill="none" viewBox="0 0 56 56"><g id="Wallpaper" clip-path="url(#clip0_1243_81179)"><path id="Vector" fill="#8F9397" d="M9.66634 9.66634H25.708V5.08301H9.66634C7.14551 5.08301 5.08301 7.14551 5.08301 9.66634V25.708H9.66634V9.66634ZM23.4163 30.2913L14.2497 41.7497H41.7497L34.8747 32.583L30.2226 38.7934L23.4163 30.2913ZM39.458 19.9788C39.458 18.0768 37.9226 16.5413 36.0205 16.5413C34.1184 16.5413 32.583 18.0768 32.583 19.9788C32.583 21.8809 34.1184 23.4163 36.0205 23.4163C37.9226 23.4163 39.458 21.8809 39.458 19.9788ZM46.333 5.08301H30.2913V9.66634H46.333V25.708H50.9163V9.66634C50.9163 7.14551 48.8538 5.08301 46.333 5.08301ZM46.333 46.333H30.2913V50.9163H46.333C48.8538 50.9163 50.9163 48.8538 50.9163 46.333V30.2913H46.333V46.333ZM9.66634 30.2913H5.08301V46.333C5.08301 48.8538 7.14551 50.9163 9.66634 50.9163H25.708V46.333H9.66634V30.2913Z"/></g><defs><clipPath id="clip0_1243_81179"><rect width="55" height="55" fill="#fff" transform="translate(0.5 0.5)"/></clipPath></defs></svg>