<svg width="16" height="16" viewBox="0 0 16 16" fill="none" xmlns="http://www.w3.org/2000/svg">
<g id="Thumb up" clip-path="url(#clip0_2313_4668)">
<path id="Vector" d="M0.666748 14H3.33341V6.00002H0.666748V14ZM15.3334 6.66669C15.3334 5.93335 14.7334 5.33335 14.0001 5.33335H9.79342L10.4267 2.28669L10.4467 2.07335C10.4467 1.80002 10.3334 1.54669 10.1534 1.36669L9.44675 0.666687L5.06008 5.06002C4.81342 5.30002 4.66675 5.63335 4.66675 6.00002V12.6667C4.66675 13.4 5.26675 14 6.00008 14H12.0001C12.5534 14 13.0267 13.6667 13.2267 13.1867L15.2401 8.48669C15.3001 8.33335 15.3334 8.17335 15.3334 8.00002V6.66669Z" fill="#999999"/>
</g>
<defs>
<clipPath id="clip0_2313_4668">
<rect width="16" height="16" fill="white"/>
</clipPath>
</defs>
</svg>
