<svg width="51" height="52" viewBox="0 0 51 52" fill="none" xmlns="http://www.w3.org/2000/svg">
<rect width="51" height="52" rx="25.5" fill="#F1F5FF"/>
<g clip-path="url(#clip0_1932_100182)">
<path d="M34.875 18.91H14.875C13.8412 18.91 13 19.7513 13 20.785V32.035C13 33.0688 13.8412 33.91 14.875 33.91H34.875C35.9088 33.91 36.75 33.0688 36.75 32.035V20.785C36.75 19.7513 35.9088 18.91 34.875 18.91ZM34.875 20.16C34.9125 20.16 34.9475 20.1638 34.9837 20.17L25.5688 26.4463C25.2063 26.6875 24.545 26.6875 24.1825 26.4463L14.7675 20.17C14.8025 20.1638 14.8388 20.16 14.8763 20.16H34.875ZM34.875 32.66H14.875C14.53 32.66 14.25 32.38 14.25 32.035V21.3275L23.4887 27.4863C23.8775 27.745 24.3763 27.875 24.875 27.875C25.3737 27.875 25.8725 27.745 26.2613 27.4863L35.5 21.3275V32.035C35.5 32.38 35.22 32.66 34.875 32.66Z" fill="#377DFF"/>
</g>
<defs>
<clipPath id="clip0_1932_100182">
<rect width="25" height="25" fill="white" transform="translate(13 11.41)"/>
</clipPath>
</defs>
</svg>
