<svg width="51" height="52" viewBox="0 0 51 52" fill="none" xmlns="http://www.w3.org/2000/svg">
<rect width="51" height="52" rx="25.5" fill="#F1F5FF"/>
<g clip-path="url(#clip0_1932_100163)">
<path d="M25.4997 39.41C25.3085 39.41 25.1272 39.3225 25.0085 39.1713C24.9372 39.08 23.236 36.9038 21.5122 33.69C20.4972 31.7988 19.6872 29.9413 19.106 28.17C18.3722 25.9363 18.001 23.83 18.001 21.91C18.001 17.775 21.366 14.41 25.501 14.41C29.636 14.41 33.001 17.775 33.001 21.91C33.001 23.83 32.6285 25.935 31.896 28.17C31.3147 29.9413 30.5047 31.7988 29.4897 33.69C27.7647 36.9038 26.0647 39.08 25.9935 39.1713C25.8747 39.3225 25.6935 39.41 25.5022 39.41H25.4997ZM25.4997 15.66C22.0535 15.66 19.2497 18.4638 19.2497 21.91C19.2497 25.9775 21.0785 30.24 22.6135 33.0988C23.741 35.2 24.8747 36.8663 25.4997 37.7363C26.1272 36.8625 27.2685 35.1863 28.3972 33.0788C29.926 30.225 31.7497 25.97 31.7497 21.91C31.7497 18.4638 28.946 15.66 25.4997 15.66Z" fill="#377DFF"/>
<path d="M25.5 25.66C23.4325 25.66 21.75 23.9775 21.75 21.91C21.75 19.8425 23.4325 18.16 25.5 18.16C27.5675 18.16 29.25 19.8425 29.25 21.91C29.25 23.9775 27.5675 25.66 25.5 25.66ZM25.5 19.41C24.1212 19.41 23 20.5313 23 21.91C23 23.2888 24.1212 24.41 25.5 24.41C26.8787 24.41 28 23.2888 28 21.91C28 20.5313 26.8787 19.41 25.5 19.41Z" fill="#377DFF"/>
</g>
<defs>
<clipPath id="clip0_1932_100163">
<rect width="25" height="25" fill="white" transform="translate(13 14.41)"/>
</clipPath>
</defs>
</svg>
