<svg width="51" height="52" viewBox="0 0 51 52" fill="none" xmlns="http://www.w3.org/2000/svg">
<rect width="51" height="52" rx="25.5" fill="#F1F5FF"/>
<g clip-path="url(#clip0_1932_100173)">
<path d="M33.0004 39.41C30.7866 39.41 28.4316 38.7825 26.0004 37.545C23.7591 36.4038 21.5454 34.77 19.5979 32.82C17.6504 30.87 16.0191 28.6538 14.8791 26.4113C13.6441 23.9788 13.0166 21.6238 13.0166 19.41C13.0166 17.975 14.3541 16.5888 14.9279 16.06C15.7541 15.2988 17.0541 14.41 17.9991 14.41C18.4691 14.41 19.0191 14.7175 19.7329 15.3775C20.2641 15.87 20.8629 16.5375 21.4616 17.3075C21.8229 17.7725 23.6241 20.1463 23.6241 21.285C23.6241 22.2188 22.5679 22.8688 21.4504 23.555C21.0179 23.82 20.5716 24.095 20.2491 24.3538C19.9041 24.63 19.8429 24.7763 19.8329 24.8088C21.0191 27.7663 24.6454 31.3925 27.6016 32.5775C27.6279 32.5688 27.7741 32.5113 28.0554 32.1613C28.3141 31.8388 28.5891 31.3913 28.8541 30.96C29.5416 29.8425 30.1904 28.7863 31.1241 28.7863C32.2629 28.7863 34.6366 30.5875 35.1016 30.9488C35.8716 31.5475 36.5391 32.1463 37.0316 32.6775C37.6916 33.39 37.9991 33.9413 37.9991 34.4113C37.9991 35.3563 37.1104 36.66 36.3504 37.49C35.8204 38.0675 34.4341 39.4113 32.9991 39.4113L33.0004 39.41ZM17.9929 15.66C17.6579 15.6663 16.7566 16.0763 15.7766 16.9788C14.8466 17.8363 14.2679 18.7675 14.2679 19.41C14.2679 27.8213 24.5979 38.16 33.0004 38.16C33.6416 38.16 34.5729 37.5788 35.4304 36.6438C36.3341 35.6588 36.7441 34.7538 36.7504 34.4175C36.7104 34.18 36.0529 33.2563 34.2541 31.8713C32.7079 30.6813 31.4541 30.0425 31.1316 30.035C31.1091 30.0413 30.9691 30.095 30.6854 30.455C30.4391 30.7688 30.1754 31.1975 29.9191 31.6125C29.2191 32.7513 28.5579 33.8275 27.5966 33.8275C27.4416 33.8275 27.2891 33.7975 27.1429 33.7388C23.8616 32.4263 19.9816 28.5463 18.6691 25.265C18.5116 24.8713 18.4866 24.2538 19.2616 23.5513C19.6741 23.1775 20.2441 22.8275 20.7966 22.4875C21.2116 22.2325 21.6416 21.9688 21.9541 21.7213C22.3141 21.4375 22.3679 21.2975 22.3741 21.275C22.3654 20.9525 21.7279 19.6988 20.5379 18.1525C19.1529 16.3538 18.2291 15.6975 17.9916 15.6563L17.9929 15.66Z" fill="#377DFF"/>
</g>
<defs>
<clipPath id="clip0_1932_100173">
<rect width="25" height="25" fill="white" transform="translate(13 14.41)"/>
</clipPath>
</defs>
</svg>
