<svg width="24" height="25" viewBox="0 0 24 25" fill="none" xmlns="http://www.w3.org/2000/svg">
<g id="icon-master-card.svg">
<path id="Vector" d="M15.2729 19.5986C13.9423 19.5988 12.6414 19.2044 11.5349 18.4653C10.4284 17.7261 9.56588 16.6755 9.05647 15.4462C8.54706 14.2169 8.41362 12.8641 8.67303 11.559C8.93244 10.2539 9.57304 9.05494 10.5138 8.11388C11.4546 7.17281 12.6533 6.53185 13.9584 6.27206C15.2635 6.01226 16.6163 6.1453 17.8457 6.65434C19.0752 7.16338 20.1261 8.02556 20.8655 9.13187C21.605 10.2382 21.9998 11.5389 21.9999 12.8696V12.8706C21.9981 14.6542 21.2888 16.3643 20.0277 17.6256C18.7665 18.8869 17.0566 19.5965 15.2729 19.5986Z" fill="#FFD995"/>
<path id="Vector_2" d="M8.72703 19.5986C7.39635 19.5986 6.09556 19.204 4.98915 18.4647C3.88274 17.7254 3.02039 16.6747 2.51116 15.4453C2.00194 14.2159 1.8687 12.8631 2.1283 11.558C2.3879 10.2529 3.02868 9.0541 3.96961 8.11317C4.91054 7.17224 6.10935 6.53146 7.41446 6.27186C8.71956 6.01226 10.0723 6.1455 11.3017 6.65472C12.5311 7.16395 13.5819 8.02629 14.3212 9.13271C15.0604 10.2391 15.455 11.5399 15.455 12.8706C15.4532 14.6544 14.7437 16.3646 13.4824 17.6259C12.2211 18.8873 10.5108 19.5967 8.72703 19.5986Z" fill="#FFAE1F"/>
</g>
</svg>
