<svg width="24" height="25" viewBox="0 0 24 25" fill="none" xmlns="http://www.w3.org/2000/svg">
<g id="icon-paypal.svg">
<path id="Vector" d="M8.88222 20.6509C8.80513 21.1366 8.38635 21.4942 7.89458 21.4942H4.06283C3.21609 21.496 2.5282 20.811 2.52637 19.9643C2.52619 19.8788 2.53316 19.7934 2.54722 19.709L5.13706 3.30274C5.28431 2.38732 6.07315 1.71341 7.00034 1.71094H13.2142C15.7747 1.71094 17.6224 2.33106 18.7063 3.55371C19.753 4.75956 20.155 6.39561 19.7864 7.94922C19.7649 8.08399 19.7434 8.21973 19.7112 8.36722C18.888 12.585 16.056 14.8242 11.5257 14.8242H9.80698L8.88222 20.6509Z" fill="#B2B1FF"/>
<path id="Vector_2" d="M20.436 7.81659C20.2699 7.63062 20.0873 7.46082 19.891 7.30859C19.8691 7.52319 19.8361 7.73755 19.7856 7.95037C19.7642 8.08514 19.7426 8.22088 19.7104 8.36834C18.8872 12.5861 16.0552 14.8254 11.5249 14.8254H9.80616L8.88142 20.6521C8.80433 21.1378 8.38551 21.4954 7.89375 21.4954H6.72608L6.64405 22.0158C6.63209 22.0915 6.62604 22.168 6.62598 22.2447C6.62568 23.0548 7.28217 23.7118 8.09229 23.7121H11.3267C12.1923 23.7194 12.9348 23.0962 13.0777 22.2424L13.7183 18.2111L13.7291 18.1565H14.0279C18.0601 18.1565 20.5787 16.1633 21.313 12.3937C21.7674 10.8155 21.4416 9.11518 20.436 7.81659Z" fill="#615DFF"/>
</g>
</svg>
