<svg width="25" height="25" viewBox="0 0 25 25" fill="none" xmlns="http://www.w3.org/2000/svg">
<g id="Frame">
<path id="Vector" d="M17.9102 21.3398V19.3398C17.9102 18.279 17.4887 17.2616 16.7386 16.5114C15.9884 15.7613 14.971 15.3398 13.9102 15.3398H5.91016C4.84929 15.3398 3.83187 15.7613 3.08173 16.5114C2.33158 17.2616 1.91016 18.279 1.91016 19.3398V21.3398" stroke="#73DCE9" stroke-width="2" stroke-linecap="round" stroke-linejoin="round"/>
<path id="Vector_2" d="M9.91016 11.3398C12.1193 11.3398 13.9102 9.54898 13.9102 7.33984C13.9102 5.1307 12.1193 3.33984 9.91016 3.33984C7.70102 3.33984 5.91016 5.1307 5.91016 7.33984C5.91016 9.54898 7.70102 11.3398 9.91016 11.3398Z" stroke="#73DCE9" stroke-width="2" stroke-linecap="round" stroke-linejoin="round"/>
<path id="Vector_3" d="M23.9102 21.3407V19.3407C23.9095 18.4544 23.6145 17.5935 23.0715 16.893C22.5285 16.1926 21.7683 15.6923 20.9102 15.4707" stroke="#73DCE9" stroke-width="2" stroke-linecap="round" stroke-linejoin="round"/>
<path id="Vector_4" d="M16.9102 3.4707C17.7706 3.691 18.5332 4.1914 19.0778 4.89301C19.6224 5.59462 19.918 6.45753 19.918 7.3457C19.918 8.23387 19.6224 9.09678 19.0778 9.79839C18.5332 10.5 17.7706 11.0004 16.9102 11.2207" stroke="#73DCE9" stroke-width="2" stroke-linecap="round" stroke-linejoin="round"/>
</g>
</svg>
